<?xml version="1.0" encoding="UTF-8" standalone="no"?>
<!-- Created with Inkscape (http://www.inkscape.org/) -->

<svg
   xmlns:dc="http://purl.org/dc/elements/1.1/"
   xmlns:cc="http://creativecommons.org/ns#"
   xmlns:rdf="http://www.w3.org/1999/02/22-rdf-syntax-ns#"
   xmlns:svg="http://www.w3.org/2000/svg"
   xmlns="http://www.w3.org/2000/svg"
   xmlns:sodipodi="http://sodipodi.sourceforge.net/DTD/sodipodi-0.dtd"
   xmlns:inkscape="http://www.inkscape.org/namespaces/inkscape"
   inkscape:version="0.48.2 r9819"
   version="1.1"
   id="svg8284"
   height="111.60155"
   width="244.44676"
   sodipodi:docname="becca_logo_8.svg"
   inkscape:export-filename="/Users/brandon/Desktop/becca_logo_5.png"
   inkscape:export-xdpi="400"
   inkscape:export-ydpi="400">
  <sodipodi:namedview
     id="base"
     pagecolor="#ffffff"
     bordercolor="#666666"
     borderopacity="1.0"
     inkscape:pageopacity="0"
     inkscape:pageshadow="2"
     inkscape:zoom="1.4142136"
     inkscape:cx="216.22768"
     inkscape:cy="42.191288"
     inkscape:document-units="px"
     inkscape:current-layer="svg8284"
     showgrid="false"
     inkscape:window-width="1276"
     inkscape:window-height="756"
     inkscape:window-x="4"
     inkscape:window-y="0"
     inkscape:window-maximized="1"
     fit-margin-top="0"
     fit-margin-left="0"
     fit-margin-right="0"
     fit-margin-bottom="0" />
  <defs
     id="defs8286" />
  <metadata
     id="metadata8289">
    <rdf:RDF>
      <cc:Work
         rdf:about="">
        <dc:format>image/svg+xml</dc:format>
        <dc:type
           rdf:resource="http://purl.org/dc/dcmitype/StillImage" />
        <dc:title></dc:title>
      </cc:Work>
    </rdf:RDF>
  </metadata>
  <path
     style="fill:#993d29;fill-opacity:1;stroke:#ffffff;stroke-width:0.26572049;stroke-miterlimit:4;stroke-opacity:1;stroke-dasharray:none"
     d="m 184.98799,62.571984 c -1.30677,1.096513 -2.44578,2.310156 -3.41756,3.62646 l 1.85628,2.496462 c -1.45897,2.150738 -2.42081,4.557807 -2.89137,7.043904 l -2.94541,0.520317 c -0.32188,2.64882 -0.16329,5.359584 0.50342,7.989248 l 2.80925,0.09255 c 0.69959,2.488164 1.92242,4.874714 3.69173,6.983291 0.0394,0.04674 0.0777,0.09333 0.11754,0.139846 l -1.33344,2.441372 c 1.86515,1.995688 4.03225,3.560689 6.35472,4.70539 l 1.81296,-2.128257 c 2.69079,1.15866 5.61791,1.686015 8.51923,1.523331 l 1.1832,2.779422 c 2.56077,-0.22467 5.08826,-0.911103 7.45446,-2.070861 l -0.59301,-3.057867 c 1.02459,-0.571437 2.01476,-1.235374 2.94671,-2.017324 1.41233,-1.185102 2.60856,-2.540006 3.58002,-4.001254 l 2.96911,0.825585 c 1.33367,-2.266935 2.21649,-4.733936 2.64178,-7.289693 l -2.64787,-1.39869 c 0.38693,-2.849456 0.11638,-5.775618 -0.82001,-8.547431 l 2.24001,-1.619347 c -0.85166,-2.163446 -2.05715,-4.234388 -3.63774,-6.118039 -0.17059,-0.203244 -0.34901,-0.404373 -0.52513,-0.599986 l -2.55001,1.120766 c -1.95917,-1.976215 -4.26114,-3.437988 -6.73844,-4.361754 l 0.1307,-2.841298 c -2.54973,-0.877952 -5.23334,-1.275158 -7.9014,-1.174583 l -0.7747,2.926404 c -2.49224,0.26004 -4.9491,1.030957 -7.2155,2.303967 l -2.36517,-2.069467 c -0.84509,0.524805 -1.67055,1.119943 -2.45419,1.777491 z"
     id="path4572"
     inkscape:connector-curvature="0" />
  <g
     inkscape:label="Layer 1"
     inkscape:groupmode="layer"
     id="layer1"
     transform="translate(-234.53144,-362.47697)" />
  <text
     xml:space="preserve"
     style="font-size:40px;font-style:normal;font-weight:normal;line-height:125%;letter-spacing:0px;word-spacing:0px;fill:#000000;fill-opacity:1;stroke:none;font-family:Sans"
     x="2.04"
     y="61.885208"
     id="text8985"
     sodipodi:linespacing="125%"
     inkscape:export-xdpi="90"
     inkscape:export-ydpi="90"><tspan
       sodipodi:role="line"
       id="tspan8987"
       x="2.04"
       y="61.885208"
       style="font-size:40px;font-style:normal;font-variant:normal;font-weight:bold;font-stretch:normal;text-align:start;line-height:125%;writing-mode:lr-tb;text-anchor:start;fill:#331508;fill-opacity:1;font-family:Didot;-inkscape-font-specification:Didot Bold"><tspan
   style="font-size:56px;fill:#331508;fill-opacity:1"
   id="tspan8995">B</tspan>ECCA</tspan></text>
  <path
     inkscape:connector-curvature="0"
     id="path4580"
     d="m 193.25825,0.36017271 c -1.65518,0.4126869 -3.21092,1.00420479 -4.66141,1.76128109 l 0.57407,3.0575507 c -2.25419,1.2934926 -4.17385,3.0353137 -5.68661,5.0635265 l -2.87541,-0.8235143 c -1.45045,2.2396413 -2.49625,4.7455753 -3.04978,7.4013843 l 2.48439,1.314672 c -0.46195,2.543042 -0.40909,5.224083 0.2568,7.894886 0.0149,0.0596 0.0288,0.117931 0.0443,0.177221 l -2.26873,1.609734 c 0.80153,2.611338 2.06326,4.967947 3.64888,7.014914 l 2.56246,-1.118142 c 1.91052,2.220988 4.31023,3.978099 6.98925,5.103765 l -0.15498,3.016814 c 2.40009,0.920655 4.97271,1.411664 7.60785,1.406532 l 0.80748,-3.008342 c 1.17139,-0.06444 2.3524,-0.227087 3.53282,-0.521402 1.78891,-0.446024 3.45802,-1.139438 4.97174,-2.026922 l 2.30669,2.043614 c 2.19247,-1.452901 4.06738,-3.283209 5.57001,-5.393893 l -1.76673,-2.417863 c 1.59687,-2.391447 2.63643,-5.140087 3.00992,-8.041856 l 2.72317,-0.47358 c 0.18291,-2.31783 0.007,-4.707646 -0.58762,-7.093536 -0.0643,-0.257464 -0.13641,-0.516447 -0.20897,-0.769465 l -2.78323,-0.110514 C 215.41,12.791983 213.98181,10.469034 212.1602,8.5527836 l 1.363,-2.4964444 c -1.90684,-1.9068387 -4.14473,-3.4402596 -6.58683,-4.5194589 l -1.97915,2.2906303 c -2.35403,-0.8587802 -4.90018,-1.2429318 -7.49525,-1.0922825 l -1.21883,-2.89679988 c -0.98962,0.10119897 -1.99242,0.27425952 -2.98503,0.52174368 z"
     style="fill:#ff9944;fill-opacity:1;stroke:#ffffff;stroke-width:0.26572049;stroke-miterlimit:4;stroke-opacity:1;stroke-dasharray:none" />
  <path
     style="fill:#1e9696;fill-opacity:1;stroke:#ffffff;stroke-width:0.26572049;stroke-miterlimit:4;stroke-opacity:1;stroke-dasharray:none"
     d="m 220.2997,29.886407 c -1.61293,0.555378 -3.11116,1.28023 -4.49018,2.160848 l 0.83837,2.995882 c -2.13286,1.485035 -3.89342,3.387537 -5.22364,5.539876 L 208.488,40.013242 c -1.24973,2.357536 -2.07314,4.945079 -2.39311,7.639025 l 2.58951,1.093142 c -0.23854,2.573625 0.0478,5.239856 0.94393,7.842461 0.02,0.05804 0.039,0.114972 0.0597,0.172685 l -2.11981,1.801337 c 1.02606,2.531548 2.48838,4.769222 4.24639,6.670201 l 2.45526,-1.337219 c 2.09682,2.046023 4.64053,3.587303 7.40747,4.475192 l 0.10854,3.01884 c 2.47121,0.707967 5.07682,0.972893 7.70149,0.738113 l 0.5422,-3.067277 c 1.16131,-0.16629 2.32366,-0.431238 3.47394,-0.827315 1.74322,-0.600241 3.34553,-1.436491 4.77616,-2.452529 l 2.47603,1.834795 c 2.05749,-1.638452 3.76575,-3.62521 5.0787,-5.858818 l -1.97074,-2.254688 c 1.38236,-2.521524 2.17841,-5.350306 2.29757,-8.273582 l 2.67153,-0.709119 c -0.0198,-2.324948 -0.40304,-4.690363 -1.20362,-7.015326 -0.0864,-0.250887 -0.18091,-0.502593 -0.27524,-0.748323 l -2.78226,0.132482 c -1.12085,-2.547062 -2.74607,-4.736694 -4.72777,-6.48689 l 1.14024,-2.605737 C 238.91833,32.0613 236.5553,30.72876 234.02842,29.866508 l -1.77196,2.454409 c -2.41992,-0.650343 -4.98985,-0.811123 -7.56193,-0.43487 l -1.46647,-2.779611 c -0.977,0.187087 -1.96093,0.446883 -2.92818,0.779927 z"
     id="path4582"
     inkscape:connector-curvature="0" />
</svg>
