<?xml version="1.0" encoding="UTF-8" standalone="no"?>
<!-- Created with Inkscape (http://www.inkscape.org/) -->

<svg
   xmlns:osb="http://www.openswatchbook.org/uri/2009/osb"
   xmlns:dc="http://purl.org/dc/elements/1.1/"
   xmlns:cc="http://creativecommons.org/ns#"
   xmlns:rdf="http://www.w3.org/1999/02/22-rdf-syntax-ns#"
   xmlns:svg="http://www.w3.org/2000/svg"
   xmlns="http://www.w3.org/2000/svg"
   xmlns:sodipodi="http://sodipodi.sourceforge.net/DTD/sodipodi-0.dtd"
   xmlns:inkscape="http://www.inkscape.org/namespaces/inkscape"
   inkscape:export-ydpi="400"
   inkscape:export-xdpi="400"
   inkscape:export-filename="/Users/brandon/Desktop/becca_logo_2.png"
   sodipodi:docname="becca_logo_11svg.svg"
   width="524.28571"
   height="258.57144"
   id="svg8284"
   version="1.1"
   inkscape:version="0.48.2 r9819">
  <sodipodi:namedview
     id="base"
     pagecolor="#ffffff"
     bordercolor="#666666"
     borderopacity="1.0"
     inkscape:pageopacity="0.0"
     inkscape:pageshadow="2"
     inkscape:zoom="1.4"
     inkscape:cx="313.57143"
     inkscape:cy="84.910438"
     inkscape:document-units="px"
     inkscape:current-layer="svg8284"
     showgrid="true"
     inkscape:window-width="1276"
     inkscape:window-height="756"
     inkscape:window-x="4"
     inkscape:window-y="0"
     inkscape:window-maximized="1"
     fit-margin-top="0"
     fit-margin-left="0"
     fit-margin-right="0"
     fit-margin-bottom="0"
     inkscape:snap-global="false">
    <inkscape:grid
       type="xygrid"
       id="grid5790" />
  </sodipodi:namedview>
  <defs
     id="defs8286">
    <linearGradient
       id="linearGradient7323"
       osb:paint="solid">
      <stop
         style="stop-color:#000000;stop-opacity:1;"
         offset="0"
         id="stop7325" />
    </linearGradient>
    <pattern
       inkscape:stockid="Stripes 1:1"
       id="Strips1_1"
       patternTransform="translate(0,0) scale(10,10)"
       height="1"
       width="2"
       patternUnits="userSpaceOnUse"
       inkscape:collect="always">
      <rect
         id="rect6608"
         height="2"
         width="1"
         y="-0.5"
         x="0"
         style="fill:black;stroke:none" />
    </pattern>
  </defs>
  <metadata
     id="metadata8289">
    <rdf:RDF>
      <cc:Work
         rdf:about="">
        <dc:format>image/svg+xml</dc:format>
        <dc:type
           rdf:resource="http://purl.org/dc/dcmitype/StillImage" />
        <dc:title></dc:title>
      </cc:Work>
    </rdf:RDF>
  </metadata>
  <g
     inkscape:label="Layer 1"
     inkscape:groupmode="layer"
     id="layer1"
     transform="translate(-80,-287.64789)" />
  <rect
     style="fill:#fdf9f0;fill-opacity:1;stroke:#191614;stroke-width:2.84999108;stroke-linejoin:round;stroke-miterlimit:4;stroke-opacity:1;stroke-dasharray:none"
     id="rect8997"
     width="375.52747"
     height="117.28809"
     x="49.023266"
     y="67.468811" />
  <path
     transform="matrix(0.18214627,-0.13233698,0.13233698,0.18214627,256.69441,80.748045)"
     d="m 398.57144,528.43359 a 25.357143,25.357143 0 1 1 -50.71429,0 25.357143,25.357143 0 1 1 50.71429,0 z"
     sodipodi:ry="25.357143"
     sodipodi:rx="25.357143"
     sodipodi:cy="528.43359"
     sodipodi:cx="373.21429"
     id="path8967"
     style="fill:#ffffe6;fill-opacity:1;stroke:#fdf9f0;stroke-width:2;stroke-miterlimit:4;stroke-opacity:1;stroke-dasharray:none"
     sodipodi:type="arc" />
  <path
     sodipodi:type="arc"
     style="fill:#ffffe6;fill-opacity:1;stroke:#fdf9f0;stroke-width:2;stroke-miterlimit:4;stroke-opacity:1;stroke-dasharray:none"
     id="path8975"
     sodipodi:cx="373.21429"
     sodipodi:cy="528.43359"
     sodipodi:rx="25.357143"
     sodipodi:ry="25.357143"
     d="m 398.57144,528.43359 a 25.357143,25.357143 0 1 1 -50.71429,0 25.357143,25.357143 0 1 1 50.71429,0 z"
     transform="matrix(0.22514515,0,0,0.22514515,279.98281,-16.669679)" />
  <text
     xml:space="preserve"
     style="font-size:40px;font-style:normal;font-weight:normal;line-height:125%;letter-spacing:0px;word-spacing:0px;fill:#191614;fill-opacity:1;stroke:none;font-family:Sans"
     x="99"
     y="148.28572"
     id="text8985"
     sodipodi:linespacing="125%"><tspan
       sodipodi:role="line"
       id="tspan8987"
       x="99"
       y="148.28572"
       style="font-size:56px;font-style:normal;font-variant:normal;font-weight:bold;font-stretch:normal;text-align:start;line-height:125%;writing-mode:lr-tb;text-anchor:start;fill:#191614;fill-opacity:1;font-family:Didot;-inkscape-font-specification:Didot Bold"><tspan
   style="font-size:72px"
   id="tspan5761">B</tspan>ECCA</tspan></text>
  <path
     style="fill:#f2a66c;fill-opacity:1;stroke:none"
     d="m 347.29642,110.16439 c -1.84244,0.34626 -3.59552,0.94218 -5.21875,1.7625 l 1.1625,5.4 c -1.7642,1.11708 -3.26288,2.60613 -4.4,4.35625 l -5.3125,-1.3625 c -0.85925,1.62067 -1.50029,3.37562 -1.88125,5.225 l 4.94375,2.4625 c -0.0532,0.50412 -0.0813,1.01928 -0.0813,1.5375 0,1.54516 0.24478,3.02907 0.69375,4.425 l -4.3875,3.3125 c 0.73902,1.73058 1.72223,3.33447 2.9,4.76875 l 4.99375,-2.325 c 1.39559,1.40496 3.076,2.5231 4.95,3.2625 l -0.14375,5.5125 c 1.72881,0.49537 3.55576,0.7625 5.44375,0.7625 0.027,0 0.0543,1e-4 0.0812,0 l 1.2875,-5.3375 c 2.08106,-0.19519 4.03248,-0.82937 5.7625,-1.8125 l 4.225,3.55625 c 1.51845,-1.07107 2.87696,-2.35271 4.0375,-3.8 l -3.35625,-4.31875 c 1.14602,-1.71927 1.92806,-3.69987 2.25,-5.83125 l 5.4,-1.08125 c 0.0199,-0.36307 0.0375,-0.72572 0.0375,-1.09375 0,-1.50741 -0.17343,-2.97704 -0.49375,-4.3875 l -5.48125,-0.0687 c -0.6732,-2.07956 -1.80393,-3.95239 -3.275,-5.5 l 2.5125,-4.8875 c -1.375,-1.20404 -2.9213,-2.21835 -4.59375,-3.00625 l -3.48125,4.25 c -1.53389,-0.55444 -3.18735,-0.85625 -4.9125,-0.85625 -0.47965,0 -0.95109,0.0231 -1.41875,0.0687 l -2.24375,-4.99375 z m 3.6625,13.95 c 2.99812,0 5.43125,2.43313 5.43125,5.43125 0,2.99811 -2.43313,5.425 -5.43125,5.425 -2.99811,0 -5.425,-2.42689 -5.425,-5.425 0,-2.99812 2.42689,-5.43125 5.425,-5.43125 z"
     id="path7343"
     inkscape:connector-curvature="0" />
  <path
     inkscape:connector-curvature="0"
     id="path7389"
     d="m 366.58214,80.307243 c -1.84244,0.34627 -3.59552,0.94219 -5.21875,1.7625 l 1.1625,5.4 c -1.7642,1.11708 -3.26288,2.60613 -4.4,4.35625 l -5.3125,-1.3625 c -0.85926,1.62068 -1.50029,3.37563 -1.88125,5.225 l 4.94375,2.462497 c -0.0532,0.50413 -0.0813,1.01929 -0.0813,1.5375 0,1.54517 0.24477,3.02908 0.69375,4.425 l -4.3875,3.3125 c 0.73901,1.73059 1.72223,3.33447 2.9,4.76875 l 4.99375,-2.325 c 1.39559,1.40497 3.076,2.52311 4.95,3.2625 l -0.14375,5.5125 c 1.72881,0.49538 3.55576,0.7625 5.44375,0.7625 0.027,0 0.0543,1.1e-4 0.0813,0 l 1.2875,-5.3375 c 2.08105,-0.19518 4.03247,-0.82936 5.7625,-1.8125 l 4.225,3.55625 c 1.51845,-1.07106 2.87696,-2.3527 4.0375,-3.8 l -3.35625,-4.31875 c 1.14601,-1.71926 1.92805,-3.69987 2.25,-5.83125 l 5.4,-1.08125 c 0.0199,-0.36306 0.0375,-0.72571 0.0375,-1.09375 0,-1.5074 -0.17343,-2.977037 -0.49375,-4.387497 l -5.48125,-0.0687 c -0.67321,-2.07955 -1.80394,-3.95238 -3.275,-5.5 l 2.5125,-4.8875 c -1.37501,-1.20403 -2.92131,-2.21834 -4.59375,-3.00625 l -3.48125,4.25 c -1.53389,-0.55443 -3.18736,-0.85625 -4.9125,-0.85625 -0.47965,0 -0.95109,0.0231 -1.41875,0.0687 l -2.24375,-4.99375 z m 3.6625,13.95 c 2.99812,0 5.43125,2.43314 5.43125,5.431247 0,2.99812 -2.43313,5.425 -5.43125,5.425 -2.99812,0 -5.425,-2.42688 -5.425,-5.425 0,-2.998107 2.42688,-5.431247 5.425,-5.431247 z"
     style="fill:#844924;fill-opacity:1;stroke:none" />
  <path
     style="fill:#af6635;fill-opacity:1;stroke:none"
     d="m 368.7408,132.89895 c -1.46558,1.16899 -2.73527,2.51674 -3.78509,4.00186 l 3.55667,4.22628 c -1.03538,1.81339 -1.66192,3.83099 -1.84671,5.90988 l -5.33181,1.28486 c 7e-5,1.83438 0.25569,3.68515 0.78555,5.49752 l 5.52134,-0.14028 c 0.18922,0.4703 0.40568,0.93859 0.64853,1.39639 0.72364,1.36524 1.63521,2.56151 2.68581,3.58446 l -2.32462,4.98186 c 1.46362,1.18278 3.08362,2.13922 4.79606,2.85467 l 3.32279,-4.39342 c 1.89112,0.58752 3.89955,0.78821 5.90159,0.56359 l 2.45529,4.93759 c 1.7595,-0.37196 3.49868,-0.99201 5.16676,-1.8763 0.0236,-0.0134 0.0479,-0.0259 0.0715,-0.0384 l -1.36284,-5.31876 c 1.74715,-1.1473 3.17414,-2.62172 4.24208,-4.30075 l 5.39866,1.16273 c 0.83979,-1.65759 1.43965,-3.4263 1.787,-5.24861 l -4.98832,-2.24336 c 0.20709,-2.05582 -0.0298,-4.17199 -0.74379,-6.20588 l 4.26438,-3.48488 c -0.15237,-0.33014 -0.30692,-0.65871 -0.47923,-0.98389 -0.7059,-1.33192 -1.54781,-2.54896 -2.49152,-3.64503 l -4.87489,2.50686 c -1.56894,-1.52192 -3.44525,-2.64686 -5.4699,-3.32504 l -0.0698,-5.49504 c -1.77882,-0.41963 -3.62011,-0.5914 -5.46679,-0.50407 l -1.08478,5.38562 c -1.61484,0.22897 -3.2171,0.73656 -4.74125,1.54475 -0.42375,0.22473 -0.82946,0.46597 -1.22125,0.72535 l -4.32164,-3.36085 z m 9.77061,10.60903 c 2.64857,-1.40487 5.93824,-0.39459 7.34271,2.25423 1.40489,2.64857 0.3916,5.93275 -2.25714,7.33718 -2.64859,1.40489 -5.92982,0.39721 -7.33428,-2.25162 -1.40488,-2.6486 -0.4001,-5.93533 2.24871,-7.33979 z"
     id="path7391"
     inkscape:connector-curvature="0" />
</svg>
