<?xml version="1.0" encoding="UTF-8" standalone="no"?>
<!-- Created with Inkscape (http://www.inkscape.org/) -->

<svg
   xmlns:dc="http://purl.org/dc/elements/1.1/"
   xmlns:cc="http://creativecommons.org/ns#"
   xmlns:rdf="http://www.w3.org/1999/02/22-rdf-syntax-ns#"
   xmlns:svg="http://www.w3.org/2000/svg"
   xmlns="http://www.w3.org/2000/svg"
   xmlns:sodipodi="http://sodipodi.sourceforge.net/DTD/sodipodi-0.dtd"
   xmlns:inkscape="http://www.inkscape.org/namespaces/inkscape"
   inkscape:version="0.48.2 r9819"
   version="1.1"
   id="svg8284"
   height="258.57144"
   width="524.28571"
   sodipodi:docname="becca_logo_2.svg"
   inkscape:export-filename="/Users/brandon/Desktop/becca_logo_2.png"
   inkscape:export-xdpi="400"
   inkscape:export-ydpi="400">
  <sodipodi:namedview
     id="base"
     pagecolor="#ffffff"
     bordercolor="#666666"
     borderopacity="1.0"
     inkscape:pageopacity="0.0"
     inkscape:pageshadow="2"
     inkscape:zoom="1.4"
     inkscape:cx="297.85714"
     inkscape:cy="111.21675"
     inkscape:document-units="px"
     inkscape:current-layer="svg8284"
     showgrid="false"
     inkscape:window-width="1276"
     inkscape:window-height="756"
     inkscape:window-x="4"
     inkscape:window-y="0"
     inkscape:window-maximized="1"
     fit-margin-top="0"
     fit-margin-left="0"
     fit-margin-right="0"
     fit-margin-bottom="0" />
  <defs
     id="defs8286" />
  <metadata
     id="metadata8289">
    <rdf:RDF>
      <cc:Work
         rdf:about="">
        <dc:format>image/svg+xml</dc:format>
        <dc:type
           rdf:resource="http://purl.org/dc/dcmitype/StillImage" />
        <dc:title></dc:title>
      </cc:Work>
    </rdf:RDF>
  </metadata>
  <g
     inkscape:label="Layer 1"
     inkscape:groupmode="layer"
     id="layer1"
     transform="translate(-80,-287.64789)" />
  <rect
     style="fill:#ffffe6;fill-opacity:1;stroke:none"
     id="rect8997"
     width="524.28571"
     height="258.57144"
     x="0"
     y="0" />
  <path
     style="fill:#502814;fill-opacity:1;stroke:#ffffe6;stroke-width:0.5;stroke-miterlimit:4;stroke-opacity:1;stroke-dasharray:none"
     d="m 335.25966,129.68514 -0.33078,1.70892 0.0274,1.62766 0.003,0.007 -1.54267,0.46515 -0.003,-0.007 -0.88211,-1.37429 -1.21189,-1.24376 -1.09737,0.44269 10e-4,1.74702 0.33247,1.59185 0.003,0.007 -1.42347,0.74944 -0.009,-0.006 -1.11718,-1.18686 -1.42996,-0.9881 -0.99897,0.64361 0.33807,1.71123 0.62434,1.50298 0.009,0.006 -1.26258,1.00724 -0.003,-0.007 -1.32387,-0.95013 -1.59309,-0.70588 -0.85698,0.8256 0.65269,1.61668 0.90107,1.35347 0.003,0.007 -1.04671,1.22718 -0.003,-0.007 -1.4832,-0.68496 -1.6994,-0.38952 -0.67517,0.9735 0.93701,1.46529 1.14183,1.15656 0.009,0.006 -0.7948,1.39787 -0.007,0.003 -1.58002,-0.39513 -1.74508,-0.0561 -0.48766,1.07974 1.20809,1.26081 1.34094,0.92173 0.009,0.006 -0.52204,1.52309 -0.007,0.003 -1.6238,-0.0863 -1.72066,0.26798 -0.27547,1.15565 1.41857,1.00704 1.49839,0.64898 0.003,0.007 -0.21512,1.5915 -0.007,0.003 -1.61075,0.22436 -1.63939,0.59393 -0.0519,1.18044 1.58171,0.72482 1.5952,0.35912 0.007,-0.003 0.088,1.61254 -0.007,0.003 -1.5446,0.52199 -1.50125,0.88961 0.17926,1.17111 1.6899,0.41603 1.62951,0.0446 0.007,-0.003 0.39124,1.56915 -0.007,0.003 -1.41594,0.81198 -1.29867,1.15312 0.39152,1.11819 1.74317,0.0807 1.61076,-0.25664 0.006,-0.009 0.67931,1.46513 -0.007,0.003 -1.23987,1.06599 -1.05629,1.38254 0.60191,1.02547 1.72443,-0.25283 1.52757,-0.558 0.007,-0.003 0.93711,1.30422 0.003,0.007 -1.01832,1.27646 -0.77975,1.55514 0.78579,0.89106 1.64505,-0.57119 1.39322,-0.83852 0.007,-0.003 1.17787,1.10732 -0.007,0.003 -0.75126,1.44336 -0.47477,1.6804 0.93937,0.73199 1.51261,-0.87634 1.20958,-1.09064 0.007,-0.003 1.35804,0.8611 -0.006,0.009 -0.46522,1.55723 -0.13752,1.74124 1.05127,0.53501 1.31762,-1.14174 0.98801,-1.30111 -0.003,-0.007 1.50032,0.59213 0.003,0.007 -0.16018,1.61807 0.18274,1.73386 1.14426,0.32663 1.07522,-1.37116 0.72285,-1.46044 -0.003,-0.007 1.58766,0.29658 -0.006,0.009 0.15434,1.62016 0.50486,1.66965 1.18608,0.10686 0.7968,-1.55135 0.42922,-1.57241 0.006,-0.009 1.6087,-0.007 0.003,0.007 0.45377,1.56161 0.81947,1.54289 1.17674,-0.12444 0.48613,-1.66712 0.13367,-1.62756 -0.003,-0.007 1.58046,-0.31355 0.003,0.007 0.73996,1.45 1.09435,1.35359 1.13141,-0.33846 0.17163,-1.73364 -0.18658,-1.62018 -0.003,-0.007 1.4916,-0.6054 0.003,0.007 1.00344,1.27963 1.32755,1.12635 1.05387,-0.55262 -0.16564,-1.73006 -0.48409,-1.55405 -0.003,-0.007 1.34966,-0.88402 0.003,0.007 1.22527,1.07134 1.52478,0.85174 0.92703,-0.7384 -0.49728,-1.67153 -0.76839,-1.43486 -0.003,-0.007 1.15464,-1.1172 0.009,0.006 1.40355,0.81755 1.6595,0.55244 0.76607,-0.89955 -0.79673,-1.54857 -1.03188,-1.26449 -0.003,-0.007 0.9274,-1.3182 0.003,0.007 1.54204,0.53342 1.72413,0.23036 0.58804,-1.03229 -1.08106,-1.36495 -1.24423,-1.05051 -0.007,0.003 0.66411,-1.46996 1.61234,0.23408 1.7376,-0.10311 0.38915,-1.11958 -1.32375,-1.14341 -1.42061,-0.78914 -0.009,-0.006 0.36669,-1.56488 0.007,-0.003 1.63336,-0.0691 1.68855,-0.42903 0.15803,-1.17468 -1.51341,-0.87068 -1.54395,-0.50878 -0.007,0.003 0.0654,-1.61055 0.007,-0.003 1.58809,-0.37985 1.57127,-0.73798 -0.0618,-1.1843 -1.64812,-0.57138 -1.61424,-0.20944 -0.007,0.003 -0.24344,-1.5899 0.007,-0.003 1.49163,-0.66982 1.40281,-1.0261 -0.28728,-1.15222 -1.72033,-0.24742 -1.63339,0.1013 -0.007,0.003 -0.53148,-1.51805 0.007,-0.003 1.32696,-0.94277 1.18885,-1.27067 -0.50333,-1.08226 -1.73381,0.0861 -1.58053,0.41018 -0.006,0.009 -0.81577,-1.39888 0.007,-0.003 1.12437,-1.17407 0.9275,-1.47926 -0.691,-0.96301 -1.69233,0.41391 -1.47461,0.70583 -0.007,0.003 -1.05844,-1.20957 0.006,-0.009 0.88385,-1.36371 0.63201,-1.63102 -0.86922,-0.80585 -1.58262,0.72471 -1.31372,0.96363 -1.27458,-0.97853 0.006,-0.009 0.60539,-1.51167 0.31374,-1.71271 -1.00385,-0.6354 -1.41418,1.01283 -1.11111,1.19492 0.003,0.007 -1.4377,-0.72851 -0.003,-0.007 0.31745,-1.60092 -0.0236,-1.74134 -1.09871,-0.4346 -1.20591,1.26686 -0.85543,1.38078 -0.006,0.009 -1.54399,-0.44437 -0.003,-0.007 0.005,-1.62764 -0.34568,-1.70933 -1.16517,-0.21675 -0.94643,1.46788 -0.57888,1.52117 0.003,0.007 -1.60671,-0.14691 -0.30404,-1.607 -0.66596,-1.60532 -1.18995,0.007 -0.64336,1.61776 -0.28524,1.60094 0.003,0.007 -1.60122,0.16573 -0.003,-0.007 -0.5959,-1.51814 -0.96543,-1.45014 -1.15788,0.23233 z m 1.21157,7.7657 c 5.53318,-1.37958 11.10092,-0.31091 15.56427,2.52048 l -10.42743,12.43093 -8.59563,-13.74281 c 1.09619,-0.49844 2.24829,-0.90678 3.45879,-1.2086 z m -7.9892,4.06121 8.53695,13.66887 -15.59295,3.88777 c -0.75821,-6.78314 2.01705,-13.34074 7.056,-17.55664 z m 27.65734,1.90473 c 2.15383,2.36855 3.76645,5.28916 4.59515,8.61292 0.83357,3.34326 0.77057,6.69821 -0.0327,9.8151 l -14.95191,-6.03876 10.3895,-12.38926 z m -14.72988,11.38606 2.08886,1.75782 -1.06085,2.62364 -2.68672,-0.1836 -0.6823,-2.73654 2.34101,-1.46132 z m -18.6888,9.45844 15.57779,-3.88397 -1.12242,16.06917 c -6.42299,-1.3597 -11.9441,-5.84266 -14.45537,-12.1852 z m 20.92472,-3.52626 15.03337,6.0748 c -2.61625,4.56545 -7.01505,8.10181 -12.52501,9.4756 -1.21563,0.30309 -2.42965,0.48635 -3.63649,0.56044 l 1.12812,-16.11085 z"
     id="path8316"
     inkscape:connector-curvature="0" />
  <path
     sodipodi:type="arc"
     style="fill:#ffffe6;fill-opacity:1;stroke:#783c1e;stroke-width:2;stroke-miterlimit:4;stroke-opacity:1;stroke-dasharray:none"
     id="path8979"
     sodipodi:cx="367.14285"
     sodipodi:cy="523.79077"
     sodipodi:rx="85.714287"
     sodipodi:ry="85.714287"
     d="m 452.85714,523.79077 a 85.714287,85.714287 0 1 1 -171.42857,0 85.714287,85.714287 0 1 1 171.42857,0 z"
     transform="matrix(0.24257393,-0.06048047,0.06048047,0.24257393,220.39294,50.679572)" />
  <path
     id="path8907"
     d="m 335.25966,129.68514 -0.33078,1.70892 0.0274,1.62766 0.003,0.007 -1.54267,0.46515 -0.003,-0.007 -0.88211,-1.37429 -1.21189,-1.24376 -1.09737,0.44269 10e-4,1.74702 0.33247,1.59185 0.003,0.007 -1.42347,0.74944 -0.009,-0.006 -1.11718,-1.18686 -1.42996,-0.9881 -0.99897,0.64361 0.33807,1.71123 0.62434,1.50298 0.009,0.006 -1.26258,1.00724 -0.003,-0.007 -1.32387,-0.95013 -1.59309,-0.70588 -0.85698,0.8256 0.65269,1.61668 0.90107,1.35347 0.003,0.007 -1.04671,1.22718 -0.003,-0.007 -1.4832,-0.68496 -1.6994,-0.38952 -0.67517,0.9735 0.93701,1.46529 1.14183,1.15656 0.009,0.006 -0.7948,1.39787 -0.007,0.003 -1.58002,-0.39513 -1.74508,-0.0561 -0.48766,1.07974 1.20809,1.26081 1.34094,0.92173 0.009,0.006 -0.52204,1.52309 -0.007,0.003 -1.6238,-0.0863 -1.72066,0.26798 -0.27547,1.15565 1.41857,1.00704 1.49839,0.64898 0.003,0.007 -0.21512,1.5915 -0.007,0.003 -1.61075,0.22436 -1.63939,0.59393 -0.0519,1.18044 1.58171,0.72482 1.5952,0.35912 0.007,-0.003 0.088,1.61254 -0.007,0.003 -1.5446,0.52199 -1.50125,0.88961 0.17926,1.17111 1.6899,0.41603 1.62951,0.0446 0.007,-0.003 0.39124,1.56915 -0.007,0.003 -1.41594,0.81198 -1.29867,1.15312 0.39152,1.11819 1.74317,0.0807 1.61076,-0.25664 0.006,-0.009 0.67931,1.46513 -0.007,0.003 -1.23987,1.06599 -1.05629,1.38254 0.60191,1.02547 1.72443,-0.25283 1.52757,-0.558 0.007,-0.003 0.93711,1.30422 0.003,0.007 -1.01832,1.27646 -0.77975,1.55514 0.78579,0.89106 1.64505,-0.57119 1.39322,-0.83852 0.007,-0.003 1.17787,1.10732 -0.007,0.003 -0.75126,1.44336 -0.47477,1.6804 0.93937,0.73199 1.51261,-0.87634 1.20958,-1.09064 0.007,-0.003 1.35804,0.8611 -0.006,0.009 -0.46522,1.55723 -0.13752,1.74124 1.05127,0.53501 1.31762,-1.14174 0.98801,-1.30111 -0.003,-0.007 1.50032,0.59213 0.003,0.007 -0.16018,1.61807 0.18274,1.73386 1.14426,0.32663 1.07522,-1.37116 0.72285,-1.46044 -0.003,-0.007 1.58766,0.29658 -0.006,0.009 0.15434,1.62016 0.50486,1.66965 1.18608,0.10686 0.7968,-1.55135 0.42922,-1.57241 0.006,-0.009 1.6087,-0.007 0.003,0.007 0.45377,1.56161 0.81947,1.54289 1.17674,-0.12444 0.48613,-1.66712 0.13367,-1.62756 -0.003,-0.007 1.58046,-0.31355 0.003,0.007 0.73996,1.45 1.09435,1.35359 1.13141,-0.33846 0.17163,-1.73364 -0.18658,-1.62018 -0.003,-0.007 1.4916,-0.6054 0.003,0.007 1.00344,1.27963 1.32755,1.12635 1.05387,-0.55262 -0.16564,-1.73006 -0.48409,-1.55405 -0.003,-0.007 1.34966,-0.88402 0.003,0.007 1.22527,1.07134 1.52478,0.85174 0.92703,-0.7384 -0.49728,-1.67153 -0.76839,-1.43486 -0.003,-0.007 1.15464,-1.1172 0.009,0.006 1.40355,0.81755 1.6595,0.55244 0.76607,-0.89955 -0.79673,-1.54857 -1.03188,-1.26449 -0.003,-0.007 0.9274,-1.3182 0.003,0.007 1.54204,0.53342 1.72413,0.23036 0.58804,-1.03229 -1.08106,-1.36495 -1.24423,-1.05051 -0.007,0.003 0.66411,-1.46996 1.61234,0.23408 1.7376,-0.10311 0.38915,-1.11958 -1.32375,-1.14341 -1.42061,-0.78914 -0.009,-0.006 0.36669,-1.56488 0.007,-0.003 1.63336,-0.0691 1.68855,-0.42903 0.15803,-1.17468 -1.51341,-0.87068 -1.54395,-0.50878 -0.007,0.003 0.0654,-1.61055 0.007,-0.003 1.58809,-0.37985 1.57127,-0.73798 -0.0618,-1.1843 -1.64812,-0.57138 -1.61424,-0.20944 -0.007,0.003 -0.24344,-1.5899 0.007,-0.003 1.49163,-0.66982 1.40281,-1.0261 -0.28728,-1.15222 -1.72033,-0.24742 -1.63339,0.1013 -0.007,0.003 -0.53148,-1.51805 0.007,-0.003 1.32696,-0.94277 1.18885,-1.27067 -0.50333,-1.08226 -1.73381,0.0861 -1.58053,0.41018 -0.006,0.009 -0.81577,-1.39888 0.007,-0.003 1.12437,-1.17407 0.9275,-1.47926 -0.691,-0.96301 -1.69233,0.41391 -1.47461,0.70583 -0.007,0.003 -1.05844,-1.20957 0.006,-0.009 0.88385,-1.36371 0.63201,-1.63102 -0.86922,-0.80585 -1.58262,0.72471 -1.31372,0.96363 -1.27458,-0.97853 0.006,-0.009 0.60539,-1.51167 0.31374,-1.71271 -1.00385,-0.6354 -1.41418,1.01283 -1.11111,1.19492 0.003,0.007 -1.4377,-0.72851 -0.003,-0.007 0.31745,-1.60092 -0.0236,-1.74134 -1.09871,-0.4346 -1.20591,1.26686 -0.85543,1.38078 -0.006,0.009 -1.54399,-0.44437 -0.003,-0.007 0.005,-1.62764 -0.34568,-1.70933 -1.16517,-0.21675 -0.94643,1.46788 -0.57888,1.52117 0.003,0.007 -1.60671,-0.14691 -0.30404,-1.607 -0.66596,-1.60532 -1.18995,0.007 -0.64336,1.61776 -0.28524,1.60094 0.003,0.007 -1.60122,0.16573 -0.003,-0.007 -0.5959,-1.51814 -0.96543,-1.45014 -1.15788,0.23233 z m 1.21157,7.7657 c 5.53318,-1.37958 11.10092,-0.31091 15.56427,2.52048 l -10.42743,12.43093 -8.59563,-13.74281 c 1.09619,-0.49844 2.24829,-0.90678 3.45879,-1.2086 z m -7.9892,4.06121 8.53695,13.66887 -15.59295,3.88777 c -0.75821,-6.78314 2.01705,-13.34074 7.056,-17.55664 z m 27.65734,1.90473 c 2.15383,2.36855 3.76645,5.28916 4.59515,8.61292 0.83357,3.34326 0.77057,6.69821 -0.0327,9.8151 l -14.95191,-6.03876 10.3895,-12.38926 z m -14.72988,11.38606 2.08886,1.75782 -1.06085,2.62364 -2.68672,-0.1836 -0.6823,-2.73654 2.34101,-1.46132 z m -18.6888,9.45844 15.57779,-3.88397 -1.12242,16.06917 c -6.42299,-1.3597 -11.9441,-5.84266 -14.45537,-12.1852 z m 20.92472,-3.52626 15.03337,6.0748 c -2.61625,4.56545 -7.01505,8.10181 -12.52501,9.4756 -1.21563,0.30309 -2.42965,0.48635 -3.63649,0.56044 l 1.12812,-16.11085 z"
     style="fill:#502814;fill-opacity:1;stroke:#ffffe6;stroke-width:0.5;stroke-miterlimit:4;stroke-opacity:1;stroke-dasharray:none"
     inkscape:connector-curvature="0" />
  <path
     sodipodi:type="arc"
     style="fill:#ffffe6;fill-opacity:1;stroke:#ffffe6;stroke-width:2;stroke-miterlimit:4;stroke-opacity:1;stroke-dasharray:none"
     id="path8930"
     sodipodi:cx="373.21429"
     sodipodi:cy="528.43359"
     sodipodi:rx="25.357143"
     sodipodi:ry="25.357143"
     d="m 398.57144,528.43359 a 25.357143,25.357143 0 1 1 -50.71429,0 25.357143,25.357143 0 1 1 50.71429,0 z"
     transform="matrix(0.24257393,-0.06048047,0.06048047,0.24257393,218.82431,51.255152)" />
  <path
     style="fill:#502814;fill-opacity:1;stroke:#ffffe6;stroke-width:0.5;stroke-miterlimit:4;stroke-opacity:1;stroke-dasharray:none"
     d="m 337.62422,138.94281 -0.40847,1.72023 0.0182,1.04216 0.14744,0.55906 -1.71706,0.57304 -0.21566,-0.54206 -0.60581,-0.84736 -1.35406,-1.13584 -0.9951,0.4977 0.11826,1.76604 0.32718,0.98929 0.30853,0.49475 -1.4786,1.045 -0.36163,-0.4493 -0.82574,-0.63149 -1.6291,-0.68885 -0.80578,0.77257 0.6375,1.65268 0.59823,0.84925 0.44125,0.38114 -1.0999,1.43367 -0.48296,-0.32242 -0.97561,-0.36063 -1.76016,-0.18112 -0.53685,0.97928 1.08863,1.39526 0.82574,0.6315 0.53418,0.23719 -0.63204,1.69545 -0.55697,-0.16709 -1.03642,-0.0556 -1.73398,0.34375 -0.22618,1.09506 1.45838,1.00517 0.96801,0.36252 0.57978,0.0648 -0.0959,1.81138 -0.58739,0.002 -1.00631,0.25893 -1.55428,0.83843 0.1073,1.10853 1.68793,0.5373 1.02886,0.0575 0.57795,-0.10394 0.4366,1.75108 -0.55909,0.17965 -0.88142,0.53377 -1.23811,1.26685 0.42568,1.02915 1.76595,0.0106 1.01009,-0.24379 0.51935,-0.27442 0.93506,1.55434 -0.48149,0.32939 -0.68452,0.77454 -0.81576,1.57217 0.7138,0.8607 1.69238,-0.51053 0.88901,-0.53567 0.41333,-0.40902 1.35402,1.20028 -0.3603,0.46021 -0.43261,0.94523 -0.30617,1.74303 0.93376,0.61262 1.4691,-0.98627 0.6921,-0.77643 0.27507,-0.51143 1.64422,0.74949 -0.21067,0.54368 -0.1295,1.0307 0.213,1.75851 1.07416,0.30385 1.11502,-1.37303 0.43261,-0.94523 0.10648,-0.57406 1.79802,0.23609 -0.0401,0.58168 0.17368,1.01952 0.72658,1.62241 1.11227,-0.0277 0.66233,-1.63859 0.13708,-1.03259 -0.064,-0.57985 1.78509,-0.30015 0.13225,0.56285 0.47312,0.92876 1.16826,1.3271 1.05563,-0.35176 0.14891,-1.76019 -0.17556,-1.0271 -0.22893,-0.53069 1.61488,-0.82132 0.29528,0.5061 0.71766,0.74701 1.50958,0.91993 0.90992,-0.64556 -0.38166,-1.72451 -0.46554,-0.93065 -0.38437,-0.44363 1.30632,-1.25164 0.42799,0.3925 0.91298,0.49702 1.71263,0.44257 0.68079,-0.88634 -0.87444,-1.53724 -0.71953,-0.75459 -0.49626,-0.31107 0.8783,-1.57971 0.52092,0.24854 1.01738,0.20529 1.76791,-0.0785 0.39099,-1.04758 -1.29339,-1.21539 -0.90729,-0.50649 -0.56077,-0.15004 0.37062,-1.7752 0.57785,0.0894 1.02895,-0.10357 1.66213,-0.5996 0.0613,-1.11032 -1.58924,-0.78735 -1.0098,-0.20718 -0.58362,0.0166 -0.17509,-1.80018 0.58176,-0.0887 0.95335,-0.40678 1.41041,-1.0602 -0.27028,-1.084 -1.74305,-0.27396 -1.03273,0.0884 -0.5553,0.19481 -0.69055,-1.67165 0.52313,-0.25927 0.79434,-0.65699 1.03358,-1.4413 -0.57541,-0.95156 -1.74907,0.25092 -0.95713,0.39162 -0.46824,0.35024 -1.16064,-1.39342 0.42469,-0.39575 0.56331,-0.87314 0.57141,-1.68034 -0.83705,-0.7414 -1.5978,0.76071 -0.80192,0.65888 -0.34326,0.46401 -1.51712,-0.98247 0.29212,-0.50762 0.28107,-1.00407 0.0504,-1.76783 -1.01723,-0.46298 -1.30438,1.1948 -0.57278,0.86746 -0.19362,0.54748 -1.74101,-0.49186 0.13109,-0.57215 -0.0258,-1.04027 -0.47262,-1.70183 -1.10648,-0.14281 -0.901,1.52096 -0.28295,0.99649 -0.0231,0.58549 -1.81146,0.0329 -0.047,-0.57605 -0.32717,-0.9893 -0.95783,-1.48425 -1.09722,0.185 z m 2.46452,12.9848 c 2.72724,-0.67998 5.48528,0.97722 6.16526,3.70446 0.67998,2.72724 -0.97533,5.49287 -3.70257,6.17284 -2.72725,0.67998 -5.49475,-0.98291 -6.17474,-3.71015 -0.67997,-2.72725 0.9848,-5.48717 3.71205,-6.16715 z"
     id="path8909"
     inkscape:connector-curvature="0" />
  <path
     id="path8963"
     d="m 357.93679,105.91185 0.3336,1.70836 0.63515,1.49887 0.005,0.006 -1.25609,1.00918 -0.005,-0.006 -1.33271,-0.94379 -1.58956,-0.69921 -0.85163,0.82154 0.65517,1.61951 0.90459,1.35139 0.005,0.006 -1.03908,1.22812 -0.0109,-0.001 -1.48044,-0.68193 -1.69599,-0.38048 -0.68513,0.97096 0.95452,1.45997 1.14188,1.15966 0.0109,0.002 -0.79332,1.40687 -0.005,-0.006 -1.5834,-0.38503 -1.74151,-0.0577 -0.48531,1.08652 1.21079,1.25445 1.34247,0.91737 0.005,0.006 -0.51078,1.52993 -0.005,-0.006 -1.6318,-0.0795 -1.72157,0.27545 -0.26132,1.15555 1.41768,1.00757 1.49195,0.6446 0.0109,0.001 -0.21328,1.59383 -0.006,0.005 -1.61299,0.22555 -1.63901,0.60174 -0.0476,1.18379 1.59243,0.71645 1.58858,0.35227 0.0109,0.002 0.0865,1.60775 -0.006,0.005 -1.5379,0.52821 -1.49499,0.89303 0.1775,1.17471 1.69253,0.40231 1.63238,0.0404 0.005,0.006 0.39673,1.55621 -0.006,0.005 -1.40937,0.81151 -1.29752,1.16481 0.39408,1.11392 1.73806,0.0795 1.61357,-0.2646 0.006,-0.005 0.6857,1.46215 -0.006,0.005 -1.23659,1.0626 -1.05868,1.38721 0.60491,1.01868 1.7227,-0.24732 1.52757,-0.56905 0.006,-0.005 0.95056,1.30832 -0.006,0.005 -1.00866,1.28327 -0.77215,1.55565 0.78189,0.89009 1.64647,-0.57818 1.39731,-0.84139 0.002,-0.0109 1.17869,1.10396 -0.006,0.005 -0.75026,1.45284 -0.46146,1.67757 0.94222,0.72532 1.50416,-0.88039 1.2073,-1.08961 0.006,-0.005 1.35745,0.85822 0.005,0.006 -0.466,1.56498 -0.14041,1.73401 1.06236,0.53181 1.3113,-1.14585 0.97765,-1.29936 0.006,-0.005 1.50692,0.58544 -0.006,0.005 -0.15586,1.6197 0.18929,1.73588 1.14517,0.3268 1.07419,-1.37916 0.71293,-1.46435 0.006,-0.005 1.58173,0.28967 -0.002,0.0109 0.152,1.61812 0.52476,1.66597 1.17516,0.10223 0.79395,-1.55218 0.42868,-1.5765 -0.005,-0.006 1.61289,-0.013 0.005,0.006 0.45762,1.56026 0.81891,1.53917 1.1833,-0.12578 0.48329,-1.67411 0.12312,-1.62488 -0.004,-0.006 1.58316,-0.31976 -10e-4,0.0109 0.75003,1.44436 1.09356,1.35895 1.13975,-0.34525 0.15764,-1.73686 -0.19108,-1.61871 0.002,-0.0109 1.48911,-0.60871 0.005,0.006 1.00572,1.27792 1.33779,1.12356 1.0445,-0.55608 -0.17378,-1.72784 -0.48577,-1.55911 -0.005,-0.006 1.34793,-0.88276 0.005,0.006 1.22926,1.06722 1.52171,0.84507 0.92225,-0.73765 -0.49031,-1.67169 -0.7799,-1.43232 -0.005,-0.006 1.1562,-1.12007 0.005,0.006 1.40973,0.81055 1.65282,0.54703 0.77011,-0.90716 -0.80168,-1.54203 -1.03099,-1.25955 -0.004,-0.006 0.92022,-1.32524 0.005,0.006 1.53738,0.53433 1.73282,0.21852 0.58292,-1.03189 -1.08723,-1.36354 -1.24995,-1.04253 -0.005,-0.006 0.65206,-1.4684 0.0109,0.001 1.6076,0.23224 1.74562,-0.10943 0.37332,-1.12103 -1.31883,-1.13734 -1.43042,-0.78587 -0.005,-0.006 0.36606,-1.56962 0.005,0.006 1.62957,-0.0831 1.68488,-0.43229 0.15852,-1.17741 -1.51367,-0.86058 -1.54716,-0.50793 -0.006,0.005 0.0651,-1.61169 1.58262,-0.38696 1.57245,-0.74652 -0.0586,-1.18384 -1.65569,-0.56426 -1.61279,-0.19951 -0.0109,-0.002 -0.24622,-1.58831 0.006,-0.005 1.48856,-0.67591 1.40488,-1.03034 -0.29354,-1.14834 -1.72936,-0.24035 -1.62212,0.10664 -0.006,0.004 -0.54264,-1.51779 0.006,-0.005 1.33016,-0.94711 1.1804,-1.27285 -0.50093,-1.07491 -1.74215,0.0876 -1.57517,0.41052 -0.006,0.005 -0.82128,-1.38294 0.006,-0.005 1.1321,-1.17982 0.91628,-1.47689 -0.698,-0.9607 -1.68774,0.41504 -1.47651,0.70579 -0.006,0.005 -1.06146,-1.20843 0.006,-0.005 0.87717,-1.37121 0.62628,-1.62349 -0.8721,-0.8149 -1.57532,0.72929 -1.31179,0.97238 -10e-4,0.0109 -1.28041,-0.99142 0.006,-0.005 0.60268,-1.50978 0.30582,-1.71899 -1.00143,-0.63403 -1.41404,1.01772 -1.10282,1.20683 -0.006,0.005 -1.43447,-0.72498 0.002,-0.0109 0.30863,-1.5955 -0.025,-1.74901 -1.10779,-0.42156 -1.1959,1.2648 -0.85707,1.38559 -1.54835,-0.42981 10e-4,-0.0109 -0.005,-1.62839 -0.35069,-1.70553 -1.16878,-0.21308 -0.93178,1.46884 -0.58258,1.52414 0.005,0.006 -1.60592,-0.1369 -0.005,-0.006 -0.30538,-1.60325 -0.67412,-1.60575 -1.18152,0.009 -0.64351,1.62635 -0.2759,1.60069 -0.002,0.0109 -1.59802,0.16638 -0.005,-0.006 -0.60525,-1.51092 -0.96082,-1.45539 -1.16153,0.23551 -0.32764,1.71554 0.0331,1.62725 0.005,0.006 -1.54475,0.46566 -0.8839,-1.37607 -1.21882,-1.23896 -1.10075,0.45208 0.01,1.74097 0.33525,1.59122 0.005,0.006 -1.42254,0.75349 -0.005,-0.006 -1.12121,-1.18434 -1.43837,-0.98289 -0.98653,0.64916 z m 4.03241,6.74638 c 4.61349,-3.35189 10.17614,-4.44675 15.37513,-3.49354 l -5.01143,15.43194 -13.11788,-9.52213 c 0.82965,-0.87277 1.7449,-1.68298 2.75418,-2.41628 z m -5.88608,6.75829 13.03576,9.47556 -13.00115,9.44589 c -3.24401,-6.00518 -3.12735,-13.12491 -0.0346,-18.92145 z m 26.35695,-8.59459 c 2.88428,1.38925 5.47354,3.49309 7.48701,6.26439 2.02528,2.78756 3.22365,5.92181 3.64645,9.11266 l -16.12534,0.002 4.99188,-15.37911 z m -9.39201,16.07489 2.59525,0.84731 -10e-4,2.83 -2.55986,0.83624 -1.65774,-2.2817 1.62313,-2.23185 z m -13.78476,15.77066 12.98851,-9.43671 4.97893,15.31955 c -6.46465,1.1454 -13.26308,-0.94288 -17.96744,-5.88284 z m 18.08009,-11.10803 16.21436,5e-4 c -0.71549,5.21306 -3.46925,10.13974 -8.06335,13.47756 -1.01358,0.73641 -2.07055,1.36112 -3.16176,1.88191 l -4.98925,-15.36033 z"
     style="fill:#502814;fill-opacity:1;stroke:#ffffe6;stroke-width:0.5;stroke-miterlimit:4;stroke-opacity:1;stroke-dasharray:none"
     inkscape:connector-curvature="0" />
  <path
     transform="matrix(0.20225425,-0.14694631,0.14694631,0.20225425,222.30995,77.553522)"
     d="m 452.85714,523.79077 a 85.714287,85.714287 0 1 1 -171.42857,0 85.714287,85.714287 0 1 1 171.42857,0 z"
     sodipodi:ry="85.714287"
     sodipodi:rx="85.714287"
     sodipodi:cy="523.79077"
     sodipodi:cx="367.14285"
     id="path8981"
     style="fill:#ffffe6;fill-opacity:1;stroke:#783c1e;stroke-width:2;stroke-miterlimit:4;stroke-opacity:1;stroke-dasharray:none"
     sodipodi:type="arc" />
  <path
     style="fill:#dc6e37;fill-opacity:1;stroke:#ffffe6;stroke-width:0.5;stroke-miterlimit:4;stroke-opacity:1;stroke-dasharray:none"
     d="m 357.93679,105.91185 0.3336,1.70836 0.63515,1.49887 0.005,0.006 -1.25609,1.00918 -0.005,-0.006 -1.33271,-0.94379 -1.58956,-0.69921 -0.85163,0.82154 0.65517,1.61951 0.90459,1.35139 0.005,0.006 -1.03908,1.22812 -0.0109,-0.001 -1.48044,-0.68193 -1.69599,-0.38048 -0.68513,0.97096 0.95452,1.45997 1.14188,1.15966 0.0109,0.002 -0.79332,1.40687 -0.005,-0.006 -1.5834,-0.38503 -1.74151,-0.0577 -0.48531,1.08652 1.21079,1.25445 1.34247,0.91737 0.005,0.006 -0.51078,1.52993 -0.005,-0.006 -1.6318,-0.0795 -1.72157,0.27545 -0.26132,1.15555 1.41768,1.00757 1.49195,0.6446 0.0109,0.001 -0.21328,1.59383 -0.006,0.005 -1.61299,0.22555 -1.63901,0.60174 -0.0476,1.18379 1.59243,0.71645 1.58858,0.35227 0.0109,0.002 0.0865,1.60775 -0.006,0.005 -1.5379,0.52821 -1.49499,0.89303 0.1775,1.17471 1.69253,0.40231 1.63238,0.0404 0.005,0.006 0.39673,1.55621 -0.006,0.005 -1.40937,0.81151 -1.29752,1.16481 0.39408,1.11392 1.73806,0.0795 1.61357,-0.2646 0.006,-0.005 0.6857,1.46215 -0.006,0.005 -1.23659,1.0626 -1.05868,1.38721 0.60491,1.01868 1.7227,-0.24732 1.52757,-0.56905 0.006,-0.005 0.95056,1.30832 -0.006,0.005 -1.00866,1.28327 -0.77215,1.55565 0.78189,0.89009 1.64647,-0.57818 1.39731,-0.84139 0.002,-0.0109 1.17869,1.10396 -0.006,0.005 -0.75026,1.45284 -0.46146,1.67757 0.94222,0.72532 1.50416,-0.88039 1.2073,-1.08961 0.006,-0.005 1.35745,0.85822 0.005,0.006 -0.466,1.56498 -0.14041,1.73401 1.06236,0.53181 1.3113,-1.14585 0.97765,-1.29936 0.006,-0.005 1.50692,0.58544 -0.006,0.005 -0.15586,1.6197 0.18929,1.73588 1.14517,0.3268 1.07419,-1.37916 0.71293,-1.46435 0.006,-0.005 1.58173,0.28967 -0.002,0.0109 0.152,1.61812 0.52476,1.66597 1.17516,0.10223 0.79395,-1.55218 0.42868,-1.5765 -0.005,-0.006 1.61289,-0.013 0.005,0.006 0.45762,1.56026 0.81891,1.53917 1.1833,-0.12578 0.48329,-1.67411 0.12312,-1.62488 -0.004,-0.006 1.58316,-0.31976 -10e-4,0.0109 0.75003,1.44436 1.09356,1.35895 1.13975,-0.34525 0.15764,-1.73686 -0.19108,-1.61871 0.002,-0.0109 1.48911,-0.60871 0.005,0.006 1.00572,1.27792 1.33779,1.12356 1.0445,-0.55608 -0.17378,-1.72784 -0.48577,-1.55911 -0.005,-0.006 1.34793,-0.88276 0.005,0.006 1.22926,1.06722 1.52171,0.84507 0.92225,-0.73765 -0.49031,-1.67169 -0.7799,-1.43232 -0.005,-0.006 1.1562,-1.12007 0.005,0.006 1.40973,0.81055 1.65282,0.54703 0.77011,-0.90716 -0.80168,-1.54203 -1.03099,-1.25955 -0.004,-0.006 0.92022,-1.32524 0.005,0.006 1.53738,0.53433 1.73282,0.21852 0.58292,-1.03189 -1.08723,-1.36354 -1.24995,-1.04253 -0.005,-0.006 0.65206,-1.4684 0.0109,0.001 1.6076,0.23224 1.74562,-0.10943 0.37332,-1.12103 -1.31883,-1.13734 -1.43042,-0.78587 -0.005,-0.006 0.36606,-1.56962 0.005,0.006 1.62957,-0.0831 1.68488,-0.43229 0.15852,-1.17741 -1.51367,-0.86058 -1.54716,-0.50793 -0.006,0.005 0.0651,-1.61169 1.58262,-0.38696 1.57245,-0.74652 -0.0586,-1.18384 -1.65569,-0.56426 -1.61279,-0.19951 -0.0109,-0.002 -0.24622,-1.58831 0.006,-0.005 1.48856,-0.67591 1.40488,-1.03034 -0.29354,-1.14834 -1.72936,-0.24035 -1.62212,0.10664 -0.006,0.004 -0.54264,-1.51779 0.006,-0.005 1.33016,-0.94711 1.1804,-1.27285 -0.50093,-1.07491 -1.74215,0.0876 -1.57517,0.41052 -0.006,0.005 -0.82128,-1.38294 0.006,-0.005 1.1321,-1.17982 0.91628,-1.47689 -0.698,-0.9607 -1.68774,0.41504 -1.47651,0.70579 -0.006,0.005 -1.06146,-1.20843 0.006,-0.005 0.87717,-1.37121 0.62628,-1.62349 -0.8721,-0.8149 -1.57532,0.72929 -1.31179,0.97238 -10e-4,0.0109 -1.28041,-0.99142 0.006,-0.005 0.60268,-1.50978 0.30582,-1.71899 -1.00143,-0.63403 -1.41404,1.01772 -1.10282,1.20683 -0.006,0.005 -1.43447,-0.72498 0.002,-0.0109 0.30863,-1.5955 -0.025,-1.74901 -1.10779,-0.42156 -1.1959,1.2648 -0.85707,1.38559 -1.54835,-0.42981 10e-4,-0.0109 -0.005,-1.62839 -0.35069,-1.70553 -1.16878,-0.21308 -0.93178,1.46884 -0.58258,1.52414 0.005,0.006 -1.60592,-0.1369 -0.005,-0.006 -0.30538,-1.60325 -0.67412,-1.60575 -1.18152,0.009 -0.64351,1.62635 -0.2759,1.60069 -0.002,0.0109 -1.59802,0.16638 -0.005,-0.006 -0.60525,-1.51092 -0.96082,-1.45539 -1.16153,0.23551 -0.32764,1.71554 0.0331,1.62725 0.005,0.006 -1.54475,0.46566 -0.8839,-1.37607 -1.21882,-1.23896 -1.10075,0.45208 0.01,1.74097 0.33525,1.59122 0.005,0.006 -1.42254,0.75349 -0.005,-0.006 -1.12121,-1.18434 -1.43837,-0.98289 -0.98653,0.64916 z m 4.03241,6.74638 c 4.61349,-3.35189 10.17614,-4.44675 15.37513,-3.49354 l -5.01143,15.43194 -13.11788,-9.52213 c 0.82965,-0.87277 1.7449,-1.68298 2.75418,-2.41628 z m -5.88608,6.75829 13.03576,9.47556 -13.00115,9.44589 c -3.24401,-6.00518 -3.12735,-13.12491 -0.0346,-18.92145 z m 26.35695,-8.59459 c 2.88428,1.38925 5.47354,3.49309 7.48701,6.26439 2.02528,2.78756 3.22365,5.92181 3.64645,9.11266 l -16.12534,0.002 4.99188,-15.37911 z m -9.39201,16.07489 2.59525,0.84731 -10e-4,2.83 -2.55986,0.83624 -1.65774,-2.2817 1.62313,-2.23185 z m -13.78476,15.77066 12.98851,-9.43671 4.97893,15.31955 c -6.46465,1.1454 -13.26308,-0.94288 -17.96744,-5.88284 z m 18.08009,-11.10803 16.21436,5e-4 c -0.71549,5.21306 -3.46925,10.13974 -8.06335,13.47756 -1.01358,0.73641 -2.07055,1.36112 -3.16176,1.88191 l -4.98925,-15.36033 z"
     id="path8965"
     inkscape:connector-curvature="0" />
  <path
     transform="matrix(0.20225425,-0.14694631,0.14694631,0.20225425,221.1872,77.619292)"
     d="m 398.57144,528.43359 a 25.357143,25.357143 0 1 1 -50.71429,0 25.357143,25.357143 0 1 1 50.71429,0 z"
     sodipodi:ry="25.357143"
     sodipodi:rx="25.357143"
     sodipodi:cy="528.43359"
     sodipodi:cx="373.21429"
     id="path8967"
     style="fill:#ffffe6;fill-opacity:1;stroke:#ffffe6;stroke-width:2;stroke-miterlimit:4;stroke-opacity:1;stroke-dasharray:none"
     sodipodi:type="arc" />
  <path
     inkscape:connector-curvature="0"
     id="path8969"
     d="m 363.59716,113.60962 0.26566,1.74799 0.40736,0.95942 0.34612,0.46313 -1.37736,1.17454 -0.40302,-0.42179 -0.87911,-0.55873 -1.68098,-0.54589 -0.73618,0.83424 0.77121,1.59313 0.67395,0.79471 0.47141,0.34313 -0.97948,1.52281 -0.50361,-0.28112 -1.00217,-0.27619 -1.76852,-0.0284 -0.4577,1.01817 1.21019,1.29352 0.8728,0.56332 0.55189,0.18809 -0.48274,1.7413 -0.56859,-0.11801 -1.03965,0.0311 -1.69985,0.49144 -0.13091,1.10909 1.53204,0.88586 1.00218,0.27617 0.58414,0.0198 0.0491,1.80877 -0.57901,0.0537 -0.98178,0.33673 -1.47893,0.96829 0.20051,1.10004 1.72872,0.38566 1.03333,-0.0265 0.56182,-0.15712 0.58961,1.71542 -0.54405,0.22145 -0.83603,0.61705 -1.12702,1.35961 0.51475,0.98761 1.7663,-0.13412 0.97547,-0.33211 0.49699,-0.3128 1.06077,1.46002 -0.45107,0.37601 -0.61729,0.8251 -0.67338,1.63841 0.78021,0.79474 1.64133,-0.65171 0.84521,-0.60443 0.37873,-0.44899 1.44923,1.09088 -0.32303,0.48577 -0.34453,0.97457 -0.16741,1.76328 0.98424,0.53064 1.37791,-1.10734 0.6236,-0.82969 0.23002,-0.53407 1.70506,0.60565 -0.16167,0.56166 -0.0471,1.03847 0.36908,1.73081 1.09525,0.21821 0.99267,-1.46478 0.35084,-0.97916 0.0635,-0.57723 1.80525,0.079 0.008,0.583 0.26603,1.00416 0.85625,1.55068 1.10977,-0.12068 0.51948,-1.69075 0.047,-1.03847 -0.11633,-0.57215 1.75555,-0.45466 0.18064,0.55439 0.54295,0.88021 1.28145,1.23211 1.02089,-0.44237 2.5e-4,-1.76739 -0.25971,-1.00874 -0.27661,-0.51364 1.54268,-0.947 0.3335,0.4723 0.78658,0.6839 1.58034,0.79283 0.84699,-0.7216 -0.52132,-1.6878 -0.54754,-0.88654 -0.41106,-0.40629 1.18963,-1.36647 0.46336,0.35864 0.94524,0.42378 1.74427,0.28745 0.60183,-0.9394 -0.99989,-1.45598 -0.78026,-0.68849 -0.52256,-0.26734 0.74232,-1.64986 0.54385,0.2036 1.03269,0.11881 1.75371,-0.23122 0.29919,-1.07683 -1.38662,-1.09774 -0.94983,-0.4301 -0.57663,-0.10251 0.22257,-1.79371 0.57609,0.0353 1.0202,-0.19079 1.60978,-0.73502 -0.0299,-1.11777 -1.6545,-0.64238 -1.03096,-0.12973 -0.57614,0.071 -0.32138,-1.78478 0.5693,-0.13347 0.91523,-0.48147 1.31648,-1.17859 -0.35905,-1.05245 -1.76848,-0.13468 -1.01388,0.1862 -0.53486,0.23409 -0.8367,-1.6035 0.50619,-0.30016 0.73154,-0.7343 0.91055,-1.51135 -0.65667,-0.90382 -1.71877,0.39886 -0.92441,0.46883 -0.44189,0.38865 -1.26648,-1.29125 0.38792,-0.43634 0.49038,-0.90673 0.4184,-1.72354 -0.88997,-0.6667 -1.52773,0.88784 -0.74072,0.72165 -0.30294,0.50014 -1.59811,-0.85717 0.24551,-0.52602 0.19521,-1.02059 -0.0997,-1.77204 -1.05382,-0.37384 -1.19649,1.30385 -0.49671,0.91131 -0.14443,0.55881 -1.7747,-0.3426 0.0807,-0.58009 -0.11553,-1.03626 -0.61553,-1.65797 -1.11658,-0.0482 -0.76182,1.59644 -0.20612,1.01886 0.0256,0.58014 -1.79851,0.19614 -0.0928,-0.57959 -0.41366,-0.95484 -1.07573,-1.40086 -1.07941,0.28208 -0.26563,1.74774 0.11094,1.02993 0.19791,0.5515 -1.66724,0.70906 -0.25938,-0.5165 -0.67395,-0.7947 -1.4441,-1.01735 -0.94801,0.58254 z m 7.14925,11.11609 c 2.27392,-1.65212 5.45194,-1.14877 7.10405,1.12516 1.6521,2.27393 1.15335,5.45826 -1.12059,7.11037 -2.27393,1.65211 -5.46285,1.14703 -7.11496,-1.1269 -1.65211,-2.27393 -1.14243,-5.45653 1.1315,-7.10863 z"
     style="fill:#dc6e37;fill-opacity:1;stroke:#ffffe6;stroke-width:0.5;stroke-miterlimit:4;stroke-opacity:1;stroke-dasharray:none" />
  <path
     inkscape:connector-curvature="0"
     style="fill:#502814;fill-opacity:1;stroke:#ffffe6;stroke-width:0.5;stroke-miterlimit:4;stroke-opacity:1;stroke-dasharray:none"
     d="m 341.04933,73.715712 -0.73437,1.57813 -0.36719,1.58594 0,0.008 -1.60938,0.0781 0,-0.008 -0.52343,-1.54688 -0.875,-1.5 -1.17188,0.16406 -0.42187,1.69532 -0.0625,1.625 0,0.008 -1.5625,0.38281 -0.008,-0.008 -0.79688,-1.42188 -1.14843,-1.30468 -1.125,0.38281 -0.0859,1.74219 0.24219,1.60938 0.008,0.008 -1.46875,0.67187 0,-0.008 -1.05468,-1.24219 -1.375,-1.07031 -1.03125,0.59375 0.24218,1.72656 0.54688,1.53125 0,0.008 -1.3125,0.9375 0,-0.008 -1.27344,-1.02343 -1.55469,-0.78907 -0.89062,0.78125 0.55469,1.64844 0.82812,1.39843 0.008,0.008 -1.10938,1.16406 -0.008,0 -1.4375,-0.76563 -1.67969,-0.47656 -0.73438,0.92969 0.86719,1.51562 1.07813,1.21875 0.008,0.008 -0.875,1.35157 -0.008,0 -1.55469,-0.47657 -1.73438,-0.15625 -0.54687,1.05469 1.13281,1.32031 1.29688,0.99219 0,0.008 -0.59375,1.49219 -0.008,0 -1.61719,-0.17188 -1.73437,0.17969 -0.33594,1.13281 1.35937,1.08594 1.46094,0.73438 0.008,0 -0.30469,1.58593 -0.008,0 -1.625,0.13282 -1.67187,0.5 -0.10938,1.17968 1.53907,0.812498 1.57031,0.4375 0.008,0 0,1.61719 -0.008,0 -1.57031,0.44531 -1.53907,0.80469 0.10938,1.17969 1.67187,0.5 1.625,0.14062 0.008,-0.008 0.30469,1.58594 -0.008,0 -1.46094,0.73438 -1.35937,1.08593 0.33594,1.14062 1.73437,0.17188 1.61719,-0.17188 0.008,0 0.59375,1.4922 0,0.008 -1.29688,0.99218 -1.13281,1.32032 0.54687,1.05468 1.73438,-0.15625 1.55469,-0.47656 0.008,0 0.875,1.35938 -0.008,0 -1.07813,1.21875 -0.86719,1.51562 0.73438,0.9375 1.67969,-0.48437 1.4375,-0.76563 0.008,0 1.10938,1.16406 -0.008,0.008 -0.82812,1.39844 -0.55469,1.65625 0.89062,0.77344 1.55469,-0.78907 1.27344,-1.02343 0,-0.008 1.3125,0.9375 0,0.008 -0.54688,1.53125 -0.24218,1.72656 1.03125,0.59375 1.375,-1.07031 1.05468,-1.24219 0,-0.008 1.46875,0.67188 -0.008,0.008 -0.24219,1.60938 0.0859,1.74219 1.125,0.39062 1.14843,-1.3125 0.79688,-1.42187 0.008,-0.008 1.5625,0.38281 0,0.008 0.0625,1.625 0.42187,1.69531 1.17188,0.16406 0.875,-1.5 0.52343,-1.54687 0,-0.008 1.60938,0.0781 0,0.008 0.36719,1.58594 0.73437,1.57813 1.17969,-0.0547 0.58594,-1.64063 0.21093,-1.61718 0,-0.008 1.59375,-0.22656 0,0.008 0.66407,1.48438 1.01562,1.41406 1.15625,-0.28125 0.25781,-1.71875 -0.0937,-1.625 0,-0.008 1.52344,-0.53125 0,0.008 0.92969,1.33594 1.27344,1.19531 1.07812,-0.49219 -0.0781,-1.74218 -0.39844,-1.57813 0,-0.008 1.39062,-0.80468 0.008,0.008 1.16407,1.13282 1.47656,0.9375 0.96094,-0.6875 -0.39844,-1.69532 -0.69531,-1.47656 0,-0.008 1.21875,-1.05468 0,0.008 1.36718,0.89063 1.6172,0.64062 0.8203,-0.85937 -0.71875,-1.58594 -0.95312,-1.32031 -0.008,0 1,-1.26563 1.50781,0.61719 1.71094,0.32031 0.64844,-0.99218 -1.00782,-1.42969 -1.1875,-1.10938 -0.008,-0.008 0.73437,-1.42969 0.008,0 1.60156,0.32812 1.74219,-0.008 0.4375,-1.10156 -1.25781,-1.21094 -1.375,-0.86718 -0.008,0 0.45312,-1.54688 0.008,0 1.63281,0.0156 1.70313,-0.33594 0.22656,-1.16406 -1.46094,-0.95313 -1.51562,-0.59375 -0.008,0 0.14844,-1.60156 0.008,0 1.60937,-0.28906 1.60938,-0.65625 0,-1.1875 -1.60938,-0.65625 -1.60937,-0.29688 -0.008,0 -0.14844,-1.601558 0.008,0 1.51562,-0.59375 1.46094,-0.94531 -0.22656,-1.17188 -1.70313,-0.33593 -1.63281,0.0156 -0.008,0.008 -0.45312,-1.55469 0.008,0 1.375,-0.86719 1.25781,-1.21093 -0.4375,-1.10157 -1.74219,-0.008 -1.60156,0.32813 -0.008,0 -0.73437,-1.42969 0.008,-0.008 1.1875,-1.10937 1.00782,-1.42969 -0.64844,-0.99219 -1.71094,0.32031 -1.50781,0.61719 -1,-1.25781 0.008,-0.008 0.95312,-1.32032 0.71875,-1.58593 -0.8203,-0.85938 -1.6172,0.64063 -1.36718,0.89062 0,0.008 -1.21875,-1.05468 0,-0.008 0.69531,-1.47655 0.39844,-1.69532 -0.96094,-0.6875 -1.47656,0.9375 -1.16407,1.13282 -0.008,0.008 -1.39062,-0.80469 0,-0.008 0.39844,-1.57813 0.0781,-1.74218 -1.07812,-0.49219 -1.27344,1.19532 -0.92969,1.33593 0,0.008 -1.52344,-0.53125 0.0937,-1.63281 -0.25781,-1.71875 -1.15625,-0.28125 -1.01562,1.41406 -0.66407,1.48438 0,0.008 -1.59375,-0.22657 0,-0.008 -0.21093,-1.61718 -0.58594,-1.64063 -1.17969,-0.0547 z m -0.70312,7.82813 c 5.70257,0 10.84639,2.38389 14.49218,6.21094 l -13.125,9.53906 -5.01562,-15.41406 c 1.18421,-0.21843 2.40088,-0.33594 3.64844,-0.33594 z m -8.73438,2.00782 4.97656,15.32812 -16.07031,0 c 0.9053,-6.76507 5.18456,-12.45649 11.09375,-15.32812 z m 26.375,8.53905 c 1.51685,2.81927 2.375,6.04325 2.375,9.468748 0,3.44563 -0.87276,6.68567 -2.40625,9.51563 l -13.04687,-9.47656 13.07812,-9.507818 z m -17.04687,7.48438 1.60156,2.210938 -1.66406,2.28906 -2.5625,-0.82813 0,-2.8203 2.625,-0.851568 z m -20.42188,4.656248 16.05469,0 -4.97656,15.32032 c -5.90326,-2.87318 -10.17585,-8.55865 -11.07813,-15.32032 z m 21.15625,1.64062 13.11719,9.53125 c -3.64301,3.79692 -8.76668,6.16407 -14.44531,6.16407 -1.25285,0 -2.47515,-0.11587 -3.66407,-0.33594 l 4.99219,-15.35938 z"
     id="path8971" />
  <path
     sodipodi:type="arc"
     style="fill:#ffffe6;fill-opacity:1;stroke:#783c1e;stroke-width:2;stroke-miterlimit:4;stroke-opacity:1;stroke-dasharray:none"
     id="path8983"
     sodipodi:cx="367.14285"
     sodipodi:cy="523.79077"
     sodipodi:rx="85.714287"
     sodipodi:ry="85.714287"
     d="m 452.85714,523.79077 a 85.714287,85.714287 0 1 1 -171.42857,0 85.714287,85.714287 0 1 1 171.42857,0 z"
     transform="matrix(0.25,0,0,0.25,248.70781,-29.303258)" />
  <path
     inkscape:connector-curvature="0"
     id="path8973"
     d="m 341.04933,73.715712 -0.73437,1.57813 -0.36719,1.58594 0,0.008 -1.60938,0.0781 0,-0.008 -0.52343,-1.54688 -0.875,-1.5 -1.17188,0.16406 -0.42187,1.69532 -0.0625,1.625 0,0.008 -1.5625,0.38281 -0.008,-0.008 -0.79688,-1.42188 -1.14843,-1.30468 -1.125,0.38281 -0.0859,1.74219 0.24219,1.60938 0.008,0.008 -1.46875,0.67187 0,-0.008 -1.05468,-1.24219 -1.375,-1.07031 -1.03125,0.59375 0.24218,1.72656 0.54688,1.53125 0,0.008 -1.3125,0.9375 0,-0.008 -1.27344,-1.02343 -1.55469,-0.78907 -0.89062,0.78125 0.55469,1.64844 0.82812,1.39843 0.008,0.008 -1.10938,1.16406 -0.008,0 -1.4375,-0.76563 -1.67969,-0.47656 -0.73438,0.92969 0.86719,1.51562 1.07813,1.21875 0.008,0.008 -0.875,1.35157 -0.008,0 -1.55469,-0.47657 -1.73438,-0.15625 -0.54687,1.05469 1.13281,1.32031 1.29688,0.99219 0,0.008 -0.59375,1.49219 -0.008,0 -1.61719,-0.17188 -1.73437,0.17969 -0.33594,1.13281 1.35937,1.08594 1.46094,0.73438 0.008,0 -0.30469,1.58593 -0.008,0 -1.625,0.13282 -1.67187,0.5 -0.10938,1.17968 1.53907,0.812498 1.57031,0.4375 0.008,0 0,1.61719 -0.008,0 -1.57031,0.44531 -1.53907,0.80469 0.10938,1.17969 1.67187,0.5 1.625,0.14062 0.008,-0.008 0.30469,1.58594 -0.008,0 -1.46094,0.73438 -1.35937,1.08593 0.33594,1.14062 1.73437,0.17188 1.61719,-0.17188 0.008,0 0.59375,1.4922 0,0.008 -1.29688,0.99218 -1.13281,1.32032 0.54687,1.05468 1.73438,-0.15625 1.55469,-0.47656 0.008,0 0.875,1.35938 -0.008,0 -1.07813,1.21875 -0.86719,1.51562 0.73438,0.9375 1.67969,-0.48437 1.4375,-0.76563 0.008,0 1.10938,1.16406 -0.008,0.008 -0.82812,1.39844 -0.55469,1.65625 0.89062,0.77344 1.55469,-0.78907 1.27344,-1.02343 0,-0.008 1.3125,0.9375 0,0.008 -0.54688,1.53125 -0.24218,1.72656 1.03125,0.59375 1.375,-1.07031 1.05468,-1.24219 0,-0.008 1.46875,0.67188 -0.008,0.008 -0.24219,1.60938 0.0859,1.74219 1.125,0.39062 1.14843,-1.3125 0.79688,-1.42187 0.008,-0.008 1.5625,0.38281 0,0.008 0.0625,1.625 0.42187,1.69531 1.17188,0.16406 0.875,-1.5 0.52343,-1.54687 0,-0.008 1.60938,0.0781 0,0.008 0.36719,1.58594 0.73437,1.57813 1.17969,-0.0547 0.58594,-1.64063 0.21093,-1.61718 0,-0.008 1.59375,-0.22656 0,0.008 0.66407,1.48438 1.01562,1.41406 1.15625,-0.28125 0.25781,-1.71875 -0.0937,-1.625 0,-0.008 1.52344,-0.53125 0,0.008 0.92969,1.33594 1.27344,1.19531 1.07812,-0.49219 -0.0781,-1.74218 -0.39844,-1.57813 0,-0.008 1.39062,-0.80468 0.008,0.008 1.16407,1.13282 1.47656,0.9375 0.96094,-0.6875 -0.39844,-1.69532 -0.69531,-1.47656 0,-0.008 1.21875,-1.05468 0,0.008 1.36718,0.89063 1.6172,0.64062 0.8203,-0.85937 -0.71875,-1.58594 -0.95312,-1.32031 -0.008,0 1,-1.26563 1.50781,0.61719 1.71094,0.32031 0.64844,-0.99218 -1.00782,-1.42969 -1.1875,-1.10938 -0.008,-0.008 0.73437,-1.42969 0.008,0 1.60156,0.32812 1.74219,-0.008 0.4375,-1.10156 -1.25781,-1.21094 -1.375,-0.86718 -0.008,0 0.45312,-1.54688 0.008,0 1.63281,0.0156 1.70313,-0.33594 0.22656,-1.16406 -1.46094,-0.95313 -1.51562,-0.59375 -0.008,0 0.14844,-1.60156 0.008,0 1.60937,-0.28906 1.60938,-0.65625 0,-1.1875 -1.60938,-0.65625 -1.60937,-0.29688 -0.008,0 -0.14844,-1.601558 0.008,0 1.51562,-0.59375 1.46094,-0.94531 -0.22656,-1.17188 -1.70313,-0.33593 -1.63281,0.0156 -0.008,0.008 -0.45312,-1.55469 0.008,0 1.375,-0.86719 1.25781,-1.21093 -0.4375,-1.10157 -1.74219,-0.008 -1.60156,0.32813 -0.008,0 -0.73437,-1.42969 0.008,-0.008 1.1875,-1.10937 1.00782,-1.42969 -0.64844,-0.99219 -1.71094,0.32031 -1.50781,0.61719 -1,-1.25781 0.008,-0.008 0.95312,-1.32032 0.71875,-1.58593 -0.8203,-0.85938 -1.6172,0.64063 -1.36718,0.89062 0,0.008 -1.21875,-1.05468 0,-0.008 0.69531,-1.47655 0.39844,-1.69532 -0.96094,-0.6875 -1.47656,0.9375 -1.16407,1.13282 -0.008,0.008 -1.39062,-0.80469 0,-0.008 0.39844,-1.57813 0.0781,-1.74218 -1.07812,-0.49219 -1.27344,1.19532 -0.92969,1.33593 0,0.008 -1.52344,-0.53125 0.0937,-1.63281 -0.25781,-1.71875 -1.15625,-0.28125 -1.01562,1.41406 -0.66407,1.48438 0,0.008 -1.59375,-0.22657 0,-0.008 -0.21093,-1.61718 -0.58594,-1.64063 -1.17969,-0.0547 z m -0.70312,7.82813 c 5.70257,0 10.84639,2.38389 14.49218,6.21094 l -13.125,9.53906 -5.01562,-15.41406 c 1.18421,-0.21843 2.40088,-0.33594 3.64844,-0.33594 z m -8.73438,2.00782 4.97656,15.32812 -16.07031,0 c 0.9053,-6.76507 5.18456,-12.45649 11.09375,-15.32812 z m 26.375,8.53905 c 1.51685,2.81927 2.375,6.04325 2.375,9.468748 0,3.44563 -0.87276,6.68567 -2.40625,9.51563 l -13.04687,-9.47656 13.07812,-9.507818 z m -17.04687,7.48438 1.60156,2.210938 -1.66406,2.28906 -2.5625,-0.82813 0,-2.8203 2.625,-0.851568 z m -20.42188,4.656248 16.05469,0 -4.97656,15.32032 c -5.90326,-2.87318 -10.17585,-8.55865 -11.07813,-15.32032 z m 21.15625,1.64062 13.11719,9.53125 c -3.64301,3.79692 -8.76668,6.16407 -14.44531,6.16407 -1.25285,0 -2.47515,-0.11587 -3.66407,-0.33594 l 4.99219,-15.35938 z"
     style="fill:#783c1e;fill-opacity:1;stroke:#ffffe6;stroke-width:0.5;stroke-miterlimit:4;stroke-opacity:1;stroke-dasharray:none" />
  <path
     sodipodi:type="arc"
     style="fill:#ffffe6;fill-opacity:1;stroke:#ffffe6;stroke-width:2;stroke-miterlimit:4;stroke-opacity:1;stroke-dasharray:none"
     id="path8975"
     sodipodi:cx="373.21429"
     sodipodi:cy="528.43359"
     sodipodi:rx="25.357143"
     sodipodi:ry="25.357143"
     d="m 398.57144,528.43359 a 25.357143,25.357143 0 1 1 -50.71429,0 25.357143,25.357143 0 1 1 50.71429,0 z"
     transform="matrix(0.25,0,0,0.25,247.04654,-30.552838)" />
  <path
     style="fill:#783c1e;fill-opacity:1;stroke:#ffffe6;stroke-width:0.5;stroke-miterlimit:4;stroke-opacity:1;stroke-dasharray:none"
     d="m 341.10402,83.270432 -0.8125,1.57031 -0.23437,1.01563 0.008,0.57812 -1.80469,0.14063 -0.0781,-0.57813 -0.38282,-0.96875 -1.03906,-1.42969 -1.08594,0.24219 -0.3125,1.74219 0.0781,1.03906 0.17969,0.55469 -1.6875,0.65625 -0.24219,-0.52344 -0.64844,-0.8125 -1.41406,-1.0625 -0.96875,0.55469 0.21875,1.75781 0.375,0.96875 0.33594,0.47656 -1.41407,1.125 -0.39062,-0.42968 -0.85938,-0.58594 -1.66406,-0.60156 -0.75781,0.82031 0.71875,1.61719 0.64844,0.8125 0.46093,0.35937 -1.02343,1.49219 -0.5,-0.29688 -0.99219,-0.30468 -1.76563,-0.0859 -0.48437,1.00781 1.17187,1.32813 0.85157,0.58593 0.54687,0.20313 -0.53125,1.73437 -0.57031,-0.14062 -1.03906,0.008 -1.71094,0.4375 -0.16406,1.10156 1.50781,0.929688 0.98437,0.30469 0.58594,0.039 0,1.80469 -0.58594,0.039 -0.98437,0.30469 -1.50781,0.92969 0.16406,1.10156 1.71094,0.4375 1.03906,0.008 0.57031,-0.14063 0.53125,1.73438 -0.54687,0.20312 -0.85157,0.58594 -1.17187,1.32813 0.48437,1.00781 1.76563,-0.0859 0.99219,-0.30469 0.5,-0.29687 1.02343,1.49219 -0.46093,0.35937 -0.64844,0.8125 -0.71875,1.61719 0.75781,0.82031 1.66406,-0.60156 0.85938,-0.58594 0.39062,-0.42969 1.41407,1.125 -0.33594,0.47657 -0.375,0.96875 -0.21875,1.75781 0.96875,0.55469 1.41406,-1.0625 0.64844,-0.8125 0.24219,-0.53125 1.6875,0.66406 -0.17969,0.55469 -0.0781,1.03125 0.3125,1.75 1.08594,0.24218 1.03906,-1.42968 0.38282,-0.96875 0.0781,-0.57813 1.80469,0.14063 -0.008,0.57812 0.23437,1.01563 0.8125,1.57031 1.10938,-0.0859 0.57031,-1.67187 0.0781,-1.03907 -0.0937,-0.57031 1.76562,-0.40625 0.16406,0.5625 0.51563,0.89844 1.24219,1.25781 1.03906,-0.40625 0.0469,-1.76562 -0.22656,-1.01563 -0.26563,-0.52344 1.57031,-0.89843 0.32032,0.48437 0.76562,0.70313 1.55469,0.84375 0.875,-0.69532 -0.47656,-1.70312 -0.51563,-0.90625 -0.40625,-0.42188 1.23438,-1.32031 0.44531,0.36719 0.9375,0.44531 1.73437,0.35156 0.63282,-0.92187 -0.96094,-1.49219 -0.75781,-0.71094 -0.50782,-0.28125 0.78907,-1.63281 0.53906,0.22656 1.02344,0.14844 1.75781,-0.17969 0.32812,-1.0625 -1.35156,-1.14843 -0.92969,-0.44532 -0.57031,-0.125 0.26563,-1.78906 0.58593,0.0547 1.02344,-0.16406 1.625,-0.6875 0,-1.11719 -1.625,-0.6875 -1.02344,-0.16406 -0.58593,0.0547 -0.26563,-1.789058 0.57031,-0.125 0.92969,-0.44531 1.35156,-1.14844 -0.32812,-1.0625 -1.75781,-0.17969 -1.02344,0.14844 -0.53906,0.22656 -0.78907,-1.63281 0.50782,-0.28125 0.75781,-0.71094 0.96094,-1.49218 -0.63282,-0.92188 -1.73437,0.35156 -0.9375,0.44532 -0.44531,0.36718 -1.23438,-1.32031 0.40625,-0.42187 0.51563,-0.90625 0.47656,-1.70313 -0.875,-0.69531 -1.55469,0.84375 -0.76562,0.70312 -0.32032,0.48438 -1.57031,-0.89844 0.26563,-0.52344 0.22656,-1.01562 -0.0469,-1.76563 -1.03906,-0.40625 -1.24219,1.25782 -0.51563,0.89843 -0.16406,0.5625 -1.76562,-0.40625 0.0937,-0.57031 -0.0781,-1.03906 -0.57031,-1.67188 -1.10938,-0.0859 z m -0.75,13.19531 c 2.81074,0 5.08594,2.27521 5.08594,5.085938 0,2.81074 -2.2752,5.09375 -5.08594,5.09375 -2.81073,0 -5.09375,-2.28301 -5.09375,-5.09375 0,-2.810728 2.28302,-5.085938 5.09375,-5.085938 z"
     id="path8977"
     inkscape:connector-curvature="0" />
  <text
     xml:space="preserve"
     style="font-size:40px;font-style:normal;font-weight:normal;line-height:125%;letter-spacing:0px;word-spacing:0px;fill:#502814;fill-opacity:1;stroke:none;font-family:Sans"
     x="152.57143"
     y="144.71429"
     id="text8985"
     sodipodi:linespacing="125%"><tspan
       sodipodi:role="line"
       id="tspan8987"
       x="152.57143"
       y="144.71429"
       style="font-size:40px;font-style:normal;font-variant:normal;font-weight:bold;font-stretch:normal;text-align:start;line-height:125%;writing-mode:lr-tb;text-anchor:start;font-family:Didot;-inkscape-font-specification:Didot Bold;fill:#502814;fill-opacity:1"><tspan
   style="font-size:56px;fill:#502814;fill-opacity:1"
   id="tspan8995">B</tspan>ECCA</tspan></text>
</svg>
