<?xml version="1.0" encoding="UTF-8" standalone="no"?>
<!-- Created with Inkscape (http://www.inkscape.org/) -->

<svg
   xmlns:dc="http://purl.org/dc/elements/1.1/"
   xmlns:cc="http://creativecommons.org/ns#"
   xmlns:rdf="http://www.w3.org/1999/02/22-rdf-syntax-ns#"
   xmlns:svg="http://www.w3.org/2000/svg"
   xmlns="http://www.w3.org/2000/svg"
   xmlns:sodipodi="http://sodipodi.sourceforge.net/DTD/sodipodi-0.dtd"
   xmlns:inkscape="http://www.inkscape.org/namespaces/inkscape"
   inkscape:export-ydpi="400"
   inkscape:export-xdpi="400"
   inkscape:export-filename="/Users/brandon/Desktop/becca_logo_2.png"
   sodipodi:docname="becca_logo_10.svg"
   width="524.28571"
   height="258.57144"
   id="svg8284"
   version="1.1"
   inkscape:version="0.48.2 r9819">
  <sodipodi:namedview
     id="base"
     pagecolor="#ffffff"
     bordercolor="#666666"
     borderopacity="1.0"
     inkscape:pageopacity="0.0"
     inkscape:pageshadow="2"
     inkscape:zoom="1.4"
     inkscape:cx="256.42857"
     inkscape:cy="111.21675"
     inkscape:document-units="px"
     inkscape:current-layer="svg8284"
     showgrid="false"
     inkscape:window-width="1276"
     inkscape:window-height="756"
     inkscape:window-x="4"
     inkscape:window-y="0"
     inkscape:window-maximized="1"
     fit-margin-top="0"
     fit-margin-left="0"
     fit-margin-right="0"
     fit-margin-bottom="0" />
  <defs
     id="defs8286" />
  <metadata
     id="metadata8289">
    <rdf:RDF>
      <cc:Work
         rdf:about="">
        <dc:format>image/svg+xml</dc:format>
        <dc:type
           rdf:resource="http://purl.org/dc/dcmitype/StillImage" />
        <dc:title></dc:title>
      </cc:Work>
    </rdf:RDF>
  </metadata>
  <g
     inkscape:label="Layer 1"
     inkscape:groupmode="layer"
     id="layer1"
     transform="translate(-80,-287.64789)" />
  <rect
     style="fill:#fdf9f0;fill-opacity:1;stroke:#191614;stroke-width:2.84999108;stroke-linejoin:round;stroke-miterlimit:4;stroke-opacity:1;stroke-dasharray:none"
     id="rect8997"
     width="375.52747"
     height="117.28809"
     x="49.023266"
     y="67.468811" />
  <path
     style="fill:#502814;fill-opacity:1;stroke:#fdf9f0;stroke-width:0.45029032;stroke-miterlimit:4;stroke-opacity:1;stroke-dasharray:none"
     d="m 351.42585,127.63756 -0.29788,1.53901 0.0245,1.46581 0.001,0.004 -1.38928,0.41892 -10e-4,-0.004 -0.79441,-1.23765 -1.0914,-1.1201 -0.98828,0.39865 9.1e-4,1.57336 0.29942,1.43358 0.002,0.004 -1.28195,0.67492 -0.005,-0.004 -1.0061,-1.06886 -1.28781,-0.88985 -0.89966,0.57961 0.30447,1.54112 0.56226,1.35355 0.005,0.003 -1.13706,0.90708 -0.001,-0.004 -1.19225,-0.85564 -1.4347,-0.63572 -0.77178,0.74351 0.58782,1.45598 0.81147,1.21888 0.001,0.004 -0.94265,1.10518 -0.002,-0.004 -1.33573,-0.61685 -1.53047,-0.35081 -0.60803,0.87672 0.84386,1.31961 1.0283,1.04159 0.005,0.004 -0.71578,1.25887 -0.004,0.002 -1.42291,-0.35584 -1.5716,-0.0506 -0.4392,0.9724 1.08801,1.13545 1.20761,0.83009 0.005,0.004 -0.47016,1.37168 -0.004,0.002 -1.46236,-0.0779 -1.54956,0.24134 -0.24812,1.04075 1.27756,0.90692 1.3494,0.58448 0.002,0.004 -0.1937,1.43326 -0.004,0.001 -1.45061,0.20208 -1.47641,0.53486 -0.0468,1.06307 1.42447,0.65276 1.4366,0.32341 0.004,-0.002 0.0792,1.45222 -0.004,0.002 -1.39107,0.47013 -1.35196,0.80117 0.16144,1.05464 1.52188,0.37469 1.4675,0.0402 0.004,-0.001 0.35237,1.41313 -0.004,0.001 -1.27516,0.73124 -1.16962,1.03849 0.35263,1.00705 1.56987,0.0727 1.45062,-0.23109 0.003,-0.005 0.61175,1.31943 -0.004,0.001 -1.11657,0.96003 -0.95128,1.24511 0.54206,0.92348 1.55301,-0.22769 1.37569,-0.50252 0.004,-0.001 0.84396,1.17457 0.002,0.004 -0.9171,1.14955 -0.70221,1.40052 0.70764,0.80246 1.48152,-0.5144 1.25468,-0.75515 0.004,-0.002 1.06077,0.99725 -0.004,0.002 -0.67654,1.29984 -0.42759,1.51336 0.84598,0.6592 1.36221,-0.78922 1.08933,-0.9822 0.004,-0.001 1.22306,0.7755 -0.004,0.005 -0.419,1.40239 -0.124,1.56815 0.94673,0.4818 1.18662,-1.02823 0.88981,-1.17175 -0.002,-0.004 1.35114,0.53326 0.002,0.004 -0.14434,1.45721 0.16459,1.56147 1.03051,0.29418 0.9683,-1.23488 0.65098,-1.31523 -10e-4,-0.004 1.42982,0.26712 -0.004,0.005 0.13907,1.45906 0.45464,1.50368 1.06819,0.0961 0.71755,-1.3971 0.38657,-1.41611 0.004,-0.005 1.44875,-0.004 10e-4,0.004 0.40869,1.40636 0.73799,1.38949 1.05975,-0.11215 0.43779,-1.50138 0.12033,-1.46576 -0.002,-0.004 1.42333,-0.28236 0.002,0.004 0.6664,1.30584 0.98555,1.21904 1.01896,-0.30484 0.15448,-1.5613 -0.16806,-1.45909 -0.002,-0.004 1.34334,-0.54521 10e-4,0.004 0.90367,1.1524 1.19558,1.01438 0.94908,-0.49766 -0.14917,-1.55807 -0.43596,-1.39954 -0.002,-0.004 1.2155,-0.79612 0.002,0.004 1.10344,0.96479 1.37316,0.76709 0.83489,-0.665 -0.44783,-1.50536 -0.69201,-1.29219 -0.001,-0.004 1.03984,-1.00615 0.005,0.004 1.26402,0.73631 1.49449,0.4975 0.68994,-0.81014 -0.71753,-1.3946 -0.92928,-1.13877 -0.002,-0.004 0.83519,-1.18715 0.002,0.004 1.38873,0.48036 1.55271,0.20748 0.52959,-0.92965 -0.97356,-1.22925 -1.12056,-0.94608 -0.004,0.001 0.59807,-1.32381 1.45206,0.21081 1.56487,-0.0928 0.35046,-1.00827 -1.19218,-1.02972 -1.27938,-0.71071 -0.005,-0.004 0.33025,-1.40929 0.004,-0.002 1.471,-0.062 1.52069,-0.38636 0.14215,-1.0579 -1.36293,-0.78413 -1.39043,-0.4582 -0.004,0.002 0.059,-1.45045 0.004,-0.002 1.43019,-0.34207 1.41505,-0.66463 -0.0557,-1.06654 -1.48425,-0.51457 -1.45374,-0.18863 -0.004,0.002 -0.21923,-1.43182 0.004,-10e-4 1.34332,-0.60323 1.26332,-0.92408 -0.25869,-1.03766 -1.54931,-0.22283 -1.471,0.0915 -0.004,0.002 -0.47866,-1.3671 0.004,-0.001 1.19505,-0.84907 1.07065,-1.14431 -0.45329,-0.97469 -1.56144,0.0777 -1.4234,0.36943 -0.004,0.005 -0.73465,-1.25979 0.004,-0.002 1.01258,-1.05737 0.83527,-1.3322 -0.62226,-0.86727 -1.52409,0.37276 -1.32801,0.63565 -0.004,10e-4 -0.95323,-1.08931 0.003,-0.005 0.79599,-1.22809 0.56918,-1.46889 -0.78281,-0.72574 -1.42524,0.65265 -1.18313,0.86782 -1.14787,-0.88122 0.003,-0.005 0.54519,-1.36141 0.28258,-1.54242 -0.90407,-0.57223 -1.27357,0.91214 -1.00065,1.07613 0.002,0.004 -1.29479,-0.65611 -0.001,-0.004 0.28591,-1.44172 -0.0213,-1.56823 -0.9895,-0.3914 -1.08603,1.14091 -0.77039,1.24349 -0.003,0.005 -1.39048,-0.40015 -10e-4,-0.004 0.003,-1.46583 -0.31131,-1.53941 -1.04936,-0.19518 -0.85228,1.32195 -0.52137,1.36991 0.001,0.004 -1.44698,-0.13233 -0.27379,-1.44721 -0.59976,-1.44573 -1.07166,0.004 -0.57937,1.45693 -0.25689,1.4418 0.002,0.004 -1.44204,0.14919 -0.002,-0.004 -0.53665,-1.36727 -0.86945,-1.30596 -1.04277,0.20924 z m 1.09112,6.99364 c 4.98308,-1.24245 9.99726,-0.28003 14.01687,2.26986 l -9.39075,11.19508 -7.74105,-12.37654 c 0.98723,-0.44888 2.02476,-0.81661 3.11493,-1.0884 z m -7.19492,3.65743 7.68819,12.30989 -14.04269,3.50129 c -0.68285,-6.10877 1.81653,-12.01443 6.3545,-15.81118 z m 24.90769,1.71536 c 1.93967,2.13308 3.39195,4.76331 4.13828,7.75665 0.75068,3.01084 0.69396,6.03227 -0.0295,8.83925 l -13.4654,-5.43838 9.35656,-11.15752 z m -13.26546,10.25405 1.88117,1.58308 -0.95535,2.36279 -2.41964,-0.16534 -0.61445,-2.46445 2.10827,-1.31608 z m -16.83078,8.51811 14.02904,-3.49784 -1.01081,14.47158 c -5.78445,-1.22452 -10.75662,-5.26177 -13.01823,-10.97374 z m 18.84439,-3.17569 13.53877,5.47083 c -2.35618,4.11155 -6.31761,7.29632 -11.27975,8.53355 -1.09481,0.27293 -2.18814,0.438 -3.27498,0.50474 l 1.01596,-14.50913 z"
     id="path8316"
     inkscape:connector-curvature="0" />
  <path
     sodipodi:type="arc"
     style="fill:#ffffe6;fill-opacity:1;stroke:#fdf9f0;stroke-width:2;stroke-miterlimit:4;stroke-opacity:1;stroke-dasharray:none"
     id="path8979"
     sodipodi:cx="367.14285"
     sodipodi:cy="523.79077"
     sodipodi:rx="85.714287"
     sodipodi:ry="85.714287"
     d="m 452.85714,523.79077 a 85.714287,85.714287 0 1 1 -171.42857,0 85.714287,85.714287 0 1 1 171.42857,0 z"
     transform="matrix(0.21845739,-0.05446752,0.05446752,0.21845739,247.9791,56.486656)" />
  <path
     id="path8907"
     d="m 351.42585,127.63756 -0.29788,1.53901 0.0245,1.46581 0.001,0.004 -1.38928,0.41892 -10e-4,-0.004 -0.79441,-1.23765 -1.0914,-1.1201 -0.98828,0.39865 9.1e-4,1.57336 0.29942,1.43358 0.002,0.004 -1.28195,0.67492 -0.005,-0.004 -1.0061,-1.06886 -1.28781,-0.88985 -0.89966,0.57961 0.30447,1.54112 0.56226,1.35355 0.005,0.003 -1.13706,0.90708 -0.001,-0.004 -1.19225,-0.85564 -1.4347,-0.63572 -0.77178,0.74351 0.58782,1.45598 0.81147,1.21888 0.001,0.004 -0.94265,1.10518 -0.002,-0.004 -1.33573,-0.61685 -1.53047,-0.35081 -0.60803,0.87672 0.84386,1.31961 1.0283,1.04159 0.005,0.004 -0.71578,1.25887 -0.004,0.002 -1.42291,-0.35584 -1.5716,-0.0506 -0.4392,0.9724 1.08801,1.13545 1.20761,0.83009 0.005,0.004 -0.47016,1.37168 -0.004,0.002 -1.46236,-0.0779 -1.54956,0.24134 -0.24812,1.04075 1.27756,0.90692 1.3494,0.58448 0.002,0.004 -0.1937,1.43326 -0.004,0.001 -1.45061,0.20208 -1.47641,0.53486 -0.0468,1.06307 1.42447,0.65276 1.4366,0.32341 0.004,-0.002 0.0792,1.45222 -0.004,0.002 -1.39107,0.47013 -1.35196,0.80117 0.16144,1.05464 1.52188,0.37469 1.4675,0.0402 0.004,-0.001 0.35237,1.41313 -0.004,0.001 -1.27516,0.73124 -1.16962,1.03849 0.35263,1.00705 1.56987,0.0727 1.45062,-0.23109 0.003,-0.005 0.61175,1.31943 -0.004,0.001 -1.11657,0.96003 -0.95128,1.24511 0.54206,0.92348 1.55301,-0.22769 1.37569,-0.50252 0.004,-0.001 0.84396,1.17457 0.002,0.004 -0.9171,1.14955 -0.70221,1.40052 0.70764,0.80246 1.48152,-0.5144 1.25468,-0.75515 0.004,-0.002 1.06077,0.99725 -0.004,0.002 -0.67654,1.29984 -0.42759,1.51336 0.84598,0.6592 1.36221,-0.78922 1.08933,-0.9822 0.004,-0.001 1.22306,0.7755 -0.004,0.005 -0.419,1.40239 -0.124,1.56815 0.94673,0.4818 1.18662,-1.02823 0.88981,-1.17175 -0.002,-0.004 1.35114,0.53326 0.002,0.004 -0.14434,1.45721 0.16459,1.56147 1.03051,0.29418 0.9683,-1.23488 0.65098,-1.31523 -10e-4,-0.004 1.42982,0.26712 -0.004,0.005 0.13907,1.45906 0.45464,1.50368 1.06819,0.0961 0.71755,-1.3971 0.38657,-1.41611 0.004,-0.005 1.44875,-0.004 10e-4,0.004 0.40869,1.40636 0.73799,1.38949 1.05975,-0.11215 0.43779,-1.50138 0.12033,-1.46576 -0.002,-0.004 1.42333,-0.28236 0.002,0.004 0.6664,1.30584 0.98555,1.21904 1.01896,-0.30484 0.15448,-1.5613 -0.16806,-1.45909 -0.002,-0.004 1.34334,-0.54521 10e-4,0.004 0.90367,1.1524 1.19558,1.01438 0.94908,-0.49766 -0.14917,-1.55807 -0.43596,-1.39954 -0.002,-0.004 1.2155,-0.79612 0.002,0.004 1.10344,0.96479 1.37316,0.76709 0.83489,-0.665 -0.44783,-1.50536 -0.69201,-1.29219 -0.001,-0.004 1.03984,-1.00615 0.005,0.004 1.26402,0.73631 1.49449,0.4975 0.68994,-0.81014 -0.71753,-1.3946 -0.92928,-1.13877 -0.002,-0.004 0.83519,-1.18715 0.002,0.004 1.38873,0.48036 1.55271,0.20748 0.52959,-0.92965 -0.97356,-1.22925 -1.12056,-0.94608 -0.004,0.001 0.59807,-1.32381 1.45206,0.21081 1.56487,-0.0928 0.35046,-1.00827 -1.19218,-1.02972 -1.27938,-0.71071 -0.005,-0.004 0.33025,-1.40929 0.004,-0.002 1.471,-0.062 1.52069,-0.38636 0.14215,-1.0579 -1.36293,-0.78413 -1.39043,-0.4582 -0.004,0.002 0.059,-1.45045 0.004,-0.002 1.43019,-0.34207 1.41505,-0.66463 -0.0557,-1.06654 -1.48425,-0.51457 -1.45374,-0.18863 -0.004,0.002 -0.21923,-1.43182 0.004,-10e-4 1.34332,-0.60323 1.26332,-0.92408 -0.25869,-1.03766 -1.54931,-0.22283 -1.471,0.0915 -0.004,0.002 -0.47866,-1.3671 0.004,-0.001 1.19505,-0.84907 1.07065,-1.14431 -0.45329,-0.97469 -1.56144,0.0777 -1.4234,0.36943 -0.004,0.005 -0.73465,-1.25979 0.004,-0.002 1.01258,-1.05737 0.83527,-1.3322 -0.62226,-0.86727 -1.52409,0.37276 -1.32801,0.63565 -0.004,10e-4 -0.95323,-1.08931 0.003,-0.005 0.79599,-1.22809 0.56918,-1.46889 -0.78281,-0.72574 -1.42524,0.65265 -1.18313,0.86782 -1.14787,-0.88122 0.003,-0.005 0.54519,-1.36141 0.28258,-1.54242 -0.90407,-0.57223 -1.27357,0.91214 -1.00065,1.07613 0.002,0.004 -1.29479,-0.65611 -0.001,-0.004 0.28591,-1.44172 -0.0213,-1.56823 -0.9895,-0.3914 -1.08603,1.14091 -0.77039,1.24349 -0.003,0.005 -1.39048,-0.40015 -10e-4,-0.004 0.003,-1.46583 -0.31131,-1.53941 -1.04936,-0.19518 -0.85228,1.32195 -0.52137,1.36991 0.001,0.004 -1.44698,-0.13233 -0.27379,-1.44721 -0.59976,-1.44573 -1.07166,0.004 -0.57937,1.45693 -0.25689,1.4418 0.002,0.004 -1.44204,0.14919 -0.002,-0.004 -0.53665,-1.36727 -0.86945,-1.30596 -1.04277,0.20924 z m 1.09112,6.99364 c 4.98308,-1.24245 9.99726,-0.28003 14.01687,2.26986 l -9.39075,11.19508 -7.74105,-12.37654 c 0.98723,-0.44888 2.02476,-0.81661 3.11493,-1.0884 z m -7.19492,3.65743 7.68819,12.30989 -14.04269,3.50129 c -0.68285,-6.10877 1.81653,-12.01443 6.3545,-15.81118 z m 24.90769,1.71536 c 1.93967,2.13308 3.39195,4.76331 4.13828,7.75665 0.75068,3.01084 0.69396,6.03227 -0.0295,8.83925 l -13.4654,-5.43838 9.35656,-11.15752 z m -13.26546,10.25405 1.88117,1.58308 -0.95535,2.36279 -2.41964,-0.16534 -0.61445,-2.46445 2.10827,-1.31608 z m -16.83078,8.51811 14.02904,-3.49784 -1.01081,14.47158 c -5.78445,-1.22452 -10.75662,-5.26177 -13.01823,-10.97374 z m 18.84439,-3.17569 13.53877,5.47083 c -2.35618,4.11155 -6.31761,7.29632 -11.27975,8.53355 -1.09481,0.27293 -2.18814,0.438 -3.27498,0.50474 l 1.01596,-14.50913 z"
     style="fill:#af6635;fill-opacity:1;stroke:#fdf9f0;stroke-width:0.45029032;stroke-miterlimit:4;stroke-opacity:1;stroke-dasharray:none"
     inkscape:connector-curvature="0" />
  <path
     sodipodi:type="arc"
     style="fill:#ffffe6;fill-opacity:1;stroke:#fdf9f0;stroke-width:2;stroke-miterlimit:4;stroke-opacity:1;stroke-dasharray:none"
     id="path8930"
     sodipodi:cx="373.21429"
     sodipodi:cy="528.43359"
     sodipodi:rx="25.357143"
     sodipodi:ry="25.357143"
     d="m 398.57144,528.43359 a 25.357143,25.357143 0 1 1 -50.71429,0 25.357143,25.357143 0 1 1 50.71429,0 z"
     transform="matrix(0.21845739,-0.05446752,0.05446752,0.21845739,246.56644,57.005012)" />
  <path
     style="fill:#af6635;fill-opacity:1;stroke:#fdf9f0;stroke-width:0.45029032;stroke-miterlimit:4;stroke-opacity:1;stroke-dasharray:none"
     d="m 353.55531,135.97482 -0.36785,1.54922 0.0163,0.93854 0.13277,0.50348 -1.54637,0.51606 -0.19424,-0.48819 -0.54555,-0.76309 -1.21946,-1.02292 -0.89616,0.44824 0.10654,1.59044 0.29465,0.89094 0.27786,0.44557 -1.33158,0.94108 -0.32569,-0.40462 -0.74366,-0.56871 -1.46709,-0.62036 -0.72569,0.69578 0.5741,1.48835 0.53881,0.76484 0.39734,0.34325 -0.99057,1.2911 -0.43495,-0.29035 -0.87859,-0.32478 -1.58517,-0.1631 -0.48346,0.88189 0.9804,1.25656 0.7436,0.56872 0.48106,0.21358 -0.56917,1.52691 -0.50158,-0.15057 -0.93338,-0.05 -1.56159,0.30955 -0.2037,0.9862 1.3134,0.90526 0.87175,0.32649 0.52213,0.0584 -0.0861,1.63126 -0.529,0.001 -0.90628,0.23323 -1.39972,0.75502 0.0966,0.99834 1.52013,0.48389 0.92656,0.0517 0.52049,-0.0935 0.3932,1.57698 -0.50352,0.16178 -0.7938,0.48072 -1.11499,1.14088 0.38335,0.92683 1.59037,0.006 0.9097,-0.21952 0.46771,-0.24716 0.84206,1.39981 -0.4336,0.29662 -0.61645,0.69756 -0.73466,1.41585 0.64285,0.77517 1.52409,-0.4598 0.80064,-0.4824 0.37224,-0.36835 1.21939,1.08093 -0.32447,0.41444 -0.38962,0.85127 -0.2757,1.56976 0.8409,0.55169 1.32305,-0.88819 0.6233,-0.69926 0.24773,-0.46057 1.48075,0.67499 -0.18974,0.48961 -0.1164,0.92822 0.19181,1.58368 0.96742,0.27365 1.00414,-1.23653 0.38962,-0.85123 0.0959,-0.517 1.61927,0.21262 -0.0361,0.52383 0.15641,0.91815 0.65438,1.46112 1.00165,-0.0251 0.59651,-1.47569 0.12349,-0.92994 -0.0575,-0.5222 1.60762,-0.2703 0.11912,0.5069 0.42606,0.83641 1.05212,1.19514 0.95067,-0.31678 0.13426,-1.58517 -0.15816,-0.925 -0.20618,-0.47793 1.45431,-0.73967 0.26593,0.45577 0.64629,0.67276 1.35953,0.82847 0.81948,-0.58137 -0.34375,-1.55304 -0.41923,-0.83816 -0.34617,-0.39949 1.17643,-1.12721 0.38544,0.35346 0.82221,0.44761 1.54236,0.39855 0.61309,-0.79819 -0.78748,-1.38441 -0.64799,-0.67958 -0.44695,-0.28014 0.79099,-1.42266 0.46914,0.22381 0.91624,0.18487 1.59213,-0.0706 0.35212,-0.94346 -1.16481,-1.09453 -0.81707,-0.45615 -0.505,-0.13507 0.33375,-1.59872 0.52042,0.0806 0.92662,-0.0931 1.4969,-0.53998 0.0553,-0.99995 -1.43125,-0.70905 -0.90939,-0.18658 -0.52559,0.009 -0.1577,-1.6212 0.52391,-0.0798 0.85858,-0.36634 1.2702,-0.95477 -0.24344,-0.97625 -1.56976,-0.24672 -0.93004,0.0794 -0.50011,0.17545 -0.62185,-1.50543 0.4711,-0.23349 0.71533,-0.59165 0.93085,-1.29801 -0.51818,-0.85699 -1.57518,0.22597 -0.862,0.3527 -0.42169,0.31539 -1.04526,-1.25487 0.38249,-0.35639 0.50731,-0.78633 0.51455,-1.51328 -0.75377,-0.66769 -1.43896,0.68508 -0.72218,0.59335 -0.30915,0.41789 -1.36628,-0.88479 0.2631,-0.45714 0.25311,-0.90425 0.0453,-1.59207 -0.91611,-0.41697 -1.1747,1.07604 -0.51583,0.78122 -0.17438,0.49302 -1.56792,-0.44293 0.11803,-0.51528 -0.0232,-0.93681 -0.42565,-1.53268 -0.99646,-0.12858 -0.81143,1.36978 -0.25484,0.89741 -0.0207,0.52728 -1.63138,0.0295 -0.0423,-0.51879 -0.29464,-0.89095 -0.8626,-1.33668 -0.98816,0.16658 z m 2.21951,11.69386 c 2.4561,-0.61238 4.93994,0.88008 5.55229,3.33614 0.61238,2.45614 -0.87833,4.94679 -3.33445,5.55916 -2.4561,0.61239 -4.94848,-0.88518 -5.56085,-3.3413 -0.61237,-2.4561 0.88691,-4.94166 3.34301,-5.554 z"
     id="path8909"
     inkscape:connector-curvature="0" />
  <path
     id="path8963"
     d="m 371.84843,106.22778 0.30043,1.53853 0.57202,1.34983 0.003,0.004 -1.13123,0.90888 -0.003,-0.004 -1.20021,-0.85001 -1.43153,-0.62968 -0.76692,0.73984 0.59002,1.45852 0.81463,1.21706 0.003,0.004 -0.93577,1.10599 -0.006,-8.9e-4 -1.33325,-0.61414 -1.5274,-0.34264 -0.61699,0.87443 0.8596,1.31481 1.02837,1.04437 0.006,10e-4 -0.71445,1.267 -0.003,-0.004 -1.42596,-0.34673 -1.56837,-0.0522 -0.43705,0.97848 1.09036,1.12975 1.20901,0.82612 0.003,0.003 -0.45999,1.37783 -0.003,-0.004 -1.46958,-0.0718 -1.55041,0.24807 -0.23535,1.04068 1.27677,0.90737 1.34362,0.58052 0.006,9.1e-4 -0.19207,1.43535 -0.004,0.003 -1.45263,0.20315 -1.47606,0.54191 -0.0431,1.06611 1.43414,0.64522 1.43064,0.31722 0.006,0.001 0.0781,1.44792 -0.003,0.003 -1.385,0.47568 -1.34637,0.80426 0.1598,1.05792 1.52423,0.36231 1.4701,0.0362 0.003,0.004 0.35731,1.40151 -0.004,0.003 -1.26927,0.73082 -1.16852,1.04899 0.3549,1.00319 1.56523,0.0718 1.45317,-0.23829 0.004,-0.003 0.61754,1.31681 -0.004,0.003 -1.11365,0.95693 -0.95345,1.24931 0.54478,0.91739 1.55143,-0.22274 1.37574,-0.51246 0.004,-0.003 0.85601,1.17824 -0.004,0.003 -0.90838,1.15567 -0.69536,1.40101 0.70416,0.8016 1.48274,-0.52072 1.25841,-0.75769 0.002,-0.006 1.0615,0.99419 -0.004,0.003 -0.67567,1.30841 -0.41557,1.51078 0.84856,0.65321 1.35459,-0.79289 1.08727,-0.98126 0.004,-0.003 1.2225,0.77292 0.003,0.004 -0.41965,1.40939 -0.1266,1.56159 0.95675,0.47893 1.18093,-1.0319 0.88043,-1.17018 0.004,-0.003 1.35712,0.52721 -0.004,0.003 -0.14048,1.45867 0.17045,1.5633 1.03133,0.29434 0.9674,-1.24206 0.64203,-1.31876 0.004,-0.003 1.4245,0.26088 -0.002,0.006 0.13672,1.45722 0.4726,1.50036 1.05831,0.092 0.71503,-1.39788 0.38603,-1.41976 -0.003,-0.004 1.45256,-0.007 0.003,0.003 0.41215,1.40515 0.73748,1.38615 1.06566,-0.11312 0.43525,-1.50766 0.1109,-1.46334 -0.002,-0.004 1.42577,-0.28795 -9.1e-4,0.006 0.67544,1.30078 0.98488,1.22382 1.02641,-0.31093 0.14192,-1.56416 -0.17208,-1.45781 0.001,-0.006 1.34105,-0.54821 0.003,0.004 0.90572,1.1509 1.20485,1.01183 0.94064,-0.50079 -0.15659,-1.55606 -0.4375,-1.40411 -0.003,-0.003 1.21391,-0.795 0.003,0.003 1.10707,0.96116 1.37045,0.76101 0.83053,-0.66432 -0.44155,-1.50546 -0.70238,-1.28996 -0.003,-0.004 1.04127,-1.0087 0.003,0.004 1.26955,0.72998 1.48849,0.49266 0.69358,-0.81697 -0.72202,-1.38871 -0.92847,-1.13434 -0.002,-0.004 0.82873,-1.19349 0.003,0.004 1.38456,0.48119 1.56054,0.1968 0.52498,-0.92931 -0.97918,-1.22798 -1.12563,-0.93886 -0.003,-0.004 0.58719,-1.32241 0.006,8.8e-4 1.4478,0.20917 1.57208,-0.0989 0.33618,-1.00957 -1.18772,-1.02427 -1.28819,-0.70773 -0.003,-0.004 0.32968,-1.41357 0.003,0.004 1.46753,-0.075 1.5174,-0.38933 0.14283,-1.06034 -1.36321,-0.77502 -1.39333,-0.45744 -0.003,0.003 0.0587,-1.45145 1.42529,-0.34849 1.41615,-0.67232 -0.0527,-1.06611 -1.4911,-0.50819 -1.45243,-0.17965 -0.006,-10e-4 -0.22174,-1.43039 0.004,-0.003 1.34056,-0.60874 1.26521,-0.9279 -0.26436,-1.03417 -1.55744,-0.21644 -1.46081,0.096 -0.004,0.002 -0.48871,-1.3669 0.004,-0.003 1.19792,-0.85294 1.06303,-1.14629 -0.45112,-0.96805 -1.56895,0.0788 -1.41856,0.3697 -0.004,0.003 -0.73966,-1.24542 0.004,-0.003 1.01959,-1.06254 0.82516,-1.33006 -0.6286,-0.86519 -1.51996,0.37376 -1.3297,0.63564 -0.004,0.003 -0.95591,-1.08829 0.004,-0.003 0.78996,-1.23491 0.56399,-1.46208 -0.78538,-0.73388 -1.41872,0.6568 -1.18137,0.87569 -9e-4,0.006 -1.15314,-0.89284 0.004,-0.003 0.54278,-1.35969 0.27541,-1.54809 -0.90186,-0.57101 -1.27343,0.91655 -0.99322,1.08688 -0.004,0.003 -1.29185,-0.65294 10e-4,-0.006 0.27794,-1.43684 -0.0226,-1.57514 -0.99765,-0.37967 -1.07702,1.13904 -0.77186,1.24783 -1.39441,-0.38705 9.1e-4,-0.006 -0.003,-1.4665 -0.31583,-1.53597 -1.05258,-0.19188 -0.83914,1.32282 -0.52467,1.3726 0.003,0.003 -1.44626,-0.12323 -0.003,-0.004 -0.27501,-1.44387 -0.6071,-1.44611 -1.06406,0.006 -0.57953,1.46465 -0.24849,1.44153 -0.002,0.006 -1.43913,0.14979 -0.003,-0.003 -0.54505,-1.3607 -0.86533,-1.31068 -1.04606,0.21208 -0.29506,1.545 0.0297,1.46546 0.003,0.003 -1.39117,0.41937 -0.79605,-1.2393 -1.09764,-1.11578 -0.99131,0.40715 0.005,1.56791 0.30191,1.433 0.003,0.003 -1.28108,0.67856 -0.003,-0.003 -1.00973,-1.06658 -1.29539,-0.88516 -0.88847,0.58461 z m 3.63153,6.07568 c 4.15477,-3.01869 9.16444,-4.00471 13.84652,-3.14622 l -4.51318,13.8977 -11.81373,-8.57544 c 0.74717,-0.78602 1.57141,-1.51566 2.48039,-2.17604 z m -5.30091,6.08635 11.73975,8.5335 -11.70859,8.5068 c -2.9215,-5.40814 -2.81642,-11.82002 -0.031,-17.0403 z m 23.73657,-7.74011 c 2.59753,1.25114 4.92935,3.14582 6.74264,5.64154 1.82394,2.51046 2.90315,5.3331 3.28391,8.20675 l -14.52214,0.001 4.49559,-13.85016 z m -8.45825,14.47675 2.33721,0.76307 -9.1e-4,2.54863 -2.30534,0.75309 -1.49295,-2.05487 1.46178,-2.00992 z m -12.41432,14.20272 11.69719,-8.49851 4.48395,13.79647 c -5.82195,1.03154 -11.94448,-0.8491 -16.18114,-5.29796 z m 16.28257,-10.00366 14.60235,4.8e-4 c -0.64435,4.69474 -3.12432,9.13161 -7.26169,12.1376 -0.91283,0.66319 -1.8647,1.2258 -2.84743,1.69482 l -4.49323,-13.83321 z"
     style="fill:#502814;fill-opacity:1;stroke:#fdf9f0;stroke-width:0.45029032;stroke-miterlimit:4;stroke-opacity:1;stroke-dasharray:none"
     inkscape:connector-curvature="0" />
  <path
     transform="matrix(0.18214627,-0.13233698,0.13233698,0.18214627,249.70552,80.688814)"
     d="m 452.85714,523.79077 a 85.714287,85.714287 0 1 1 -171.42857,0 85.714287,85.714287 0 1 1 171.42857,0 z"
     sodipodi:ry="85.714287"
     sodipodi:rx="85.714287"
     sodipodi:cy="523.79077"
     sodipodi:cx="367.14285"
     id="path8981"
     style="fill:#ffffe6;fill-opacity:1;stroke:#fdf9f0;stroke-width:2;stroke-miterlimit:4;stroke-opacity:1;stroke-dasharray:none"
     sodipodi:type="arc" />
  <path
     style="fill:#f2a66c;fill-opacity:1;stroke:#fdf9f0;stroke-width:0.45029032;stroke-miterlimit:4;stroke-opacity:1;stroke-dasharray:none"
     d="m 371.84843,106.22778 0.30043,1.53853 0.57202,1.34983 0.003,0.004 -1.13123,0.90888 -0.003,-0.004 -1.20021,-0.85001 -1.43153,-0.62968 -0.76692,0.73984 0.59002,1.45852 0.81463,1.21706 0.003,0.004 -0.93577,1.10599 -0.006,-8.9e-4 -1.33325,-0.61414 -1.5274,-0.34264 -0.61699,0.87443 0.8596,1.31481 1.02837,1.04437 0.006,10e-4 -0.71445,1.267 -0.003,-0.004 -1.42596,-0.34673 -1.56837,-0.0522 -0.43705,0.97848 1.09036,1.12975 1.20901,0.82612 0.003,0.003 -0.45999,1.37783 -0.003,-0.004 -1.46958,-0.0718 -1.55041,0.24807 -0.23535,1.04068 1.27677,0.90737 1.34362,0.58052 0.006,9.1e-4 -0.19207,1.43535 -0.004,0.003 -1.45263,0.20315 -1.47606,0.54191 -0.0431,1.06611 1.43414,0.64522 1.43064,0.31722 0.006,0.001 0.0781,1.44792 -0.003,0.003 -1.385,0.47568 -1.34637,0.80426 0.1598,1.05792 1.52423,0.36231 1.4701,0.0362 0.003,0.004 0.35731,1.40151 -0.004,0.003 -1.26927,0.73082 -1.16852,1.04899 0.3549,1.00319 1.56523,0.0718 1.45317,-0.23829 0.004,-0.003 0.61754,1.31681 -0.004,0.003 -1.11365,0.95693 -0.95345,1.24931 0.54478,0.91739 1.55143,-0.22274 1.37574,-0.51246 0.004,-0.003 0.85601,1.17824 -0.004,0.003 -0.90838,1.15567 -0.69536,1.40101 0.70416,0.8016 1.48274,-0.52072 1.25841,-0.75769 0.002,-0.006 1.0615,0.99419 -0.004,0.003 -0.67567,1.30841 -0.41557,1.51078 0.84856,0.65321 1.35459,-0.79289 1.08727,-0.98126 0.004,-0.003 1.2225,0.77292 0.003,0.004 -0.41965,1.40939 -0.1266,1.56159 0.95675,0.47893 1.18093,-1.0319 0.88043,-1.17018 0.004,-0.003 1.35712,0.52721 -0.004,0.003 -0.14048,1.45867 0.17045,1.5633 1.03133,0.29434 0.9674,-1.24206 0.64203,-1.31876 0.004,-0.003 1.4245,0.26088 -0.002,0.006 0.13672,1.45722 0.4726,1.50036 1.05831,0.092 0.71503,-1.39788 0.38603,-1.41976 -0.003,-0.004 1.45256,-0.007 0.003,0.003 0.41215,1.40515 0.73748,1.38615 1.06566,-0.11312 0.43525,-1.50766 0.1109,-1.46334 -0.002,-0.004 1.42577,-0.28795 -9.1e-4,0.006 0.67544,1.30078 0.98488,1.22382 1.02641,-0.31093 0.14192,-1.56416 -0.17208,-1.45781 0.001,-0.006 1.34105,-0.54821 0.003,0.004 0.90572,1.1509 1.20485,1.01183 0.94064,-0.50079 -0.15659,-1.55606 -0.4375,-1.40411 -0.003,-0.003 1.21391,-0.795 0.003,0.003 1.10707,0.96116 1.37045,0.76101 0.83053,-0.66432 -0.44155,-1.50546 -0.70238,-1.28996 -0.003,-0.004 1.04127,-1.0087 0.003,0.004 1.26955,0.72998 1.48849,0.49266 0.69358,-0.81697 -0.72202,-1.38871 -0.92847,-1.13434 -0.002,-0.004 0.82873,-1.19349 0.003,0.004 1.38456,0.48119 1.56054,0.1968 0.52498,-0.92931 -0.97918,-1.22798 -1.12563,-0.93886 -0.003,-0.004 0.58719,-1.32241 0.006,8.8e-4 1.4478,0.20917 1.57208,-0.0989 0.33618,-1.00957 -1.18772,-1.02427 -1.28819,-0.70773 -0.003,-0.004 0.32968,-1.41357 0.003,0.004 1.46753,-0.075 1.5174,-0.38933 0.14283,-1.06034 -1.36321,-0.77502 -1.39333,-0.45744 -0.003,0.003 0.0587,-1.45145 1.42529,-0.34849 1.41615,-0.67232 -0.0527,-1.06611 -1.4911,-0.50819 -1.45243,-0.17965 -0.006,-10e-4 -0.22174,-1.43039 0.004,-0.003 1.34056,-0.60874 1.26521,-0.9279 -0.26436,-1.03417 -1.55744,-0.21644 -1.46081,0.096 -0.004,0.002 -0.48871,-1.3669 0.004,-0.003 1.19792,-0.85294 1.06303,-1.14629 -0.45112,-0.96805 -1.56895,0.0788 -1.41856,0.3697 -0.004,0.003 -0.73966,-1.24542 0.004,-0.003 1.01959,-1.06254 0.82516,-1.33006 -0.6286,-0.86519 -1.51996,0.37376 -1.3297,0.63564 -0.004,0.003 -0.95591,-1.08829 0.004,-0.003 0.78996,-1.23491 0.56399,-1.46208 -0.78538,-0.73388 -1.41872,0.6568 -1.18137,0.87569 -9e-4,0.006 -1.15314,-0.89284 0.004,-0.003 0.54278,-1.35969 0.27541,-1.54809 -0.90186,-0.57101 -1.27343,0.91655 -0.99322,1.08688 -0.004,0.003 -1.29185,-0.65294 10e-4,-0.006 0.27794,-1.43684 -0.0226,-1.57514 -0.99765,-0.37967 -1.07702,1.13904 -0.77186,1.24783 -1.39441,-0.38705 9.1e-4,-0.006 -0.003,-1.4665 -0.31583,-1.53597 -1.05258,-0.19188 -0.83914,1.32282 -0.52467,1.3726 0.003,0.003 -1.44626,-0.12323 -0.003,-0.004 -0.27501,-1.44387 -0.6071,-1.44611 -1.06406,0.006 -0.57953,1.46465 -0.24849,1.44153 -0.002,0.006 -1.43913,0.14979 -0.003,-0.003 -0.54505,-1.3607 -0.86533,-1.31068 -1.04606,0.21208 -0.29506,1.545 0.0297,1.46546 0.003,0.003 -1.39117,0.41937 -0.79605,-1.2393 -1.09764,-1.11578 -0.99131,0.40715 0.005,1.56791 0.30191,1.433 0.003,0.003 -1.28108,0.67856 -0.003,-0.003 -1.00973,-1.06658 -1.29539,-0.88516 -0.88847,0.58461 z m 3.63153,6.07568 c 4.15477,-3.01869 9.16444,-4.00471 13.84652,-3.14622 l -4.51318,13.8977 -11.81373,-8.57544 c 0.74717,-0.78602 1.57141,-1.51566 2.48039,-2.17604 z m -5.30091,6.08635 11.73975,8.5335 -11.70859,8.5068 c -2.9215,-5.40814 -2.81642,-11.82002 -0.031,-17.0403 z m 23.73657,-7.74011 c 2.59753,1.25114 4.92935,3.14582 6.74264,5.64154 1.82394,2.51046 2.90315,5.3331 3.28391,8.20675 l -14.52214,0.001 4.49559,-13.85016 z m -8.45825,14.47675 2.33721,0.76307 -9.1e-4,2.54863 -2.30534,0.75309 -1.49295,-2.05487 1.46178,-2.00992 z m -12.41432,14.20272 11.69719,-8.49851 4.48395,13.79647 c -5.82195,1.03154 -11.94448,-0.8491 -16.18114,-5.29796 z m 16.28257,-10.00366 14.60235,4.8e-4 c -0.64435,4.69474 -3.12432,9.13161 -7.26169,12.1376 -0.91283,0.66319 -1.8647,1.2258 -2.84743,1.69482 l -4.49323,-13.83321 z"
     id="path8965"
     inkscape:connector-curvature="0" />
  <path
     transform="matrix(0.18214627,-0.13233698,0.13233698,0.18214627,248.69441,80.748045)"
     d="m 398.57144,528.43359 a 25.357143,25.357143 0 1 1 -50.71429,0 25.357143,25.357143 0 1 1 50.71429,0 z"
     sodipodi:ry="25.357143"
     sodipodi:rx="25.357143"
     sodipodi:cy="528.43359"
     sodipodi:cx="373.21429"
     id="path8967"
     style="fill:#ffffe6;fill-opacity:1;stroke:#fdf9f0;stroke-width:2;stroke-miterlimit:4;stroke-opacity:1;stroke-dasharray:none"
     sodipodi:type="arc" />
  <path
     inkscape:connector-curvature="0"
     id="path8969"
     d="m 376.94605,113.16024 0.23924,1.5742 0.36689,0.86404 0.31167,0.4171 -1.2404,1.05775 -0.36297,-0.37985 -0.79169,-0.50319 -1.51387,-0.49163 -0.66299,0.75132 0.69455,1.43475 0.60692,0.71568 0.42454,0.30904 -0.8821,1.37141 -0.45351,-0.2532 -0.90257,-0.24873 -1.59267,-0.0256 -0.4122,0.91696 1.08986,1.1649 0.78605,0.50734 0.49701,0.1694 -0.43475,1.56813 -0.51207,-0.10642 -0.9363,0.0281 -1.53083,0.4426 -0.11803,0.9988 1.37972,0.79783 0.90255,0.24868 0.52609,0.0177 0.0441,1.62899 -0.52143,0.0484 -0.88419,0.30329 -1.33191,0.872 0.18058,0.99069 1.55688,0.34731 0.93057,-0.0237 0.50596,-0.14147 0.531,1.54484 -0.48995,0.19945 -0.75292,0.55571 -1.01499,1.22441 0.46363,0.88946 1.59068,-0.12081 0.87846,-0.29908 0.44759,-0.28169 0.95529,1.31487 -0.4062,0.33862 -0.55592,0.74308 -0.60644,1.47549 0.70262,0.71574 1.47816,-0.5869 0.7612,-0.54435 0.34106,-0.40433 1.30516,0.9824 -0.2909,0.4375 -0.31031,0.87766 -0.15087,1.58799 0.88637,0.47786 1.24095,-0.99723 0.56161,-0.74722 0.20714,-0.48095 1.53554,0.54543 -0.14551,0.50582 -0.0424,0.93524 0.33239,1.55871 0.98635,0.1965 0.894,-1.31912 0.31594,-0.88181 0.0572,-0.51987 1.62576,0.0712 0.005,0.52502 0.23959,0.9043 0.77112,1.39651 0.99945,-0.10865 0.4678,-1.52268 0.0423,-0.93519 -0.10459,-0.51526 1.581,-0.40949 0.16268,0.49927 0.48897,0.79269 1.15406,1.10962 0.91942,-0.39837 1.6e-4,-1.59168 -0.23382,-0.90847 -0.24914,-0.46257 1.38928,-0.85282 0.30037,0.4253 0.70834,0.61591 1.42326,0.71404 0.7628,-0.64989 -0.46952,-1.51999 -0.49313,-0.79837 -0.37017,-0.3659 1.07137,-1.23064 0.4173,0.32299 0.85126,0.38166 1.57087,0.25889 0.542,-0.84603 -0.90051,-1.31127 -0.70269,-0.62 -0.4706,-0.24077 0.66852,-1.48584 0.48978,0.18338 0.93003,0.10698 1.57933,-0.20823 0.26949,-0.96977 -1.24877,-0.98864 -0.8554,-0.38729 -0.51931,-0.0923 0.20045,-1.61536 0.51881,0.0318 0.91877,-0.17186 1.44973,-0.66193 -0.027,-1.00664 -1.49002,-0.57853 -0.92847,-0.11663 -0.51883,0.0641 -0.28944,-1.60737 0.51269,-0.12034 0.82427,-0.43356 1.18559,-1.06146 -0.32334,-0.94779 -1.59269,-0.12132 -0.91307,0.16772 -0.4817,0.2108 -0.75351,-1.44409 0.45588,-0.27032 0.6588,-0.66129 0.82002,-1.3611 -0.59138,-0.81393 -1.54789,0.35919 -0.83249,0.42222 -0.39801,0.35 -1.14051,-1.16286 0.34931,-0.39295 0.44164,-0.81661 0.37681,-1.55217 -0.8015,-0.60044 -1.37581,0.7996 -0.66713,0.64989 -0.2728,0.45041 -1.43921,-0.77196 0.22108,-0.47372 0.17579,-0.91912 -0.0896,-1.59585 -0.94904,-0.33669 -1.07752,1.17423 -0.44733,0.82069 -0.13013,0.50328 -1.59827,-0.30853 0.0727,-0.52241 -0.10389,-0.93323 -0.55434,-1.49318 -1.00558,-0.0434 -0.68608,1.43772 -0.18563,0.91753 0.0231,0.52252 -1.61967,0.17661 -0.0836,-0.52195 -0.37251,-0.85992 -0.96881,-1.26159 -0.9721,0.25404 -0.23923,1.574 0.0999,0.92749 0.1782,0.49669 -1.50147,0.63859 -0.23361,-0.4652 -0.60695,-0.71566 -1.30049,-0.91621 -0.85376,0.52463 z m 6.43848,10.01095 c 2.04783,-1.4879 4.90992,-1.03459 6.39777,1.01326 1.48785,2.04789 1.03867,4.91561 -1.00918,6.40349 -2.04785,1.48784 -4.91975,1.03298 -6.40759,-1.01486 -1.48788,-2.04786 -1.0289,-4.91405 1.019,-6.40189 z"
     style="fill:#f2a66c;fill-opacity:1;stroke:#fdf9f0;stroke-width:0.45029032;stroke-miterlimit:4;stroke-opacity:1;stroke-dasharray:none" />
  <path
     inkscape:connector-curvature="0"
     style="fill:#502814;fill-opacity:1;stroke:#fdf9f0;stroke-width:0.45029032;stroke-miterlimit:4;stroke-opacity:1;stroke-dasharray:none"
     d="m 356.63991,77.232557 -0.66135,1.421232 -0.33067,1.428268 0,0.0072 -1.4494,0.07036 0,-0.0072 -0.4714,-1.393089 -0.788,-1.350871 -1.05539,0.147744 -0.37992,1.526771 -0.0565,1.463443 0,0.0072 -1.40718,0.344749 -0.005,-0.0072 -0.71765,-1.280516 -1.03424,-1.17497 -1.01317,0.34475 -0.0772,1.568985 0.21811,1.449373 0.005,0.0072 -1.32274,0.605076 0,-0.0072 -0.94981,-1.11869 -1.23832,-0.963902 -0.92872,0.534718 0.21812,1.554908 0.4925,1.379014 0,0.0072 -1.18201,0.844291 0,-0.0072 -1.14684,-0.921676 -1.40011,-0.710624 -0.80209,0.70358 0.49954,1.484549 0.7458,1.259405 0.005,0.0072 -0.99908,1.048318 -0.005,0 -1.29461,-0.6895 -1.51269,-0.429184 -0.66134,0.837257 0.78094,1.364944 0.97096,1.097588 0.005,0.0079 -0.78802,1.217182 -0.005,0 -1.40011,-0.429188 -1.56196,-0.140737 -0.49251,0.949845 1.0202,1.189042 1.16795,0.89352 0,0.0073 -0.53471,1.343852 -0.005,0 -1.45638,-0.154813 -1.562,0.161816 -0.3025,1.020192 1.2242,0.977981 1.31568,0.66137 0.005,0 -0.27438,1.42823 -0.005,0 -1.46343,0.11957 -1.50566,0.45028 -0.0987,1.06239 1.38609,0.73173 1.41415,0.39403 0.004,0 0,1.45642 -0.004,0 -1.41415,0.40099 -1.38609,0.72471 0.0987,1.06244 1.50566,0.45029 1.46343,0.12673 0.005,-0.004 0.27438,1.42825 -0.005,0 -1.31568,0.66137 -1.2242,0.97798 0.3025,1.02721 1.562,0.15484 1.45638,-0.15484 0.005,0 0.53471,1.34386 0,0.005 -1.16795,0.89354 -1.0202,1.18905 0.49251,0.9498 1.56196,-0.14074 1.40011,-0.42918 0.005,0 0.78802,1.22423 -0.005,0 -0.97096,1.09756 -0.78094,1.36494 0.66134,0.84427 1.51269,-0.43623 1.29461,-0.68947 0.005,0 0.99908,1.04834 -0.005,0.005 -0.7458,1.25939 -0.49954,1.49159 0.80209,0.69652 1.40011,-0.71058 1.14684,-0.9217 0,-0.004 1.18201,0.84427 0,0.005 -0.4925,1.37906 -0.21812,1.55486 0.92872,0.53474 1.23832,-0.96391 0.94981,-1.11869 0,-0.005 1.32274,0.60513 -0.005,0.004 -0.21811,1.44935 0.0772,1.56898 1.01316,0.35178 1.03424,-1.182 0.71765,-1.28049 0.005,-0.005 1.40718,0.34472 0,0.004 0.0565,1.46345 0.37992,1.52679 1.05539,0.14773 0.788,-1.35089 0.4714,-1.39307 0,-0.004 1.4494,0.0702 0,0.005 0.33067,1.42827 0.66135,1.42124 1.06241,-0.0492 0.52767,-1.47752 0.18995,-1.45638 0,-0.004 1.43532,-0.20408 0,0.004 0.59807,1.33683 0.91463,1.27348 1.04131,-0.25332 0.23216,-1.54783 -0.0846,-1.46348 0,-0.004 1.37198,-0.47844 0,0.005 0.83727,1.20316 1.14682,1.07644 0.97094,-0.44323 -0.0703,-1.56898 -0.35883,-1.42124 0,-0.005 1.25237,-0.72468 0.005,0.004 1.04834,1.02021 1.32975,0.84428 0.86543,-0.61916 -0.35884,-1.52675 -0.62619,-1.32977 0,-0.004 1.09757,-0.94984 0,0.004 1.23127,0.80209 1.4564,0.57694 0.73877,-0.77396 -0.6473,-1.42823 -0.85835,-1.18905 -0.005,0 0.90056,-1.13979 1.35793,0.55582 1.54085,0.28848 0.58395,-0.89358 -0.90761,-1.28754 -1.06943,-0.99909 -0.005,-0.004 0.66135,-1.28755 0.004,0 1.44233,0.2955 1.56903,-0.005 0.39398,-0.99206 -1.13278,-1.09053 -1.23827,-0.78095 -0.005,0 0.40806,-1.39312 0.005,0 1.47047,0.009 1.53381,-0.30252 0.20404,-1.04832 -1.31568,-0.85841 -1.36495,-0.5347 -0.004,0 0.13371,-1.44233 0.005,0 1.44936,-0.26032 1.44936,-0.59102 0,-1.06943 -1.44936,-0.59099 -1.44936,-0.26737 -0.005,0 -0.13371,-1.44233 0.004,0 1.36495,-0.53474 1.31568,-0.85132 -0.20404,-1.05535 -1.53381,-0.30256 -1.47047,0.0119 -0.005,0.005 -0.40806,-1.400092 0.005,0 1.23827,-0.780985 1.13278,-1.090545 -0.39398,-0.992048 -1.56903,-0.0076 -1.44233,0.295515 -0.004,0 -0.66135,-1.287558 0.005,-0.0064 1.06943,-0.999077 0.90761,-1.28755 -0.58395,-0.893534 -1.54085,0.288458 -1.35793,0.555829 -0.90056,-1.132763 0.005,-0.0079 0.85835,-1.189049 0.6473,-1.42826 -0.73877,-0.773937 -1.4564,0.576937 -1.23127,0.802076 0,0.0072 -1.09757,-0.949825 0,-0.0072 0.62619,-1.329752 0.35884,-1.526773 -0.86543,-0.61915 -1.32975,0.844296 -1.04834,1.020196 -0.005,0.0072 -1.25237,-0.724689 0,-0.0072 0.35883,-1.421233 0.0703,-1.568972 -0.97094,-0.44326 -1.14682,1.076483 -0.83727,1.203112 0,0.0072 -1.37198,-0.478434 0.0846,-1.470475 -0.23216,-1.547872 -1.04131,-0.253289 -0.91463,1.273474 -0.59807,1.336804 0,0.0072 -1.43532,-0.204047 0,-0.0072 -0.18995,-1.456399 -0.52767,-1.477519 -1.06241,-0.04925 z m -0.63322,7.04986 c 5.13563,0 9.76805,2.146887 13.05137,5.593451 l -11.82011,8.590682 -4.51697,-13.881591 c 1.06648,-0.196714 2.16219,-0.302541 3.28571,-0.302541 z m -7.86603,1.808205 4.4818,13.804218 -14.47261,0 c 0.8153,-6.092505 4.66912,-11.21808 9.99081,-13.804218 z m 23.75285,7.6901 c 1.36601,2.538988 2.13887,5.442438 2.13887,8.527388 0,3.10307 -0.78601,6.02097 -2.16704,8.56959 l -11.74976,-8.53442 11.77793,-8.562558 z m -15.3521,6.740288 1.44233,1.99114 -1.49861,2.06149 -2.30775,-0.74583 0,-2.53988 2.36403,-0.76692 z m -18.39154,4.19334 14.45853,0 -4.4818,13.79715 c -5.31635,-2.58751 -9.16418,-7.70774 -9.97673,-13.79715 z m 19.0529,1.47752 11.81309,8.58364 c -3.28083,3.41942 -7.8951,5.55126 -13.00917,5.55126 -1.12829,0 -2.22906,-0.10438 -3.29981,-0.30255 l 4.49589,-13.83235 z"
     id="path8971" />
  <path
     sodipodi:type="arc"
     style="fill:#ffffe6;fill-opacity:1;stroke:#fdf9f0;stroke-width:2;stroke-miterlimit:4;stroke-opacity:1;stroke-dasharray:none"
     id="path8983"
     sodipodi:cx="367.14285"
     sodipodi:cy="523.79077"
     sodipodi:rx="85.714287"
     sodipodi:ry="85.714287"
     d="m 452.85714,523.79077 a 85.714287,85.714287 0 1 1 -171.42857,0 85.714287,85.714287 0 1 1 171.42857,0 z"
     transform="matrix(0.22514515,0,0,0.22514515,273.4789,-15.544335)" />
  <path
     inkscape:connector-curvature="0"
     id="path8973"
     d="m 356.63991,77.232557 -0.66135,1.421232 -0.33067,1.428268 0,0.0072 -1.4494,0.07036 0,-0.0072 -0.4714,-1.393089 -0.788,-1.350871 -1.05539,0.147744 -0.37992,1.526771 -0.0565,1.463443 0,0.0072 -1.40718,0.344749 -0.005,-0.0072 -0.71765,-1.280516 -1.03424,-1.17497 -1.01317,0.34475 -0.0772,1.568985 0.21811,1.449373 0.005,0.0072 -1.32274,0.605076 0,-0.0072 -0.94981,-1.11869 -1.23832,-0.963902 -0.92872,0.534718 0.21812,1.554908 0.4925,1.379014 0,0.0072 -1.18201,0.844291 0,-0.0072 -1.14684,-0.921676 -1.40011,-0.710624 -0.80209,0.70358 0.49954,1.484549 0.7458,1.259405 0.005,0.0072 -0.99908,1.048318 -0.005,0 -1.29461,-0.6895 -1.51269,-0.429184 -0.66134,0.837257 0.78094,1.364944 0.97096,1.097588 0.005,0.0079 -0.78802,1.217182 -0.005,0 -1.40011,-0.429188 -1.56196,-0.140737 -0.49251,0.949845 1.0202,1.189042 1.16795,0.89352 0,0.0073 -0.53471,1.343852 -0.005,0 -1.45638,-0.154813 -1.562,0.161816 -0.3025,1.020192 1.2242,0.977981 1.31568,0.66137 0.005,0 -0.27438,1.42823 -0.005,0 -1.46343,0.11957 -1.50566,0.45028 -0.0987,1.06239 1.38609,0.73173 1.41415,0.39403 0.004,0 0,1.45642 -0.004,0 -1.41415,0.40099 -1.38609,0.72471 0.0987,1.06244 1.50566,0.45029 1.46343,0.12673 0.005,-0.004 0.27438,1.42825 -0.005,0 -1.31568,0.66137 -1.2242,0.97798 0.3025,1.02721 1.562,0.15484 1.45638,-0.15484 0.005,0 0.53471,1.34386 0,0.005 -1.16795,0.89354 -1.0202,1.18905 0.49251,0.9498 1.56196,-0.14074 1.40011,-0.42918 0.005,0 0.78802,1.22423 -0.005,0 -0.97096,1.09756 -0.78094,1.36494 0.66134,0.84427 1.51269,-0.43623 1.29461,-0.68947 0.005,0 0.99908,1.04834 -0.005,0.005 -0.7458,1.25939 -0.49954,1.49159 0.80209,0.69652 1.40011,-0.71058 1.14684,-0.9217 0,-0.004 1.18201,0.84427 0,0.005 -0.4925,1.37906 -0.21812,1.55486 0.92872,0.53474 1.23832,-0.96391 0.94981,-1.11869 0,-0.005 1.32274,0.60513 -0.005,0.004 -0.21811,1.44935 0.0772,1.56898 1.01316,0.35178 1.03424,-1.182 0.71765,-1.28049 0.005,-0.005 1.40718,0.34472 0,0.004 0.0565,1.46345 0.37992,1.52679 1.05539,0.14773 0.788,-1.35089 0.4714,-1.39307 0,-0.004 1.4494,0.0702 0,0.005 0.33067,1.42827 0.66135,1.42124 1.06241,-0.0492 0.52767,-1.47752 0.18995,-1.45638 0,-0.004 1.43532,-0.20408 0,0.004 0.59807,1.33683 0.91463,1.27348 1.04131,-0.25332 0.23216,-1.54783 -0.0846,-1.46348 0,-0.004 1.37198,-0.47844 0,0.005 0.83727,1.20316 1.14682,1.07644 0.97094,-0.44323 -0.0703,-1.56898 -0.35883,-1.42124 0,-0.005 1.25237,-0.72468 0.005,0.004 1.04834,1.02021 1.32975,0.84428 0.86543,-0.61916 -0.35884,-1.52675 -0.62619,-1.32977 0,-0.004 1.09757,-0.94984 0,0.004 1.23127,0.80209 1.4564,0.57694 0.73877,-0.77396 -0.6473,-1.42823 -0.85835,-1.18905 -0.005,0 0.90056,-1.13979 1.35793,0.55582 1.54085,0.28848 0.58395,-0.89358 -0.90761,-1.28754 -1.06943,-0.99909 -0.005,-0.004 0.66135,-1.28755 0.004,0 1.44233,0.2955 1.56903,-0.005 0.39398,-0.99206 -1.13278,-1.09053 -1.23827,-0.78095 -0.005,0 0.40806,-1.39312 0.005,0 1.47047,0.009 1.53381,-0.30252 0.20404,-1.04832 -1.31568,-0.85841 -1.36495,-0.5347 -0.004,0 0.13371,-1.44233 0.005,0 1.44936,-0.26032 1.44936,-0.59102 0,-1.06943 -1.44936,-0.59099 -1.44936,-0.26737 -0.005,0 -0.13371,-1.44233 0.004,0 1.36495,-0.53474 1.31568,-0.85132 -0.20404,-1.05535 -1.53381,-0.30256 -1.47047,0.0119 -0.005,0.005 -0.40806,-1.400092 0.005,0 1.23827,-0.780985 1.13278,-1.090545 -0.39398,-0.992048 -1.56903,-0.0076 -1.44233,0.295515 -0.004,0 -0.66135,-1.287558 0.005,-0.0064 1.06943,-0.999077 0.90761,-1.28755 -0.58395,-0.893534 -1.54085,0.288458 -1.35793,0.555829 -0.90056,-1.132763 0.005,-0.0079 0.85835,-1.189049 0.6473,-1.42826 -0.73877,-0.773937 -1.4564,0.576937 -1.23127,0.802076 0,0.0072 -1.09757,-0.949825 0,-0.0072 0.62619,-1.329752 0.35884,-1.526773 -0.86543,-0.61915 -1.32975,0.844296 -1.04834,1.020196 -0.005,0.0072 -1.25237,-0.724689 0,-0.0072 0.35883,-1.421233 0.0703,-1.568972 -0.97094,-0.44326 -1.14682,1.076483 -0.83727,1.203112 0,0.0072 -1.37198,-0.478434 0.0846,-1.470475 -0.23216,-1.547872 -1.04131,-0.253289 -0.91463,1.273474 -0.59807,1.336804 0,0.0072 -1.43532,-0.204047 0,-0.0072 -0.18995,-1.456399 -0.52767,-1.477519 -1.06241,-0.04925 z m -0.63322,7.04986 c 5.13563,0 9.76805,2.146887 13.05137,5.593451 l -11.82011,8.590682 -4.51697,-13.881591 c 1.06648,-0.196714 2.16219,-0.302541 3.28571,-0.302541 z m -7.86603,1.808205 4.4818,13.804218 -14.47261,0 c 0.8153,-6.092505 4.66912,-11.21808 9.99081,-13.804218 z m 23.75285,7.6901 c 1.36601,2.538988 2.13887,5.442438 2.13887,8.527388 0,3.10307 -0.78601,6.02097 -2.16704,8.56959 l -11.74976,-8.53442 11.77793,-8.562558 z m -15.3521,6.740288 1.44233,1.99114 -1.49861,2.06149 -2.30775,-0.74583 0,-2.53988 2.36403,-0.76692 z m -18.39154,4.19334 14.45853,0 -4.4818,13.79715 c -5.31635,-2.58751 -9.16418,-7.70774 -9.97673,-13.79715 z m 19.0529,1.47752 11.81309,8.58364 c -3.28083,3.41942 -7.8951,5.55126 -13.00917,5.55126 -1.12829,0 -2.22906,-0.10438 -3.29981,-0.30255 l 4.49589,-13.83235 z"
     style="fill:#844924;fill-opacity:1;stroke:#fdf9f0;stroke-width:0.45029032;stroke-miterlimit:4;stroke-opacity:1;stroke-dasharray:none" />
  <path
     sodipodi:type="arc"
     style="fill:#ffffe6;fill-opacity:1;stroke:#fdf9f0;stroke-width:2;stroke-miterlimit:4;stroke-opacity:1;stroke-dasharray:none"
     id="path8975"
     sodipodi:cx="373.21429"
     sodipodi:cy="528.43359"
     sodipodi:rx="25.357143"
     sodipodi:ry="25.357143"
     d="m 398.57144,528.43359 a 25.357143,25.357143 0 1 1 -50.71429,0 25.357143,25.357143 0 1 1 50.71429,0 z"
     transform="matrix(0.22514515,0,0,0.22514515,271.98281,-16.669679)" />
  <path
     style="fill:#844924;fill-opacity:1;stroke:#fdf9f0;stroke-width:0.45029032;stroke-miterlimit:4;stroke-opacity:1;stroke-dasharray:none"
     d="m 356.68914,85.837352 -0.73171,1.414184 -0.21107,0.914668 0.005,0.52064 -1.62525,0.126633 -0.0704,-0.520657 -0.34477,-0.872437 -0.9358,-1.287553 -0.97791,0.218112 -0.28145,1.568979 0.0703,0.935757 0.16181,0.499554 -1.51972,0.591001 -0.21811,-0.471403 -0.58399,-0.731722 -1.27347,-0.956871 -0.87244,0.499553 0.19702,1.583037 0.33774,0.872451 0.30252,0.429173 -1.2735,1.01317 -0.35178,-0.386974 -0.77393,-0.527686 -1.49865,-0.541758 -0.68242,0.738749 0.64728,1.456432 0.58393,0.731712 0.41512,0.323642 -0.92167,1.34384 -0.45028,-0.267355 -0.89356,-0.274401 -1.5901,-0.07728 -0.43621,0.907603 1.05537,1.196075 0.76693,0.52769 0.49248,0.18291 -0.47846,1.56195 -0.5136,-0.12671 -0.93572,0.005 -1.54085,0.394 -0.14774,0.99202 1.3579,0.83726 0.8865,0.27442 0.52771,0.035 0,1.62526 -0.52771,0.0353 -0.8865,0.27437 -1.3579,0.83728 0.14774,0.99203 1.54085,0.39401 0.93572,0.005 0.5136,-0.12671 0.47846,1.56191 -0.49248,0.18295 -0.76693,0.52767 -1.05537,1.19612 0.43621,0.90759 1.5901,-0.0772 0.89356,-0.27438 0.45028,-0.26739 0.92167,1.34386 -0.41512,0.32359 -0.58393,0.73179 -0.64728,1.45641 0.68242,0.73873 1.49865,-0.54176 0.77393,-0.52767 0.35178,-0.38699 1.2735,1.01318 -0.30252,0.4292 -0.33774,0.87244 -0.19702,1.58306 0.87244,0.49952 1.27347,-0.95689 0.58399,-0.7317 0.21811,-0.47844 1.51972,0.59804 -0.16181,0.49955 -0.0703,0.92871 0.28145,1.57603 0.97791,0.21812 0.9358,-1.28758 0.34477,-0.87243 0.0704,-0.52065 1.62525,0.12675 -0.005,0.5206 0.21107,0.91468 0.73171,1.41419 0.99911,-0.0773 0.51361,-1.50565 0.0703,-0.93576 -0.0845,-0.51359 1.59002,-0.36586 0.14775,0.50655 0.46434,0.80914 1.1187,1.13274 0.93578,-0.36585 0.0422,-1.59007 -0.20403,-0.91469 -0.2392,-0.47142 1.41419,-0.80907 0.28845,0.43621 0.68948,0.63322 1.40017,0.75987 0.78802,-0.62618 -0.42921,-1.53381 -0.46436,-0.81613 -0.36586,-0.37994 1.11166,-1.18907 0.40102,0.33068 0.84431,0.40106 1.56194,0.3166 0.5699,-0.83021 -0.8654,-1.34385 -0.68246,-0.64026 -0.45732,-0.25327 0.71061,-1.4705 0.48548,0.20403 0.92167,0.13373 1.58308,-0.16184 0.29544,-0.95685 -1.21717,-1.03426 -0.83725,-0.40104 -0.51361,-0.11253 0.23921,-1.61121 0.52765,0.049 0.92173,-0.14773 1.46344,-0.61914 0,-1.00613 -1.46344,-0.61915 -0.92173,-0.14773 -0.52765,0.0491 -0.23921,-1.61117 0.51361,-0.11254 0.83725,-0.40106 1.21717,-1.03426 -0.29544,-0.95685 -1.58308,-0.16184 -0.92167,0.13371 -0.48548,0.20402 -0.71061,-1.470494 0.45732,-0.253262 0.68246,-0.640248 0.8654,-1.343831 -0.5699,-0.830244 -1.56194,0.316599 -0.84431,0.401073 -0.40102,0.330657 -1.11166,-1.189035 0.36586,-0.37992 0.46436,-0.816172 0.42921,-1.533805 -0.78802,-0.626181 -1.40017,0.759866 -0.68948,0.633208 -0.28845,0.436234 -1.41419,-0.809129 0.2392,-0.471392 0.20403,-0.914654 -0.0422,-1.590096 -0.93578,-0.365857 -1.1187,1.132765 -0.46434,0.809115 -0.14775,0.506583 -1.59002,-0.365867 0.0845,-0.513613 -0.0703,-0.935754 -0.51361,-1.505664 -0.99911,-0.07734 z m -0.67541,11.883438 c 2.53129,0 4.5803,2.049 4.5803,4.58031 0,2.53129 -2.04901,4.58734 -4.5803,4.58734 -2.53131,0 -4.58732,-2.05605 -4.58732,-4.58734 0,-2.53131 2.05601,-4.58031 4.58732,-4.58031 z"
     id="path8977"
     inkscape:connector-curvature="0" />
  <text
     xml:space="preserve"
     style="font-size:40px;font-style:normal;font-weight:normal;line-height:125%;letter-spacing:0px;word-spacing:0px;fill:#191614;fill-opacity:1;stroke:none;font-family:Sans"
     x="99"
     y="148.28572"
     id="text8985"
     sodipodi:linespacing="125%"><tspan
       sodipodi:role="line"
       id="tspan8987"
       x="99"
       y="148.28572"
       style="font-size:56px;font-style:normal;font-variant:normal;font-weight:bold;font-stretch:normal;text-align:start;line-height:125%;writing-mode:lr-tb;text-anchor:start;fill:#191614;fill-opacity:1;font-family:Didot;-inkscape-font-specification:Didot Bold"><tspan
   style="font-size:72px"
   id="tspan5761">B</tspan>ECCA</tspan></text>
</svg>
