<?xml version="1.0" encoding="UTF-8" standalone="no"?>
<!-- Created with Inkscape (http://www.inkscape.org/) -->

<svg
   xmlns:dc="http://purl.org/dc/elements/1.1/"
   xmlns:cc="http://creativecommons.org/ns#"
   xmlns:rdf="http://www.w3.org/1999/02/22-rdf-syntax-ns#"
   xmlns:svg="http://www.w3.org/2000/svg"
   xmlns="http://www.w3.org/2000/svg"
   xmlns:sodipodi="http://sodipodi.sourceforge.net/DTD/sodipodi-0.dtd"
   xmlns:inkscape="http://www.inkscape.org/namespaces/inkscape"
   inkscape:version="0.48.2 r9819"
   version="1.1"
   id="svg8284"
   height="480.00009"
   width="1425.7142"
   sodipodi:docname="becca_logo_3.svg"
   inkscape:export-filename="/Users/brandon/Desktop/becca_logo_3.png"
   inkscape:export-xdpi="400"
   inkscape:export-ydpi="400">
  <sodipodi:namedview
     id="base"
     pagecolor="#ffffff"
     bordercolor="#666666"
     borderopacity="1.0"
     inkscape:pageopacity="0.0"
     inkscape:pageshadow="2"
     inkscape:zoom="0.35"
     inkscape:cx="559.2857"
     inkscape:cy="278.35967"
     inkscape:document-units="px"
     inkscape:current-layer="svg8284"
     showgrid="false"
     inkscape:window-width="1276"
     inkscape:window-height="756"
     inkscape:window-x="4"
     inkscape:window-y="0"
     inkscape:window-maximized="1"
     fit-margin-top="0"
     fit-margin-left="0"
     fit-margin-right="0"
     fit-margin-bottom="0" />
  <defs
     id="defs8286" />
  <metadata
     id="metadata8289">
    <rdf:RDF>
      <cc:Work
         rdf:about="">
        <dc:format>image/svg+xml</dc:format>
        <dc:type
           rdf:resource="http://purl.org/dc/dcmitype/StillImage" />
        <dc:title />
      </cc:Work>
    </rdf:RDF>
  </metadata>
  <g
     inkscape:label="Layer 1"
     inkscape:groupmode="layer"
     id="layer1"
     transform="translate(371.78571,-176.2193)" />
  <rect
     style="fill:#ffffe6;fill-opacity:1;stroke:none"
     id="rect8997"
     width="1425.7142"
     height="480.00009"
     x="0"
     y="0" />
  <path
     style="fill:#502814;fill-opacity:1;stroke:#ffffe6;stroke-width:2;stroke-miterlimit:4;stroke-opacity:1;stroke-dasharray:none"
     d="m 1009.6101,244.4548 -1.3232,6.83568 0.1096,6.51064 0.012,0.028 -6.1706,1.8606 -0.012,-0.028 -3.52847,-5.49716 -4.84756,-4.97504 -4.38948,1.77076 0.004,6.98808 1.32988,6.3674 0.012,0.028 -5.69388,2.99776 -0.036,-0.024 -4.46872,-4.74744 -5.71984,-3.9524 -3.99588,2.57444 1.35228,6.84492 2.49736,6.01192 0.036,0.024 -5.05032,4.02896 -0.012,-0.028 -5.29548,-3.80052 -6.37236,-2.82352 -3.42792,3.3024 2.61076,6.46672 3.60428,5.41388 0.012,0.028 -4.18684,4.90872 -0.012,-0.028 -5.9328,-2.73984 -6.7976,-1.55808 -2.70068,3.894 3.74804,5.86116 4.56732,4.62624 0.036,0.024 -3.1792,5.59148 -0.028,0.012 -6.32008,-1.58052 -6.98032,-0.2244 -1.95064,4.31896 4.83236,5.04324 5.36376,3.68692 0.036,0.024 -2.08816,6.09236 -0.028,0.012 -6.4952,-0.3452 -6.88264,1.07192 -1.10188,4.6226 5.67428,4.02816 5.99356,2.59592 0.012,0.028 -0.86048,6.366 -0.028,0.012 -6.443,0.89744 -6.55756,2.37572 -0.2076,4.72176 6.32684,2.89928 6.3808,1.43648 0.028,-0.012 0.352,6.45016 -0.028,0.012 -6.1784,2.08796 -6.005,3.55844 0.71704,4.68444 6.7596,1.66412 6.51804,0.1784 0.028,-0.012 1.56496,6.2766 -0.028,0.012 -5.66376,3.24792 -5.19468,4.61248 1.56608,4.47276 6.97268,0.3228 6.44304,-1.02656 0.024,-0.036 2.71724,5.86052 -0.028,0.012 -4.95948,4.26396 -4.22516,5.53016 2.40764,4.10188 6.89772,-1.01132 6.11028,-2.232 0.028,-0.012 3.74844,5.21688 0.012,0.028 -4.07328,5.10584 -3.119,6.22056 3.14316,3.56424 6.5802,-2.28476 5.57288,-3.35408 0.028,-0.012 4.71148,4.42928 -0.028,0.012 -3.00504,5.77344 -1.89908,6.7216 3.75748,2.92796 6.05044,-3.50536 4.83832,-4.36256 0.028,-0.012 5.43216,3.4444 -0.024,0.036 -1.86088,6.22892 -0.55008,6.96496 4.20508,2.14004 5.27048,-4.56696 3.95204,-5.20444 -0.012,-0.028 6.00123,2.36852 0.012,0.028 -0.64067,6.47228 0.73097,6.93544 4.577,1.30652 4.3009,-5.48464 2.8914,-5.84176 -0.012,-0.028 6.3506,1.18632 -0.024,0.036 0.6174,6.48064 2.0194,6.6786 4.7444,0.42744 3.1872,-6.2054 1.7168,-6.28964 0.024,-0.036 6.4348,-0.028 0.012,0.028 1.8151,6.24644 3.2779,6.17156 4.707,-0.49776 1.9445,-6.66848 0.5347,-6.51024 -0.012,-0.028 6.3218,-1.2542 0.012,0.028 2.9598,5.8 4.3774,5.41436 4.5257,-1.35384 0.6865,-6.93456 -0.7463,-6.48072 -0.012,-0.028 5.9664,-2.4216 0.012,0.028 4.0137,5.11852 5.3102,4.5054 4.2155,-2.21048 -0.6625,-6.92024 -1.9364,-6.2162 -0.012,-0.028 5.3986,-3.53608 0.012,0.028 4.9011,4.28536 6.0991,3.40696 3.7082,-2.9536 -1.9892,-6.68612 -3.0735,-5.73944 -0.012,-0.028 4.6185,-4.4688 0.036,0.024 5.6142,3.2702 6.638,2.20976 3.0643,-3.5982 -3.1869,-6.19428 -4.1275,-5.05796 -0.012,-0.028 3.7096,-5.2728 0.012,0.028 6.1681,2.13368 6.8966,0.92144 2.3521,-4.12916 -4.3242,-5.4598 -4.9769,-4.20204 -0.028,0.012 2.6564,-5.87984 6.4494,0.93632 6.9504,-0.41244 1.5566,-4.47832 -5.295,-4.57364 -5.6825,-3.15656 -0.036,-0.024 1.4668,-6.25952 0.028,-0.012 6.5334,-0.2764 6.7542,-1.71612 0.6321,-4.69872 -6.0536,-3.48272 -6.1758,-2.03512 -0.028,0.012 0.2616,-6.4422 0.028,-0.012 6.3524,-1.5194 6.285,-2.95192 -0.2472,-4.7372 -6.5924,-2.28552 -6.457,-0.83776 -0.028,0.012 -0.9738,-6.3596 0.028,-0.012 5.9666,-2.67928 5.6112,-4.1044 -1.1491,-4.60888 -6.8813,-0.98968 -6.5336,0.4052 -0.028,0.012 -2.1259,-6.0722 0.028,-0.012 5.3078,-3.77108 4.7554,-5.08268 -2.0133,-4.32904 -6.9352,0.3444 -6.3222,1.64072 -0.024,0.036 -3.263,-5.59552 0.028,-0.012 4.4974,-4.69628 3.71,-5.91704 -2.764,-3.85204 -6.7693,1.65564 -5.8984,2.82332 -0.028,0.012 -4.2338,-4.83828 0.024,-0.036 3.5354,-5.45484 2.5281,-6.52408 -3.4769,-3.2234 -6.3305,2.89884 -5.2549,3.85452 -5.0983,-3.91412 0.024,-0.036 2.4216,-6.04668 1.2549,-6.85084 -4.0154,-2.5416 -5.6567,4.05132 -4.4444,4.77968 0.012,0.028 -5.7508,-2.91404 -0.012,-0.028 1.2698,-6.40368 -0.094,-6.96536 -4.3949,-1.7384 -4.8236,5.06744 -3.4217,5.52312 -0.024,0.036 -6.176,-1.77748 -0.012,-0.028 0.02,-6.51056 -1.3827,-6.83732 -4.6607,-0.867 -3.7857,5.87152 -2.3155,6.08468 0.012,0.028 -6.4269,-0.58764 -1.2161,-6.428 -2.6639,-6.42128 -4.7598,0.028 -2.5734,6.47104 -1.141,6.40376 0.012,0.028 -6.4049,0.66292 -0.012,-0.028 -2.3836,-6.07256 -3.8617,-5.80056 -4.6315,0.92932 z m 4.8462,31.0628 c 22.1328,-5.51832 44.4037,-1.24364 62.2571,10.08192 l -41.7097,49.72372 -34.3825,-54.97124 c 4.3847,-1.99376 8.9931,-3.62712 13.8351,-4.8344 z m -31.95675,16.24484 34.14775,54.67548 -62.37175,15.55108 c -3.03284,-27.13256 8.0682,-53.36296 28.224,-70.22656 z m 110.62935,7.61892 c 8.6153,9.4742 15.0658,21.15664 18.3806,34.45168 3.3343,13.37304 3.0823,26.79284 -0.1308,39.2604 l -59.8076,-24.15504 41.558,-49.55704 z m -58.9195,45.54424 8.3554,7.03128 -4.2434,10.49456 -10.7469,-0.7344 -2.7292,-10.94616 9.3641,-5.84528 z m -74.75521,37.83376 62.31111,-15.53588 -4.4896,64.27668 c -25.69199,-5.4388 -47.77643,-23.37064 -57.82151,-48.7408 z m 83.69891,-14.10504 60.1334,24.2992 c -10.465,18.2618 -28.0602,32.40724 -50.1,37.9024 -4.8625,1.21236 -9.7186,1.9454 -14.546,2.24176 l 4.5125,-64.4434 z"
     id="path8316"
     inkscape:connector-curvature="0" />
  <path
     sodipodi:type="arc"
     style="fill:#ffffe6;fill-opacity:1;stroke:#783c1e;stroke-width:2;stroke-miterlimit:4;stroke-opacity:1;stroke-dasharray:none"
     id="path8979"
     sodipodi:cx="367.14285"
     sodipodi:cy="523.79077"
     sodipodi:rx="85.714287"
     sodipodi:ry="85.714287"
     d="m 452.85714,523.79077 a 85.714287,85.714287 0 1 1 -171.42857,0 85.714287,85.714287 0 1 1 171.42857,0 z"
     transform="matrix(0.97029572,-0.24192188,0.24192188,0.97029572,550.14319,-71.567479)" />
  <path
     id="path8907"
     d="m 1009.6101,244.4548 -1.3232,6.83568 0.1096,6.51064 0.012,0.028 -6.1706,1.8606 -0.012,-0.028 -3.52847,-5.49716 -4.84756,-4.97504 -4.38948,1.77076 0.004,6.98808 1.32988,6.3674 0.012,0.028 -5.69388,2.99776 -0.036,-0.024 -4.46872,-4.74744 -5.71984,-3.9524 -3.99588,2.57444 1.35228,6.84492 2.49736,6.01192 0.036,0.024 -5.05032,4.02896 -0.012,-0.028 -5.29548,-3.80052 -6.37236,-2.82352 -3.42792,3.3024 2.61076,6.46672 3.60428,5.41388 0.012,0.028 -4.18684,4.90872 -0.012,-0.028 -5.9328,-2.73984 -6.7976,-1.55808 -2.70068,3.894 3.74804,5.86116 4.56732,4.62624 0.036,0.024 -3.1792,5.59148 -0.028,0.012 -6.32008,-1.58052 -6.98032,-0.2244 -1.95064,4.31896 4.83236,5.04324 5.36376,3.68692 0.036,0.024 -2.08816,6.09236 -0.028,0.012 -6.4952,-0.3452 -6.88264,1.07192 -1.10188,4.6226 5.67428,4.02816 5.99356,2.59592 0.012,0.028 -0.86048,6.366 -0.028,0.012 -6.443,0.89744 -6.55756,2.37572 -0.2076,4.72176 6.32684,2.89928 6.3808,1.43648 0.028,-0.012 0.352,6.45016 -0.028,0.012 -6.1784,2.08796 -6.005,3.55844 0.71704,4.68444 6.7596,1.66412 6.51804,0.1784 0.028,-0.012 1.56496,6.2766 -0.028,0.012 -5.66376,3.24792 -5.19468,4.61248 1.56608,4.47276 6.97268,0.3228 6.44304,-1.02656 0.024,-0.036 2.71724,5.86052 -0.028,0.012 -4.95948,4.26396 -4.22516,5.53016 2.40764,4.10188 6.89772,-1.01132 6.11028,-2.232 0.028,-0.012 3.74844,5.21688 0.012,0.028 -4.07328,5.10584 -3.119,6.22056 3.14316,3.56424 6.5802,-2.28476 5.57288,-3.35408 0.028,-0.012 4.71148,4.42928 -0.028,0.012 -3.00504,5.77344 -1.89908,6.7216 3.75748,2.92796 6.05044,-3.50536 4.83832,-4.36256 0.028,-0.012 5.43216,3.4444 -0.024,0.036 -1.86088,6.22892 -0.55008,6.96496 4.20508,2.14004 5.27048,-4.56696 3.95204,-5.20444 -0.012,-0.028 6.00123,2.36852 0.012,0.028 -0.64067,6.47228 0.73097,6.93544 4.577,1.30652 4.3009,-5.48464 2.8914,-5.84176 -0.012,-0.028 6.3506,1.18632 -0.024,0.036 0.6174,6.48064 2.0194,6.6786 4.7444,0.42744 3.1872,-6.2054 1.7168,-6.28964 0.024,-0.036 6.4348,-0.028 0.012,0.028 1.8151,6.24644 3.2779,6.17156 4.707,-0.49776 1.9445,-6.66848 0.5347,-6.51024 -0.012,-0.028 6.3218,-1.2542 0.012,0.028 2.9598,5.8 4.3774,5.41436 4.5257,-1.35384 0.6865,-6.93456 -0.7463,-6.48072 -0.012,-0.028 5.9664,-2.4216 0.012,0.028 4.0137,5.11852 5.3102,4.5054 4.2155,-2.21048 -0.6625,-6.92024 -1.9364,-6.2162 -0.012,-0.028 5.3986,-3.53608 0.012,0.028 4.9011,4.28536 6.0991,3.40696 3.7082,-2.9536 -1.9892,-6.68612 -3.0735,-5.73944 -0.012,-0.028 4.6185,-4.4688 0.036,0.024 5.6142,3.2702 6.638,2.20976 3.0643,-3.5982 -3.1869,-6.19428 -4.1275,-5.05796 -0.012,-0.028 3.7096,-5.2728 0.012,0.028 6.1681,2.13368 6.8966,0.92144 2.3521,-4.12916 -4.3242,-5.4598 -4.9769,-4.20204 -0.028,0.012 2.6564,-5.87984 6.4494,0.93632 6.9504,-0.41244 1.5566,-4.47832 -5.295,-4.57364 -5.6825,-3.15656 -0.036,-0.024 1.4668,-6.25952 0.028,-0.012 6.5334,-0.2764 6.7542,-1.71612 0.6321,-4.69872 -6.0536,-3.48272 -6.1758,-2.03512 -0.028,0.012 0.2616,-6.4422 0.028,-0.012 6.3524,-1.5194 6.285,-2.95192 -0.2472,-4.7372 -6.5924,-2.28552 -6.457,-0.83776 -0.028,0.012 -0.9738,-6.3596 0.028,-0.012 5.9666,-2.67928 5.6112,-4.1044 -1.1491,-4.60888 -6.8813,-0.98968 -6.5336,0.4052 -0.028,0.012 -2.1259,-6.0722 0.028,-0.012 5.3078,-3.77108 4.7554,-5.08268 -2.0133,-4.32904 -6.9352,0.3444 -6.3222,1.64072 -0.024,0.036 -3.263,-5.59552 0.028,-0.012 4.4974,-4.69628 3.71,-5.91704 -2.764,-3.85204 -6.7693,1.65564 -5.8984,2.82332 -0.028,0.012 -4.2338,-4.83828 0.024,-0.036 3.5354,-5.45484 2.5281,-6.52408 -3.4769,-3.2234 -6.3305,2.89884 -5.2549,3.85452 -5.0983,-3.91412 0.024,-0.036 2.4216,-6.04668 1.2549,-6.85084 -4.0154,-2.5416 -5.6567,4.05132 -4.4444,4.77968 0.012,0.028 -5.7508,-2.91404 -0.012,-0.028 1.2698,-6.40368 -0.094,-6.96536 -4.3949,-1.7384 -4.8236,5.06744 -3.4217,5.52312 -0.024,0.036 -6.176,-1.77748 -0.012,-0.028 0.02,-6.51056 -1.3827,-6.83732 -4.6607,-0.867 -3.7857,5.87152 -2.3155,6.08468 0.012,0.028 -6.4269,-0.58764 -1.2161,-6.428 -2.6639,-6.42128 -4.7598,0.028 -2.5734,6.47104 -1.141,6.40376 0.012,0.028 -6.4049,0.66292 -0.012,-0.028 -2.3836,-6.07256 -3.8617,-5.80056 -4.6315,0.92932 z m 4.8462,31.0628 c 22.1328,-5.51832 44.4037,-1.24364 62.2571,10.08192 l -41.7097,49.72372 -34.3825,-54.97124 c 4.3847,-1.99376 8.9931,-3.62712 13.8351,-4.8344 z m -31.95675,16.24484 34.14775,54.67548 -62.37175,15.55108 c -3.03284,-27.13256 8.0682,-53.36296 28.224,-70.22656 z m 110.62935,7.61892 c 8.6153,9.4742 15.0658,21.15664 18.3806,34.45168 3.3343,13.37304 3.0823,26.79284 -0.1308,39.2604 l -59.8076,-24.15504 41.558,-49.55704 z m -58.9195,45.54424 8.3554,7.03128 -4.2434,10.49456 -10.7469,-0.7344 -2.7292,-10.94616 9.3641,-5.84528 z m -74.75521,37.83376 62.31111,-15.53588 -4.4896,64.27668 c -25.69199,-5.4388 -47.77643,-23.37064 -57.82151,-48.7408 z m 83.69891,-14.10504 60.1334,24.2992 c -10.465,18.2618 -28.0602,32.40724 -50.1,37.9024 -4.8625,1.21236 -9.7186,1.9454 -14.546,2.24176 l 4.5125,-64.4434 z"
     style="fill:#502814;fill-opacity:1;stroke:#ffffe6;stroke-width:2;stroke-miterlimit:4;stroke-opacity:1;stroke-dasharray:none"
     inkscape:connector-curvature="0" />
  <path
     sodipodi:type="arc"
     style="fill:#ffffe6;fill-opacity:1;stroke:#ffffe6;stroke-width:2;stroke-miterlimit:4;stroke-opacity:1;stroke-dasharray:none"
     id="path8930"
     sodipodi:cx="373.21429"
     sodipodi:cy="528.43359"
     sodipodi:rx="25.357143"
     sodipodi:ry="25.357143"
     d="m 398.57144,528.43359 a 25.357143,25.357143 0 1 1 -50.71429,0 25.357143,25.357143 0 1 1 50.71429,0 z"
     transform="matrix(0.97029572,-0.24192188,0.24192188,0.97029572,543.86867,-69.265159)" />
  <path
     style="fill:#502814;fill-opacity:1;stroke:#ffffe6;stroke-width:2;stroke-miterlimit:4;stroke-opacity:1;stroke-dasharray:none"
     d="m 1019.0683,281.48548 -1.6339,6.88092 0.073,4.16864 0.5898,2.23624 -6.8683,2.29216 -0.8626,-2.16824 -2.4232,-3.38944 -5.4163,-4.54336 -3.98037,1.9908 0.47304,7.06416 1.30873,3.95716 1.2341,1.979 -5.91439,4.18 -1.44652,-1.7972 -3.30296,-2.52596 -6.5164,-2.7554 -3.22312,3.09028 2.55,6.61072 2.39292,3.397 1.765,1.52456 -4.3996,5.73468 -1.93184,-1.28968 -3.90244,-1.44252 -7.04064,-0.72448 -2.1474,3.91712 4.35452,5.58104 3.30296,2.526 2.13672,0.94876 -2.52816,6.7818 -2.22788,-0.66836 -4.14568,-0.2224 -6.93592,1.375 -0.90472,4.38024 5.83352,4.02068 3.87204,1.45008 2.31912,0.2592 -0.3836,7.24552 -2.34956,0.008 -4.02524,1.03572 -6.21712,3.35372 0.4292,4.43412 6.75172,2.1492 4.11544,0.23 2.3118,-0.41576 1.7464,7.00432 -2.23636,0.7186 -3.52568,2.13508 -4.95244,5.0674 1.70272,4.1166 7.0638,0.0424 4.04036,-0.97516 2.0774,-1.09768 3.74024,6.21736 -1.92596,1.31756 -2.73808,3.09816 -3.26304,6.28868 2.8552,3.4428 6.76952,-2.04212 3.55604,-2.14268 1.65332,-1.63608 5.41608,4.80112 -1.4412,1.84084 -1.73044,3.78092 -1.22468,6.97212 3.73504,2.45048 5.87639,-3.94508 2.7684,-3.10572 1.1003,-2.04572 6.5769,2.99796 -0.8427,2.17472 -0.518,4.1228 0.852,7.03404 4.2966,1.2154 4.4601,-5.49212 1.7304,-3.78092 0.426,-2.29624 7.192,0.94436 -0.1604,2.32672 0.6948,4.07808 2.9063,6.48964 4.4491,-0.1108 2.6493,-6.55436 0.5483,-4.13036 -0.256,-2.3194 7.1404,-1.2006 0.529,2.2514 1.8924,3.71504 4.6731,5.3084 4.2225,-1.40704 0.5956,-7.04076 -0.7022,-4.1084 -0.9157,-2.12276 6.4595,-3.28528 1.1811,2.0244 2.8707,2.98804 6.0383,3.67972 3.6397,-2.58224 -1.5267,-6.89804 -1.8621,-3.7226 -1.5375,-1.77452 5.2253,-5.00656 1.7119,1.57 3.6519,1.98808 6.8506,1.77028 2.7231,-3.54536 -3.4977,-6.14896 -2.8782,-3.01836 -1.985,-1.24428 3.5132,-6.31884 2.0837,0.99416 4.0695,0.82116 7.0716,-0.314 1.564,-4.19032 -5.1736,-4.86156 -3.6291,-2.02596 -2.2431,-0.60016 1.4825,-7.1008 2.3114,0.3576 4.1158,-0.41428 6.6485,-2.3984 0.2452,-4.44128 -6.357,-3.1494 -4.0392,-0.82872 -2.3344,0.0664 -0.7004,-7.20072 2.327,-0.3548 3.8134,-1.62712 5.6417,-4.2408 -1.0811,-4.336 -6.9722,-1.09584 -4.131,0.3536 -2.2212,0.77924 -2.7622,-6.6866 2.0926,-1.03708 3.1773,-2.62796 4.1343,-5.7652 -2.3016,-3.80624 -6.9963,1.00368 -3.8285,1.56648 -1.873,1.40096 -4.6425,-5.57368 1.6987,-1.583 2.2533,-3.49256 2.2856,-6.72136 -3.3482,-2.9656 -6.3912,3.04284 -3.2077,2.63552 -1.373,1.85604 -6.0685,-3.92988 1.1685,-2.03048 1.1243,-4.01628 0.2016,-7.07132 -4.0689,-1.85192 -5.2176,4.7792 -2.2911,3.46984 -0.7745,2.18992 -6.964,-1.96744 0.5244,-2.2886 -0.1032,-4.16108 -1.8905,-6.80732 -4.4259,-0.57124 -3.604,6.08384 -1.1318,3.98596 -0.092,2.34196 -7.2459,0.1316 -0.188,-2.3042 -1.3087,-3.9572 -3.8313,-5.937 -4.3889,0.74 z m 9.8581,51.9392 c 10.9089,-2.71992 21.9411,3.90888 24.661,14.81784 2.7199,10.90896 -3.9013,21.97148 -14.8103,24.69136 -10.909,2.71992 -21.979,-3.93164 -24.6989,-14.8406 -2.7199,-10.909 3.9392,-21.94868 14.8482,-24.6686 z"
     id="path8909"
     inkscape:connector-curvature="0" />
  <path
     id="path8963"
     d="m 1100.3186,149.36164 1.3344,6.83344 2.5406,5.99548 0.02,0.024 -5.0244,4.03672 -0.02,-0.024 -5.3308,-3.77516 -6.3583,-2.79684 -3.4065,3.28616 2.6207,6.47804 3.6184,5.40556 0.02,0.024 -4.1564,4.91248 -0.044,-0.004 -5.9217,-2.72772 -6.784,-1.52192 -2.7405,3.88384 3.8181,5.83988 4.5675,4.63864 0.044,0.008 -3.1733,5.62748 -0.02,-0.024 -6.3336,-1.54012 -6.966,-0.2308 -1.9413,4.34608 4.8432,5.0178 5.3699,3.66948 0.02,0.024 -2.0431,6.11972 -0.02,-0.024 -6.5272,-0.318 -6.8863,1.1018 -1.0453,4.6222 5.6707,4.03028 5.9678,2.5784 0.044,0.004 -0.8531,6.37532 -0.024,0.02 -6.452,0.9022 -6.556,2.40696 -0.1904,4.73516 6.3697,2.8658 6.3543,1.40908 0.044,0.008 0.346,6.431 -0.024,0.02 -6.1516,2.11284 -5.9799,3.57212 0.71,4.69884 6.7701,1.60924 6.5295,0.1616 0.02,0.024 1.5869,6.22484 -0.024,0.02 -5.6374,3.24604 -5.1901,4.65924 1.5763,4.45568 6.9522,0.318 6.4543,-1.0584 0.024,-0.02 2.7428,5.8486 -0.024,0.02 -4.9463,4.2504 -4.2348,5.54884 2.4197,4.07472 6.8908,-0.98928 6.1103,-2.2762 0.024,-0.02 3.8022,5.23328 -0.024,0.02 -4.0346,5.13308 -3.0886,6.2226 3.1275,3.56036 6.5859,-2.31272 5.5892,-3.36556 0.01,-0.0436 4.7148,4.41584 -0.024,0.02 -3.001,5.81136 -1.8459,6.71028 3.7689,2.90128 6.0166,-3.52156 4.8292,-4.35844 0.024,-0.02 5.4298,3.43288 0.02,0.024 -1.864,6.25992 -0.5616,6.93604 4.2494,2.12724 5.2452,-4.5834 3.9106,-5.19744 0.024,-0.02 6.0277,2.34176 -0.024,0.02 -0.6234,6.4788 0.7571,6.94352 4.5807,1.3072 4.2968,-5.51664 2.8517,-5.8574 0.024,-0.02 6.3269,1.15868 -0.01,0.0436 0.608,6.47248 2.0991,6.66388 4.7006,0.40892 3.1758,-6.20872 1.7147,-6.306 -0.02,-0.024 6.4516,-0.052 0.02,0.024 1.8305,6.24104 3.2756,6.15668 4.7332,-0.50312 1.9332,-6.69644 0.4924,-6.49952 -0.016,-0.024 6.3327,-1.27904 -0,0.0436 3.0001,5.77744 4.3742,5.4358 4.559,-1.381 0.6306,-6.94744 -0.7643,-6.47484 0.01,-0.0436 5.9564,-2.43484 0.02,0.024 4.0229,5.11168 5.3512,4.49424 4.178,-2.22432 -0.6952,-6.91136 -1.943,-6.23644 -0.02,-0.024 5.3917,-3.53104 0.02,0.024 4.917,4.26888 6.0869,3.38028 3.689,-2.9506 -1.9613,-6.68676 -3.1196,-5.72928 -0.02,-0.024 4.6248,-4.48028 0.02,0.024 5.6389,3.2422 6.6113,2.18812 3.0805,-3.62864 -3.2068,-6.16812 -4.1239,-5.0382 -0.016,-0.024 3.6809,-5.30096 0.02,0.024 6.1495,2.13732 6.9313,0.87408 2.3316,-4.12756 -4.3489,-5.45416 -4.9998,-4.17012 -0.02,-0.024 2.6083,-5.8736 0.044,0.004 6.4304,0.92896 6.9824,-0.43772 1.4933,-4.48412 -5.2753,-4.54936 -5.7217,-3.14348 -0.02,-0.024 1.4643,-6.27848 0.02,0.024 6.5182,-0.3324 6.7396,-1.72916 0.634,-4.70964 -6.0546,-3.44232 -6.1887,-2.03172 -0.024,0.02 0.2604,-6.44676 6.3305,-1.54784 6.2898,-2.98608 -0.2344,-4.73536 -6.6228,-2.25704 -6.4511,-0.79804 -0.044,-0.008 -0.9849,-6.35324 0.024,-0.02 5.9542,-2.70364 5.6196,-4.12136 -1.1742,-4.59336 -6.9174,-0.9614 -6.4885,0.42656 -0.024,0.016 -2.1706,-6.07116 0.024,-0.02 5.3207,-3.78844 4.7216,-5.0914 -2.0038,-4.29964 -6.9686,0.3504 -6.3006,1.64208 -0.024,0.02 -3.2852,-5.53176 0.024,-0.02 4.5284,-4.71928 3.6652,-5.90756 -2.792,-3.8428 -6.751,1.66016 -5.906,2.82316 -0.024,0.02 -4.2459,-4.83372 0.024,-0.02 3.5087,-5.48484 2.5051,-6.49396 -3.4884,-3.2596 -6.3013,2.91716 -5.2471,3.88952 -0,0.0436 -5.1217,-3.96568 0.024,-0.02 2.4108,-6.03912 1.2232,-6.87596 -4.0057,-2.53612 -5.6561,4.07088 -4.4113,4.82732 -0.024,0.02 -5.7379,-2.89992 0.01,-0.0436 1.2345,-6.382 -0.1,-6.99604 -4.4311,-1.68624 -4.7836,5.0592 -3.4283,5.54236 -6.1934,-1.71924 0,-0.0436 -0.02,-6.51356 -1.4028,-6.82212 -4.6751,-0.85232 -3.7271,5.87536 -2.3303,6.09656 0.02,0.024 -6.4237,-0.5476 -0.02,-0.024 -1.2215,-6.413 -2.6965,-6.423 -4.7261,0.036 -2.574,6.5054 -1.1036,6.40276 -0.01,0.0436 -6.3921,0.66552 -0.02,-0.024 -2.421,-6.04368 -3.8433,-5.82156 -4.6461,0.94204 -1.3106,6.86216 0.1324,6.509 0.02,0.024 -6.179,1.86264 -3.5356,-5.50428 -4.8753,-4.95584 -4.403,1.80832 0.04,6.96388 1.341,6.36488 0.02,0.024 -5.6901,3.01396 -0.02,-0.024 -4.4849,-4.73736 -5.7534,-3.93156 -3.9462,2.59664 z m 16.1296,26.98552 c 18.454,-13.40756 40.7046,-17.787 61.5005,-13.97416 l -20.0457,61.72776 -52.4715,-38.08852 c 3.3186,-3.49108 6.9796,-6.73192 11.0167,-9.66512 z m -23.5443,27.03316 52.143,37.90224 -52.0046,37.78356 c -12.976,-24.02072 -12.5094,-52.49964 -0.1384,-75.6858 z m 105.4278,-34.37836 c 11.5371,5.557 21.8942,13.97236 29.948,25.05756 8.1012,11.15024 12.8946,23.68724 14.5858,36.45064 l -64.5013,0.008 19.9675,-61.51644 z m -37.568,64.29956 10.381,3.38924 -0,11.32 -10.2395,3.34496 -6.6309,-9.1268 6.4925,-8.9274 z m -55.1391,63.08264 51.9541,-37.74684 19.9157,61.2782 c -25.8586,4.5816 -53.0523,-3.77152 -71.8698,-23.53136 z m 72.3204,-44.43212 64.8574,0.002 c -2.8619,20.85224 -13.877,40.55896 -32.2534,53.91024 -4.0543,2.94564 -8.2822,5.44448 -12.647,7.52764 l -19.957,-61.44132 z"
     style="fill:#502814;fill-opacity:1;stroke:#ffffe6;stroke-width:2;stroke-miterlimit:4;stroke-opacity:1;stroke-dasharray:none"
     inkscape:connector-curvature="0" />
  <path
     transform="matrix(0.809017,-0.58778524,0.58778524,0.809017,557.81123,35.928321)"
     d="m 452.85714,523.79077 a 85.714287,85.714287 0 1 1 -171.42857,0 85.714287,85.714287 0 1 1 171.42857,0 z"
     sodipodi:ry="85.714287"
     sodipodi:rx="85.714287"
     sodipodi:cy="523.79077"
     sodipodi:cx="367.14285"
     id="path8981"
     style="fill:#ffffe6;fill-opacity:1;stroke:#783c1e;stroke-width:2;stroke-miterlimit:4;stroke-opacity:1;stroke-dasharray:none"
     sodipodi:type="arc" />
  <path
     style="fill:#dc6e37;fill-opacity:1;stroke:#ffffe6;stroke-width:2;stroke-miterlimit:4;stroke-opacity:1;stroke-dasharray:none"
     d="m 1100.3186,149.36164 1.3344,6.83344 2.5406,5.99548 0.02,0.024 -5.0244,4.03672 -0.02,-0.024 -5.3308,-3.77516 -6.3583,-2.79684 -3.4065,3.28616 2.6207,6.47804 3.6184,5.40556 0.02,0.024 -4.1564,4.91248 -0.044,-0.004 -5.9217,-2.72772 -6.784,-1.52192 -2.7405,3.88384 3.8181,5.83988 4.5675,4.63864 0.044,0.008 -3.1733,5.62748 -0.02,-0.024 -6.3336,-1.54012 -6.966,-0.2308 -1.9413,4.34608 4.8432,5.0178 5.3699,3.66948 0.02,0.024 -2.0431,6.11972 -0.02,-0.024 -6.5272,-0.318 -6.8863,1.1018 -1.0453,4.6222 5.6707,4.03028 5.9678,2.5784 0.044,0.004 -0.8531,6.37532 -0.024,0.02 -6.452,0.9022 -6.556,2.40696 -0.1904,4.73516 6.3697,2.8658 6.3543,1.40908 0.044,0.008 0.346,6.431 -0.024,0.02 -6.1516,2.11284 -5.9799,3.57212 0.71,4.69884 6.7701,1.60924 6.5295,0.1616 0.02,0.024 1.5869,6.22484 -0.024,0.02 -5.6374,3.24604 -5.1901,4.65924 1.5763,4.45568 6.9522,0.318 6.4543,-1.0584 0.024,-0.02 2.7428,5.8486 -0.024,0.02 -4.9463,4.2504 -4.2348,5.54884 2.4197,4.07472 6.8908,-0.98928 6.1103,-2.2762 0.024,-0.02 3.8022,5.23328 -0.024,0.02 -4.0346,5.13308 -3.0886,6.2226 3.1275,3.56036 6.5859,-2.31272 5.5892,-3.36556 0.01,-0.0436 4.7148,4.41584 -0.024,0.02 -3.001,5.81136 -1.8459,6.71028 3.7689,2.90128 6.0166,-3.52156 4.8292,-4.35844 0.024,-0.02 5.4298,3.43288 0.02,0.024 -1.864,6.25992 -0.5616,6.93604 4.2494,2.12724 5.2452,-4.5834 3.9106,-5.19744 0.024,-0.02 6.0277,2.34176 -0.024,0.02 -0.6234,6.4788 0.7571,6.94352 4.5807,1.3072 4.2968,-5.51664 2.8517,-5.8574 0.024,-0.02 6.3269,1.15868 -0.01,0.0436 0.608,6.47248 2.0991,6.66388 4.7006,0.40892 3.1758,-6.20872 1.7147,-6.306 -0.02,-0.024 6.4516,-0.052 0.02,0.024 1.8305,6.24104 3.2756,6.15668 4.7332,-0.50312 1.9332,-6.69644 0.4924,-6.49952 -0.016,-0.024 6.3327,-1.27904 -0,0.0436 3.0001,5.77744 4.3742,5.4358 4.559,-1.381 0.6306,-6.94744 -0.7643,-6.47484 0.01,-0.0436 5.9564,-2.43484 0.02,0.024 4.0229,5.11168 5.3512,4.49424 4.178,-2.22432 -0.6952,-6.91136 -1.943,-6.23644 -0.02,-0.024 5.3917,-3.53104 0.02,0.024 4.917,4.26888 6.0869,3.38028 3.689,-2.9506 -1.9613,-6.68676 -3.1196,-5.72928 -0.02,-0.024 4.6248,-4.48028 0.02,0.024 5.6389,3.2422 6.6113,2.18812 3.0805,-3.62864 -3.2068,-6.16812 -4.1239,-5.0382 -0.016,-0.024 3.6809,-5.30096 0.02,0.024 6.1495,2.13732 6.9313,0.87408 2.3316,-4.12756 -4.3489,-5.45416 -4.9998,-4.17012 -0.02,-0.024 2.6083,-5.8736 0.044,0.004 6.4304,0.92896 6.9824,-0.43772 1.4933,-4.48412 -5.2753,-4.54936 -5.7217,-3.14348 -0.02,-0.024 1.4643,-6.27848 0.02,0.024 6.5182,-0.3324 6.7396,-1.72916 0.634,-4.70964 -6.0546,-3.44232 -6.1887,-2.03172 -0.024,0.02 0.2604,-6.44676 6.3305,-1.54784 6.2898,-2.98608 -0.2344,-4.73536 -6.6228,-2.25704 -6.4511,-0.79804 -0.044,-0.008 -0.9849,-6.35324 0.024,-0.02 5.9542,-2.70364 5.6196,-4.12136 -1.1742,-4.59336 -6.9174,-0.9614 -6.4885,0.42656 -0.024,0.016 -2.1706,-6.07116 0.024,-0.02 5.3207,-3.78844 4.7216,-5.0914 -2.0038,-4.29964 -6.9686,0.3504 -6.3006,1.64208 -0.024,0.02 -3.2852,-5.53176 0.024,-0.02 4.5284,-4.71928 3.6652,-5.90756 -2.792,-3.8428 -6.751,1.66016 -5.906,2.82316 -0.024,0.02 -4.2459,-4.83372 0.024,-0.02 3.5087,-5.48484 2.5051,-6.49396 -3.4884,-3.2596 -6.3013,2.91716 -5.2471,3.88952 -0,0.0436 -5.1217,-3.96568 0.024,-0.02 2.4108,-6.03912 1.2232,-6.87596 -4.0057,-2.53612 -5.6561,4.07088 -4.4113,4.82732 -0.024,0.02 -5.7379,-2.89992 0.01,-0.0436 1.2345,-6.382 -0.1,-6.99604 -4.4311,-1.68624 -4.7836,5.0592 -3.4283,5.54236 -6.1934,-1.71924 0,-0.0436 -0.02,-6.51356 -1.4028,-6.82212 -4.6751,-0.85232 -3.7271,5.87536 -2.3303,6.09656 0.02,0.024 -6.4237,-0.5476 -0.02,-0.024 -1.2215,-6.413 -2.6965,-6.423 -4.7261,0.036 -2.574,6.5054 -1.1036,6.40276 -0.01,0.0436 -6.3921,0.66552 -0.02,-0.024 -2.421,-6.04368 -3.8433,-5.82156 -4.6461,0.94204 -1.3106,6.86216 0.1324,6.509 0.02,0.024 -6.179,1.86264 -3.5356,-5.50428 -4.8753,-4.95584 -4.403,1.80832 0.04,6.96388 1.341,6.36488 0.02,0.024 -5.6901,3.01396 -0.02,-0.024 -4.4849,-4.73736 -5.7534,-3.93156 -3.9462,2.59664 z m 16.1296,26.98552 c 18.454,-13.40756 40.7046,-17.787 61.5005,-13.97416 l -20.0457,61.72776 -52.4715,-38.08852 c 3.3186,-3.49108 6.9796,-6.73192 11.0167,-9.66512 z m -23.5443,27.03316 52.143,37.90224 -52.0046,37.78356 c -12.976,-24.02072 -12.5094,-52.49964 -0.1384,-75.6858 z m 105.4278,-34.37836 c 11.5371,5.557 21.8942,13.97236 29.948,25.05756 8.1012,11.15024 12.8946,23.68724 14.5858,36.45064 l -64.5013,0.008 19.9675,-61.51644 z m -37.568,64.29956 10.381,3.38924 -0,11.32 -10.2395,3.34496 -6.6309,-9.1268 6.4925,-8.9274 z m -55.1391,63.08264 51.9541,-37.74684 19.9157,61.2782 c -25.8586,4.5816 -53.0523,-3.77152 -71.8698,-23.53136 z m 72.3204,-44.43212 64.8574,0.002 c -2.8619,20.85224 -13.877,40.55896 -32.2534,53.91024 -4.0543,2.94564 -8.2822,5.44448 -12.647,7.52764 l -19.957,-61.44132 z"
     id="path8965"
     inkscape:connector-curvature="0" />
  <path
     transform="matrix(0.809017,-0.58778524,0.58778524,0.809017,553.32023,36.191401)"
     d="m 398.57144,528.43359 a 25.357143,25.357143 0 1 1 -50.71429,0 25.357143,25.357143 0 1 1 50.71429,0 z"
     sodipodi:ry="25.357143"
     sodipodi:rx="25.357143"
     sodipodi:cy="528.43359"
     sodipodi:cx="373.21429"
     id="path8967"
     style="fill:#ffffe6;fill-opacity:1;stroke:#ffffe6;stroke-width:2;stroke-miterlimit:4;stroke-opacity:1;stroke-dasharray:none"
     sodipodi:type="arc" />
  <path
     inkscape:connector-curvature="0"
     id="path8969"
     d="m 1122.9601,180.15272 1.0626,6.99196 1.6294,3.83768 1.3845,1.85252 -5.5094,4.69816 -1.6121,-1.68716 -3.5164,-2.23492 -6.724,-2.18356 -2.9447,3.33696 3.0849,6.37252 2.6958,3.17884 1.8856,1.37252 -3.9179,6.09124 -2.0145,-1.12448 -4.0086,-1.10476 -7.0741,-0.1136 -1.8308,4.07268 4.8407,5.17408 3.4912,2.25328 2.2076,0.75236 -1.931,6.9652 -2.2743,-0.47204 -4.1586,0.1244 -6.7994,1.96576 -0.5237,4.43636 6.1282,3.54344 4.0087,1.10468 2.3366,0.0792 0.1964,7.23508 -2.3161,0.2148 -3.9271,1.34692 -5.9157,3.87316 0.802,4.40016 6.9149,1.54264 4.1333,-0.106 2.2473,-0.62848 2.3585,6.86168 -2.1762,0.8858 -3.3442,2.4682 -4.508,5.43844 2.059,3.95044 7.0652,-0.53648 3.9018,-1.32844 1.988,-1.2512 4.2431,5.84008 -1.8043,1.50404 -2.4692,3.3004 -2.6935,6.55364 3.1209,3.17896 6.5653,-2.60684 3.3808,-2.41772 1.5149,-1.79596 5.797,4.36352 -1.2922,1.94308 -1.3781,3.89828 -0.6696,7.05312 3.9369,2.12256 5.5117,-4.42936 2.4944,-3.31876 0.9201,-2.13628 6.8202,2.4226 -0.6467,2.24664 -0.1884,4.15388 1.4763,6.92324 4.381,0.87284 3.9707,-5.85912 1.4034,-3.91664 0.254,-2.30892 7.221,0.316 0.032,2.332 1.0641,4.01664 3.425,6.20272 4.4391,-0.48272 2.0779,-6.763 0.188,-4.15388 -0.4653,-2.2886 7.0222,-1.81864 0.7225,2.21756 2.1718,3.52084 5.1258,4.92844 4.0836,-1.76948 10e-4,-7.06956 -1.0388,-4.03496 -1.1065,-2.05456 6.1707,-3.788 1.334,1.8892 3.1464,2.7356 6.3213,3.17132 3.388,-2.8864 -2.0853,-6.7512 -2.1902,-3.54616 -1.6442,-1.62516 4.7585,-5.46588 1.8535,1.43456 3.7809,1.69512 6.9771,1.1498 2.4073,-3.7576 -3.9995,-5.82392 -3.1211,-2.75396 -2.0902,-1.06936 2.9693,-6.59944 2.1754,0.8144 4.1307,0.47524 7.0149,-0.92488 1.1967,-4.30732 -5.5465,-4.39096 -3.7993,-1.7204 -2.3065,-0.41004 0.8903,-7.17484 2.3043,0.1412 4.0808,-0.76316 6.4392,-2.94008 -0.1196,-4.47108 -6.618,-2.56952 -4.1239,-0.51892 -2.3045,0.284 -1.2856,-7.13912 2.2772,-0.53388 3.661,-1.92588 5.2659,-4.71436 -1.4362,-4.2098 -7.0739,-0.53872 -4.0556,0.7448 -2.1394,0.93636 -3.3468,-6.414 2.0248,-1.20064 2.9261,-2.9372 3.6422,-6.0454 -2.6267,-3.61528 -6.875,1.59544 -3.6977,1.87532 -1.7675,1.5546 -5.066,-5.165 1.5517,-1.74536 1.9615,-3.62692 1.6736,-6.89416 -3.5598,-2.6668 -6.111,3.55136 -2.9628,2.8866 -1.2118,2.00056 -6.3924,-3.42868 0.982,-2.10408 0.7808,-4.08236 -0.3988,-7.08816 -4.2152,-1.49536 -4.786,5.2154 -1.9868,3.64524 -0.5778,2.23524 -7.0988,-1.3704 0.3228,-2.32036 -0.4621,-4.14504 -2.4621,-6.63188 -4.4663,-0.1928 -3.0473,6.38576 -0.8245,4.07544 0.1024,2.32056 -7.194,0.78456 -0.3712,-2.31836 -1.6547,-3.81936 -4.3029,-5.60344 -4.3176,1.12832 -1.0625,6.99096 0.4437,4.11972 0.7917,2.206 -6.669,2.83624 -1.0375,-2.066 -2.6958,-3.1788 -5.7764,-4.0694 -3.7921,2.33016 z m 28.597,44.46436 c 9.0956,-6.60848 21.8077,-4.59508 28.4162,4.50064 6.6084,9.09572 4.6134,21.83304 -4.4824,28.44148 -9.0957,6.60844 -21.8514,4.58812 -28.4598,-4.5076 -6.6085,-9.09572 -4.5698,-21.82612 4.526,-28.43452 z"
     style="fill:#dc6e37;fill-opacity:1;stroke:#ffffe6;stroke-width:2;stroke-miterlimit:4;stroke-opacity:1;stroke-dasharray:none" />
  <path
     inkscape:connector-curvature="0"
     style="fill:#502814;fill-opacity:1;stroke:#ffffe6;stroke-width:2;stroke-miterlimit:4;stroke-opacity:1;stroke-dasharray:none"
     d="m 1032.7687,20.577081 -2.9374,6.31252 -1.4688,6.34376 0,0.032 -6.4375,0.3124 0,-0.032 -2.0937,-6.18752 -3.5,-6 -4.6876,0.65624 -1.6874,6.78128 -0.25,6.5 0,0.032 -6.25,1.53124 -0.032,-0.032 -3.1876,-5.68752 -4.59367,-5.21872 -4.5,1.53124 -0.3436,6.96876 0.96876,6.43752 0.032,0.032 -5.875,2.68748 0,-0.032 -4.21872,-4.96876 -5.5,-4.28124 -4.125,2.375 0.96872,6.90624 2.18752,6.125 0,0.032 -5.25,3.75 0,-0.032 -5.09376,-4.09372 -6.21876,-3.15628 -3.56248,3.125 2.21876,6.59376 3.31248,5.59372 0.032,0.032 -4.43752,4.65624 -0.032,0 -5.75,-3.06252 -6.71876,-1.90624 -2.93752,3.71876 3.46876,6.06248 4.31252,4.875 0.032,0.032 -3.5,5.40628 -0.032,0 -6.21876,-1.90628 -6.93752,-0.625 -2.18748,4.21876 4.53124,5.28124 5.18752,3.96876 0,0.032 -2.375,5.96876 -0.032,0 -6.46876,-0.68752 -6.93748,0.71876 -1.34376,4.531239 5.43748,4.34376 5.84376,2.93752 0.032,0 -1.21876,6.34372 -0.032,0 -6.5,0.53128 -6.68748,2 -0.43752,4.71872 6.15628,3.25 6.28124,1.75 0.032,0 0,6.46876 -0.032,0 -6.28124,1.78124 -6.15628,3.21876 0.43752,4.71876 6.68748,2 6.5,0.56248 0.032,-0.032 1.21876,6.34376 -0.032,0 -5.84376,2.93752 -5.43748,4.34372 1.34376,4.56248 6.93748,0.68752 6.46876,-0.68752 0.032,0 2.375,5.9688 0,0.032 -5.18752,3.96872 -4.53124,5.28128 2.18748,4.21872 6.93752,-0.625 6.21876,-1.90624 0.032,0 3.5,5.43752 -0.032,0 -4.31252,4.875 -3.46876,6.06248 2.93752,3.75 6.71876,-1.93748 5.75,-3.06252 0.032,0 4.43752,4.65624 -0.032,0.032 -3.31248,5.59376 -2.21876,6.625 3.56248,3.09376 6.21876,-3.15628 5.09376,-4.09372 0,-0.032 5.25,3.75 0,0.032 -2.18752,6.125 -0.96872,6.90624 4.125,2.375 5.5,-4.28124 4.21872,-4.96876 0,-0.032 5.875,2.68752 -0.032,0.032 -0.96876,6.43752 0.3436,6.96876 4.5,1.56248 4.59367,-5.25 3.1876,-5.68748 0.032,-0.032 6.25,1.53124 0,0.032 0.25,6.5 1.6874,6.78124 4.6876,0.65624 3.5,-6 2.0937,-6.18748 0,-0.032 6.4375,0.3124 0,0.032 1.4688,6.34376 2.9374,6.31252 4.7188,-0.2188 2.3438,-6.56252 0.8437,-6.46872 0,-0.032 6.375,-0.90624 0,0.032 2.6563,5.93752 4.0624,5.65624 4.625,-1.125 1.0313,-6.875 -0.3748,-6.5 0,-0.032 6.0937,-2.125 0,0.032 3.7188,5.34376 5.0938,4.78124 4.3124,-1.96876 -0.3124,-6.96872 -1.5937,-6.31252 0,-0.032 5.5625,-3.21872 0.032,0.032 4.6562,4.53128 5.9063,3.75 3.8437,-2.75 -1.5937,-6.78128 -2.7813,-5.90624 0,-0.032 4.875,-4.21872 0,0.032 5.4688,3.56252 6.4688,2.56248 3.2812,-3.43748 -2.875,-6.34376 -3.8125,-5.28124 -0.032,0 4,-5.06252 6.0312,2.46876 6.8438,1.28124 2.5937,-3.96872 -4.0312,-5.71876 -4.75,-4.43752 -0.032,-0.032 2.9374,-5.71876 0.032,0 6.4063,1.31248 6.9687,-0.032 1.75,-4.40624 -5.0312,-4.84376 -5.5,-3.46872 -0.032,0 1.8125,-6.18752 0.032,0 6.5312,0.0624 6.8125,-1.34376 0.9063,-4.65624 -5.8438,-3.81252 -6.0625,-2.375 -0.032,0 0.5938,-6.40624 0.032,0 6.4375,-1.15624 6.4375,-2.625 0,-4.75 -6.4375,-2.625 -6.4375,-1.18752 -0.032,0 -0.5938,-6.40624 0.032,0 6.0625,-2.375 5.8438,-3.78124 -0.9063,-4.68752 -6.8125,-1.34372 -6.5312,0.0624 -0.032,0.032 -1.8125,-6.21876 0.032,0 5.5,-3.468759 5.0312,-4.84372 -1.75,-4.40628 -6.9687,-0.032 -6.4063,1.31252 -0.032,0 -2.9374,-5.71876 0.032,-0.032 4.75,-4.43748 4.0312,-5.71876 -2.5937,-3.96876 -6.8438,1.28124 -6.0312,2.46876 -4,-5.03124 0.032,-0.032 3.8125,-5.28128 2.875,-6.34372 -3.2812,-3.43752 -6.4688,2.56252 -5.4688,3.56248 0,0.032 -4.875,-4.21872 0,-0.032 2.7813,-5.9062 1.5937,-6.78128 -3.8437,-2.75 -5.9063,3.75 -4.6562,4.53128 -0.032,0.032 -5.5625,-3.21876 0,-0.032 1.5937,-6.31252 0.3124,-6.96872 -4.3124,-1.96876 -5.0938,4.78128 -3.7188,5.34372 0,0.032 -6.0937,-2.125 0.3748,-6.53124 -1.0313,-6.875 -4.625,-1.125 -4.0624,5.65624 -2.6563,5.93752 0,0.032 -6.375,-0.90628 0,-0.032 -0.8437,-6.46872 -2.3438,-6.56252 -4.7188,-0.2188 z m -2.8124,31.31252 c 22.8102,0 43.3855,9.53556 57.9687,24.84376 l -52.5,38.156239 -20.0625,-61.656239 c 4.7368,-0.87372 9.6035,-1.34376 14.5938,-1.34376 z m -34.93755,8.03128 19.90625,61.312479 -64.28125,0 c 3.6212,-27.060279 20.73824,-49.825959 44.375,-61.312479 z m 105.49995,34.1562 c 6.0674,11.277079 9.5,24.172999 9.5,37.874999 0,13.78252 -3.491,26.74268 -9.625,38.06252 l -52.1874,-37.90624 52.3124,-38.031279 z m -68.1874,29.937519 6.4062,8.84376 -6.6562,9.15624 -10.25,-3.31252 0,-11.2812 10.5,-3.40628 z m -81.68755,18.625 64.21875,0 -19.90623,61.28128 c -23.61304,-11.49272 -40.7034,-34.2346 -44.31252,-61.28128 z m 84.62495,6.56248 52.4688,38.125 c -14.572,15.18768 -35.0667,24.65628 -57.7812,24.65628 -5.0114,0 -9.9006,-0.46348 -14.6563,-1.34376 l 19.9687,-61.43752 z"
     id="path8971" />
  <path
     sodipodi:type="arc"
     style="fill:#ffffe6;fill-opacity:1;stroke:#783c1e;stroke-width:2;stroke-miterlimit:4;stroke-opacity:1;stroke-dasharray:none"
     id="path8983"
     sodipodi:cx="367.14285"
     sodipodi:cy="523.79077"
     sodipodi:rx="85.714287"
     sodipodi:ry="85.714287"
     d="m 452.85714,523.79077 a 85.714287,85.714287 0 1 1 -171.42857,0 85.714287,85.714287 0 1 1 171.42857,0 z"
     transform="translate(663.40267,-391.4988)" />
  <path
     inkscape:connector-curvature="0"
     id="path8973"
     d="m 1032.7687,20.577081 -2.9374,6.31252 -1.4688,6.34376 0,0.032 -6.4375,0.3124 0,-0.032 -2.0937,-6.18752 -3.5,-6 -4.6876,0.65624 -1.6874,6.78128 -0.25,6.5 0,0.032 -6.25,1.53124 -0.032,-0.032 -3.1876,-5.68752 -4.59367,-5.21872 -4.5,1.53124 -0.3436,6.96876 0.96876,6.43752 0.032,0.032 -5.875,2.68748 0,-0.032 -4.21872,-4.96876 -5.5,-4.28124 -4.125,2.375 0.96872,6.90624 2.18752,6.125 0,0.032 -5.25,3.75 0,-0.032 -5.09376,-4.09372 -6.21876,-3.15628 -3.56248,3.125 2.21876,6.59376 3.31248,5.59372 0.032,0.032 -4.43752,4.65624 -0.032,0 -5.75,-3.06252 -6.71876,-1.90624 -2.93752,3.71876 3.46876,6.06248 4.31252,4.875 0.032,0.032 -3.5,5.40628 -0.032,0 -6.21876,-1.90628 -6.93752,-0.625 -2.18748,4.21876 4.53124,5.28124 5.18752,3.96876 0,0.032 -2.375,5.96876 -0.032,0 -6.46876,-0.68752 -6.93748,0.71876 -1.34376,4.531239 5.43748,4.34376 5.84376,2.93752 0.032,0 -1.21876,6.34372 -0.032,0 -6.5,0.53128 -6.68748,2 -0.43752,4.71872 6.15628,3.25 6.28124,1.75 0.032,0 0,6.46876 -0.032,0 -6.28124,1.78124 -6.15628,3.21876 0.43752,4.71876 6.68748,2 6.5,0.56248 0.032,-0.032 1.21876,6.34376 -0.032,0 -5.84376,2.93752 -5.43748,4.34372 1.34376,4.56248 6.93748,0.68752 6.46876,-0.68752 0.032,0 2.375,5.9688 0,0.032 -5.18752,3.96872 -4.53124,5.28128 2.18748,4.21872 6.93752,-0.625 6.21876,-1.90624 0.032,0 3.5,5.43752 -0.032,0 -4.31252,4.875 -3.46876,6.06248 2.93752,3.75 6.71876,-1.93748 5.75,-3.06252 0.032,0 4.43752,4.65624 -0.032,0.032 -3.31248,5.59376 -2.21876,6.625 3.56248,3.09376 6.21876,-3.15628 5.09376,-4.09372 0,-0.032 5.25,3.75 0,0.032 -2.18752,6.125 -0.96872,6.90624 4.125,2.375 5.5,-4.28124 4.21872,-4.96876 0,-0.032 5.875,2.68752 -0.032,0.032 -0.96876,6.43752 0.3436,6.96876 4.5,1.56248 4.59367,-5.25 3.1876,-5.68748 0.032,-0.032 6.25,1.53124 0,0.032 0.25,6.5 1.6874,6.78124 4.6876,0.65624 3.5,-6 2.0937,-6.18748 0,-0.032 6.4375,0.3124 0,0.032 1.4688,6.34376 2.9374,6.31252 4.7188,-0.2188 2.3438,-6.56252 0.8437,-6.46872 0,-0.032 6.375,-0.90624 0,0.032 2.6563,5.93752 4.0624,5.65624 4.625,-1.125 1.0313,-6.875 -0.3748,-6.5 0,-0.032 6.0937,-2.125 0,0.032 3.7188,5.34376 5.0938,4.78124 4.3124,-1.96876 -0.3124,-6.96872 -1.5937,-6.31252 0,-0.032 5.5625,-3.21872 0.032,0.032 4.6562,4.53128 5.9063,3.75 3.8437,-2.75 -1.5937,-6.78128 -2.7813,-5.90624 0,-0.032 4.875,-4.21872 0,0.032 5.4688,3.56252 6.4688,2.56248 3.2812,-3.43748 -2.875,-6.34376 -3.8125,-5.28124 -0.032,0 4,-5.06252 6.0312,2.46876 6.8438,1.28124 2.5937,-3.96872 -4.0312,-5.71876 -4.75,-4.43752 -0.032,-0.032 2.9374,-5.71876 0.032,0 6.4063,1.31248 6.9687,-0.032 1.75,-4.40624 -5.0312,-4.84376 -5.5,-3.46872 -0.032,0 1.8125,-6.18752 0.032,0 6.5312,0.0624 6.8125,-1.34376 0.9063,-4.65624 -5.8438,-3.81252 -6.0625,-2.375 -0.032,0 0.5938,-6.40624 0.032,0 6.4375,-1.15624 6.4375,-2.625 0,-4.75 -6.4375,-2.625 -6.4375,-1.18752 -0.032,0 -0.5938,-6.40624 0.032,0 6.0625,-2.375 5.8438,-3.78124 -0.9063,-4.68752 -6.8125,-1.34372 -6.5312,0.0624 -0.032,0.032 -1.8125,-6.21876 0.032,0 5.5,-3.468759 5.0312,-4.84372 -1.75,-4.40628 -6.9687,-0.032 -6.4063,1.31252 -0.032,0 -2.9374,-5.71876 0.032,-0.032 4.75,-4.43748 4.0312,-5.71876 -2.5937,-3.96876 -6.8438,1.28124 -6.0312,2.46876 -4,-5.03124 0.032,-0.032 3.8125,-5.28128 2.875,-6.34372 -3.2812,-3.43752 -6.4688,2.56252 -5.4688,3.56248 0,0.032 -4.875,-4.21872 0,-0.032 2.7813,-5.9062 1.5937,-6.78128 -3.8437,-2.75 -5.9063,3.75 -4.6562,4.53128 -0.032,0.032 -5.5625,-3.21876 0,-0.032 1.5937,-6.31252 0.3124,-6.96872 -4.3124,-1.96876 -5.0938,4.78128 -3.7188,5.34372 0,0.032 -6.0937,-2.125 0.3748,-6.53124 -1.0313,-6.875 -4.625,-1.125 -4.0624,5.65624 -2.6563,5.93752 0,0.032 -6.375,-0.90628 0,-0.032 -0.8437,-6.46872 -2.3438,-6.56252 -4.7188,-0.2188 z m -2.8124,31.31252 c 22.8102,0 43.3855,9.53556 57.9687,24.84376 l -52.5,38.156239 -20.0625,-61.656239 c 4.7368,-0.87372 9.6035,-1.34376 14.5938,-1.34376 z m -34.93755,8.03128 19.90625,61.312479 -64.28125,0 c 3.6212,-27.060279 20.73824,-49.825959 44.375,-61.312479 z m 105.49995,34.1562 c 6.0674,11.277079 9.5,24.172999 9.5,37.874999 0,13.78252 -3.491,26.74268 -9.625,38.06252 l -52.1874,-37.90624 52.3124,-38.031279 z m -68.1874,29.937519 6.4062,8.84376 -6.6562,9.15624 -10.25,-3.31252 0,-11.2812 10.5,-3.40628 z m -81.68755,18.625 64.21875,0 -19.90623,61.28128 c -23.61304,-11.49272 -40.7034,-34.2346 -44.31252,-61.28128 z m 84.62495,6.56248 52.4688,38.125 c -14.572,15.18768 -35.0667,24.65628 -57.7812,24.65628 -5.0114,0 -9.9006,-0.46348 -14.6563,-1.34376 l 19.9687,-61.43752 z"
     style="fill:#783c1e;fill-opacity:1;stroke:#ffffe6;stroke-width:2;stroke-miterlimit:4;stroke-opacity:1;stroke-dasharray:none" />
  <path
     sodipodi:type="arc"
     style="fill:#ffffe6;fill-opacity:1;stroke:#ffffe6;stroke-width:2;stroke-miterlimit:4;stroke-opacity:1;stroke-dasharray:none"
     id="path8975"
     sodipodi:cx="373.21429"
     sodipodi:cy="528.43359"
     sodipodi:rx="25.357143"
     sodipodi:ry="25.357143"
     d="m 398.57144,528.43359 a 25.357143,25.357143 0 1 1 -50.71429,0 25.357143,25.357143 0 1 1 50.71429,0 z"
     transform="translate(656.75759,-396.49712)" />
  <path
     style="fill:#783c1e;fill-opacity:1;stroke:#ffffe6;stroke-width:2;stroke-miterlimit:4;stroke-opacity:1;stroke-dasharray:none"
     d="m 1032.9875,58.795961 -3.25,6.28124 -0.9375,4.06252 0.032,2.31248 -7.2187,0.56252 -0.3124,-2.31252 -1.5313,-3.875 -4.1563,-5.71876 -4.3437,0.96876 -1.25,6.96876 0.3124,4.15624 0.7187,2.21876 -6.75,2.625 -0.9687,-2.09376 -2.5938,-3.25 -5.65621,-4.25 -3.875,2.21876 0.875,7.03124 1.5,3.875 1.34376,1.90624 -5.65628,4.5 -1.56248,-1.71872 -3.43752,-2.34376 -6.65624,-2.40624 -3.03124,3.28124 2.875,6.46876 2.59376,3.25 1.84372,1.43748 -4.09372,5.968759 -2,-1.187519 -3.96876,-1.21872 -7.06252,-0.3436 -1.93748,4.031239 4.68748,5.31252 3.40628,2.34372 2.18748,0.81252 -2.125,6.93748 -2.28124,-0.56248 -4.15624,0.032 -6.84376,1.75 -0.65624,4.40624 6.03124,3.71876 3.93748,1.21876 2.34376,0.156 0,7.21876 -2.34376,0.156 -3.93748,1.21876 -6.03124,3.71876 0.65624,4.40624 6.84376,1.75 4.15624,0.032 2.28124,-0.56252 2.125,6.93752 -2.18748,0.81248 -3.40628,2.34376 -4.68748,5.31252 1.93748,4.03124 7.06252,-0.3436 3.96876,-1.21876 2,-1.18748 4.09372,5.96876 -1.84372,1.43748 -2.59376,3.25 -2.875,6.46876 3.03124,3.28124 6.65624,-2.40624 3.43752,-2.34376 1.56248,-1.71876 5.65628,4.5 -1.34376,1.90628 -1.5,3.875 -0.875,7.03124 3.875,2.21876 5.65621,-4.25 2.5938,-3.25 0.9687,-2.125 6.75,2.65624 -0.7187,2.21876 -0.3124,4.125 1.25,7 4.3437,0.96872 4.1563,-5.71872 1.5313,-3.875 0.3124,-2.31252 7.2187,0.56252 -0.032,2.31248 0.9375,4.06252 3.25,6.28124 4.4375,-0.3436 2.2813,-6.68748 0.3124,-4.15628 -0.3748,-2.28124 7.0624,-1.625 0.6563,2.25 2.0625,3.59376 4.9688,5.03124 4.1562,-1.625 0.1876,-7.06248 -0.9062,-4.06252 -1.0626,-2.09376 6.2813,-3.59372 1.2813,1.93748 3.0624,2.81252 6.2188,3.375 3.5,-2.78128 -1.9062,-6.81248 -2.0626,-3.625 -1.625,-1.68752 4.9376,-5.28124 1.7812,1.46876 3.75,1.78124 6.9375,1.40624 2.5313,-3.68748 -3.8438,-5.96876 -3.0312,-2.84376 -2.0313,-1.125 3.1563,-6.53124 2.1562,0.90624 4.0938,0.59376 7.0312,-0.71876 1.3125,-4.25 -5.4063,-4.59372 -3.7187,-1.78128 -2.2813,-0.5 1.0626,-7.15624 2.3437,0.2188 4.0937,-0.65624 6.5,-2.75 0,-4.46876 -6.5,-2.75 -4.0937,-0.65624 -2.3437,0.2188 -1.0626,-7.15624 2.2813,-0.5 3.7187,-1.78124 5.4063,-4.59376 -1.3125,-4.25 -7.0312,-0.71876 -4.0938,0.59376 -2.1562,0.90624 -3.1563,-6.53124 2.0313,-1.125 3.0312,-2.843759 3.8438,-5.96872 -2.5313,-3.68752 -6.9375,1.40624 -3.75,1.78128 -1.7812,1.46872 -4.9376,-5.28124 1.625,-1.68748 2.0626,-3.625 1.9062,-6.81252 -3.5,-2.78124 -6.2188,3.375 -3.0624,2.81248 -1.2813,1.93752 -6.2813,-3.59376 1.0626,-2.09376 0.9062,-4.06248 -0.1876,-7.06252 -4.1562,-1.625 -4.9688,5.03128 -2.0625,3.59372 -0.6563,2.25 -7.0624,-1.625 0.3748,-2.28124 -0.3124,-4.15624 -2.2813,-6.68752 -4.4375,-0.3436 z m -3,52.781239 c 11.243,0 20.3438,9.10084 20.3438,20.34376 0,11.24296 -9.1008,20.375 -20.3438,20.375 -11.2429,0 -20.375,-9.13204 -20.375,-20.375 0,-11.24292 9.1321,-20.34376 20.375,-20.34376 z"
     id="path8977"
     inkscape:connector-curvature="0" />
  <text
     xml:space="preserve"
     style="font-size:160px;font-style:normal;font-weight:normal;line-height:125%;letter-spacing:0px;word-spacing:0px;fill:#000000;fill-opacity:1;stroke:none;font-family:Sans"
     x="278.85712"
     y="298.57141"
     id="text8985"
     sodipodi:linespacing="125%"><tspan
       sodipodi:role="line"
       id="tspan8987"
       x="278.85712"
       y="298.57141"
       style="font-size:160px;font-style:normal;font-variant:normal;font-weight:bold;font-stretch:normal;text-align:start;line-height:125%;writing-mode:lr-tb;text-anchor:start;fill:#502814;fill-opacity:1;font-family:Didot;-inkscape-font-specification:Didot Bold"><tspan
   style="font-size:224px;fill:#502814;fill-opacity:1"
   id="tspan8995">B</tspan>ECCA</tspan></text>
</svg>
